<?xml version="1.0" encoding="UTF-8"?>
<svg id="Outline" xmlns="http://www.w3.org/2000/svg" version="1.1" viewBox="0 0 64 64">
  <!-- Generator: Adobe Illustrator 29.5.1, SVG Export Plug-In . SVG Version: 2.1.0 Build 141)  -->
  <path d="M50.05,38.3c-2.56-1.46-5.36-2.44-8.25-2.93l-4.91-9.82c-.16-.34-.51-.55-.89-.55h-4c-.28,0-.55.12-.74.33-.19.21-.28.49-.26.77l.89,8.9h-.89c-.55,0-1,.45-1,1s.45,1,1,1h6.61c4.01,0,7.97,1.05,11.44,2.96-1.72.98-3.57,1.75-5.51,2.27-1.94.51-3.93.77-5.93.77h-11.22c-3.08,0-6.13-.63-8.96-1.78-.1-.07-.21-.11-.32-.14-.74-.32-1.46-.66-2.16-1.04,1.72-.98,3.57-1.75,5.51-2.27,1.94-.51,3.93-.77,5.93-.77h.61c.55,0,1-.45,1-1s-.45-1-1-1h-.61c-1.36,0-2.71.12-4.04.34l-2.43-5.73c-.16-.37-.52-.61-.92-.61h-3c-.28,0-.55.12-.74.33-.19.21-.28.5-.25.78l.79,7.25c-.64.3-1.27.61-1.88.96-.58.37-.92.99-.92,1.68s.34,1.31.95,1.7c.6.34,1.22.65,1.85.94l-.79,7.25c-.03.28.06.57.25.78s.46.33.74.33h3c.4,0,.76-.24.92-.61l2.43-5.73c1.33.22,2.68.34,4.04.34h5.5l-.89,8.9c-.02.28.07.56.26.77s.46.33.74.33h4c.38,0,.73-.21.89-.55l4.91-9.81c.76-.13,1.51-.28,2.25-.47,2.11-.57,4.13-1.4,6.03-2.49.58-.37.92-.99.92-1.68s-.34-1.31-.95-1.7ZM37.61,35h-3.7l-.81-8h2.28l4.04,8.07c-.6-.04-1.21-.07-1.81-.07ZM18.34,31l2.01,4.74c-.14.04-.27.06-.4.09-.76.21-1.5.46-2.23.73l-.6-5.56h1.22ZM18.34,49h-1.22l.6-5.56c.86.32,1.74.59,2.63.81l-2.01,4.75ZM35.38,53h-2.28l.81-8h3.7c.6,0,1.21-.03,1.81-.07l-4.04,8.07Z"/>
  <path d="M56.972,13.649c-.105-.542-.636-.908-1.176-.807-.542.105-.901.615-.795,1.157,0,1.093-1.561,3.943-3,6.192-1.439-2.248-3-5.098-3-6.192,0-1.654,1.346-3,3-3,.453,0,.909.106,1.319.308.496.245,1.096.04,1.338-.457.244-.496.039-1.095-.457-1.338-.683-.335-1.444-.513-2.201-.513-2.757,0-5,2.243-5,5,0,2.4,3.479,7.559,4.177,8.568.187.271.494.432.823.432s.636-.161.823-.432c.698-1.01,4.177-6.168,4.177-8.568,0-.109-.007-.24-.028-.351Z"/>
  <circle cx="52" cy="14" r="1"/>
  <path d="M12,9c-2.757,0-5,2.243-5,5,0,2.399,3.479,7.559,4.177,8.568.187.271.494.432.823.432s.636-.161.823-.432c.698-1.01,4.177-6.169,4.177-8.568,0-2.757-2.243-5-5-5ZM12,20.192c-1.439-2.25-3-5.1-3-6.192,0-1.654,1.346-3,3-3s3,1.346,3,3c0,1.092-1.561,3.942-3,6.192Z"/>
  <circle cx="12" cy="14" r="1"/>
  <path d="M16,22c0,.552.448,1,1,1h2c.552,0,1-.448,1-1s-.448-1-1-1h-2c-.552,0-1,.448-1,1Z"/>
  <path d="M37.571,23h3.714c.552,0,1-.448,1-1s-.448-1-1-1h-3.714c-.552,0-1,.448-1,1s.448,1,1,1Z"/>
  <path d="M30.143,23h3.714c.552,0,1-.448,1-1s-.448-1-1-1h-3.714c-.552,0-1,.448-1,1s.448,1,1,1Z"/>
  <path d="M22.714,23h3.714c.552,0,1-.448,1-1s-.448-1-1-1h-3.714c-.552,0-1,.448-1,1s.448,1,1,1Z"/>
  <path d="M45,23h2c.552,0,1-.448,1-1s-.448-1-1-1h-2c-.552,0-1,.448-1,1s.448,1,1,1Z"/>
</svg>