<?xml version="1.0" encoding="UTF-8"?>
<svg id="Outline" xmlns="http://www.w3.org/2000/svg" version="1.1" viewBox="0 0 64 64">
  <!-- Generator: Adobe Illustrator 29.5.1, SVG Export Plug-In . SVG Version: 2.1.0 Build 141)  -->
  <path d="M50,39c.55,0,1-.45,1-1v-4c0-6.81-3.61-12.77-9-16.13v-1.23c0-2.59-1.05-5.02-2.95-6.83-1.88-1.81-4.38-2.81-7.05-2.81-5.51,0-10,4.32-10,9.64v1.23c-5.39,3.36-9,9.32-9,16.13v20c0,1.65,1.35,3,3,3h32c1.65,0,3-1.35,3-3v-12c0-.55-.45-1-1-1s-1,.45-1,1v12c0,.55-.45,1-1,1H16c-.55,0-1-.45-1-1v-20c0-1.83.3-3.58.83-5.23,1.21,1.39,2.97,2.23,4.89,2.23h.28v1c0,1.65,1.35,3,3,3s3-1.35,3-3v-1h10v1c0,1.65,1.35,3,3,3s3-1.35,3-3v-1h.28c1.92,0,3.68-.84,4.89-2.23.53,1.65.83,3.4.83,5.23v4c0,.55.45,1,1,1ZM32,9c2.15,0,4.16.8,5.67,2.26.89.84,1.53,1.86,1.92,2.96-.18-.19-.35-.39-.54-.57-1.87-1.81-4.38-2.81-7.05-2.81-2.97,0-5.71,1.26-7.56,3.33,1.07-3,4.05-5.17,7.56-5.17ZM38.63,16.22c-2.07-.78-4.3-1.22-6.63-1.22s-4.55.44-6.61,1.21c1.46-2.07,3.9-3.37,6.61-3.37,2.15,0,4.16.8,5.67,2.26.37.34.68.72.96,1.12ZM25,32c0,.55-.45,1-1,1s-1-.45-1-1v-4c0-.55.45-1,1-1s1,.45,1,1v4ZM41,32c0,.55-.45,1-1,1s-1-.45-1-1v-4c0-.55.45-1,1-1s1,.45,1,1v4ZM43.28,29h-.28v-1c0-1.65-1.35-3-3-3s-3,1.35-3,3v1h-10v-1c0-1.65-1.35-3-3-3s-3,1.35-3,3v1h-.28c-1.7,0-3.22-.95-3.98-2.44,2.76-5.65,8.56-9.56,15.26-9.56s12.5,3.91,15.26,9.56c-.76,1.49-2.28,2.44-3.98,2.44Z"/>
  <path d="M20,39h10c.552,0,1-.447,1-1s-.448-1-1-1h-10c-1.654,0-3,1.346-3,3v10c0,1.654,1.346,3,3,3h24c1.654,0,3-1.346,3-3v-10c0-1.654-1.346-3-3-3h-10c-.552,0-1,.447-1,1s.448,1,1,1h10c.551,0,1,.448,1,1v2h-26v-2c0-.552.449-1,1-1ZM25,44v2h-2v-2h2ZM21,44v3c0,.553.448,1,1,1h4c.552,0,1-.447,1-1v-3h18v6c0,.552-.449,1-1,1h-24c-.551,0-1-.448-1-1v-6h2Z"/>
</svg>