<?xml version="1.0" encoding="UTF-8"?>
<svg id="Outline" xmlns="http://www.w3.org/2000/svg" version="1.1" viewBox="0 0 64 64">
  <!-- Generator: Adobe Illustrator 29.5.1, SVG Export Plug-In . SVG Version: 2.1.0 Build 141)  -->
  <path d="M56,33c.55,0,1-.45,1-1v-9c0-1.65-1.35-3-3-3h-1v-3c0-.55-.45-1-1-1h-6c-.55,0-1,.45-1,1v3h-4.28l-1.77-5.32c-.14-.4-.52-.68-.95-.68h-12c-.43,0-.81.28-.95.68l-1.77,5.32h-3.28v-3c0-.55-.45-1-1-1h-1v-3c0-.55-.45-1-1-1h-4c-.55,0-1,.45-1,1v3h-1c-.55,0-1,.45-1,1v3c-1.65,0-3,1.35-3,3v26c0,1.65,1.35,3,3,3h44c1.65,0,3-1.35,3-3v-13c0-.55-.45-1-1-1s-1,.45-1,1v13c0,.55-.45,1-1,1h-8v-20h9v2c0,.55.45,1,1,1ZM14,14h2v2h-2v-2ZM18,50h-8c-.55,0-1-.45-1-1v-19h9v20ZM18,28h-9v-5c0-.55.45-1,1-1h8v6ZM18,20h-6v-2h6v2ZM26.72,16h10.56l1.33,4h-13.22l1.33-4ZM44,24h-18c-.55,0-1,.45-1,1s.45,1,1,1h18v24h-24v-24h2c.55,0,1-.45,1-1s-.45-1-1-1h-2v-2h24v2ZM47,18h4v2h-4v-2ZM46,28v-6h8c.55,0,1,.45,1,1v5h-9Z"/>
  <path d="M32,28c-5.514,0-10,4.486-10,10s4.486,10,10,10,10-4.486,10-10-4.486-10-10-10ZM32,46c-4.411,0-8-3.589-8-8s3.589-8,8-8,8,3.589,8,8-3.589,8-8,8Z"/>
  <path d="M32,32c-3.309,0-6,2.691-6,6s2.691,6,6,6,6-2.691,6-6-2.691-6-6-6ZM32,42c-2.206,0-4-1.794-4-4s1.794-4,4-4,4,1.794,4,4-1.794,4-4,4Z"/>
  <path d="M12,26h3c.552,0,1-.447,1-1s-.448-1-1-1h-3c-.552,0-1,.447-1,1s.448,1,1,1Z"/>
  <path d="M52,24h-3c-.552,0-1,.447-1,1s.448,1,1,1h3c.552,0,1-.447,1-1s-.448-1-1-1Z"/>
</svg>