<?xml version="1.0" encoding="UTF-8"?>
<svg id="Outline" xmlns="http://www.w3.org/2000/svg" version="1.1" viewBox="0 0 64 64">
  <!-- Generator: Adobe Illustrator 29.5.1, SVG Export Plug-In . SVG Version: 2.1.0 Build 141)  -->
  <path d="M55.293,53.466c-1.815,1.816-4.771,1.816-6.586,0-.375-.375-1.039-.375-1.414,0-.879.88-2.049,1.364-3.293,1.364s-2.414-.484-3.293-1.364c-.391-.391-1.023-.391-1.414,0-1.815,1.816-4.771,1.816-6.586,0-.391-.391-1.023-.391-1.414,0-1.815,1.816-4.771,1.816-6.586,0-.391-.391-1.023-.391-1.414,0-.879.88-2.049,1.364-3.293,1.364s-2.414-.484-3.293-1.364c-.375-.375-1.039-.375-1.414,0-1.815,1.816-4.771,1.816-6.586,0-.391-.391-1.023-.391-1.414,0s-.391,1.023,0,1.414c2.372,2.372,6.101,2.577,8.707.614,2.359,1.777,5.641,1.777,8,0,2.359,1.777,5.641,1.777,8,0,2.359,1.777,5.641,1.777,8,0,2.359,1.777,5.641,1.777,8,0,1.18.889,2.59,1.332,4,1.332,1.705,0,3.409-.648,4.707-1.946.391-.391.391-1.023,0-1.414s-1.023-.391-1.414,0Z"/>
  <path d="M56.71,47.463c-.39-.39-1.03-.39-1.42,0-1.25,1.25-3.03,1.62-4.61,1.15l6.23-14.03c.14-.31.11-.67-.07-.95-.19-.29-.5-.46-.84-.46h-3.63l-6.05-5.18,3.51-5.27c.21-.3.23-.7.05-1.02-.17-.33-.51-.53-.88-.53h-16c-.33,0-.65.17-.83.45l-3.71,5.55h-1.46c-.55,0-1,.45-1,1s.45,1,1,1h8c.55,0,1-.45,1-1s-.45-1-1-1h-4.13l2.67-4h13.59l-2.67,4h-5.46c-.55,0-1,.45-1,1s.45,1,1,1h5.63l4.67,4H11.39l1.33-4h10.28c.55,0,1-.45,1-1s-.45-1-1-1h-2v-3c0-.55-.45-1-1-1h-6c-.55,0-1,.45-1,1v3h-1c-.43,0-.81.28-.95.68l-1.77,5.32h-1.28c-.55,0-1,.45-1,1v6c0,.33.17.65.45.83l2.66,1.78,1.25,5.98c-.97-.13-1.91-.55-2.65-1.3-.39-.39-1.03-.39-1.42,0-.39.39-.39,1.03,0,1.42,1.45,1.44,3.4,2.07,5.3,1.91h.04c1.19-.12,2.37-.54,3.37-1.3,2.36,1.78,5.64,1.78,8,0,2.36,1.78,5.64,1.78,8,0,2.36,1.78,5.64,1.78,8,0,2.36,1.78,5.64,1.78,8,0,1.18.89,2.59,1.33,4,1.33,1.7,0,3.41-.65,4.71-1.94.39-.39.39-1.03,0-1.42ZM15,25.173h4v2h-4v-2ZM28,35.173h3v2h-3v-2ZM23,35.173h3v2h-3v-2ZM18,35.173h3v2h-3v-2ZM13,35.173h3v2h-3v-2ZM48.71,47.463c-.38-.37-1.04-.37-1.42,0-.88.88-2.05,1.37-3.29,1.37s-2.41-.49-3.29-1.37c-.39-.39-1.03-.39-1.42,0-1.81,1.82-4.77,1.82-6.58,0-.39-.39-1.03-.39-1.42,0-1.81,1.82-4.77,1.82-6.58,0-.39-.39-1.03-.39-1.42,0-.88.88-2.05,1.37-3.29,1.37s-2.41-.49-3.29-1.37c-.38-.37-1.04-.37-1.42,0-.55.56-1.22.92-1.92,1.14l-1.39-6.64c-.06-.25-.21-.48-.43-.62l-2.55-1.71v-4.46h2v3c0,.55.45,1,1,1h20c.55,0,1-.45,1-1v-3h21.46l-5.54,12.47c-.07-.06-.15-.11-.21-.18Z"/>
  <path d="M48,39.173h2c.552,0,1-.447,1-1s-.448-1-1-1h-2c-.552,0-1,.447-1,1s.448,1,1,1Z"/>
  <path d="M42,39.173h2c.552,0,1-.447,1-1s-.448-1-1-1h-2c-.552,0-1,.447-1,1s.448,1,1,1Z"/>
  <path d="M36,39.173h2c.552,0,1-.447,1-1s-.448-1-1-1h-2c-.552,0-1,.447-1,1s.448,1,1,1Z"/>
  <path d="M11,20.173h15c2.206,0,4-1.794,4-4s-1.794-4-4-4c-.487,0-.966.091-1.414.263-.523-1.077-1.51-1.883-2.687-2.159-.408-1.775-2.001-3.104-3.899-3.104-1.562,0-2.935.921-3.586,2.263-.448-.172-.927-.263-1.414-.263-2.049,0-3.744,1.549-3.974,3.537-1.235.704-2.026,2.02-2.026,3.463,0,2.206,1.794,4,4,4ZM10.351,14.296c.46-.161.732-.642.649-1.123,0-1.103.897-2,2-2,.493,0,.969.189,1.341.534.282.261.69.335,1.047.195.357-.142.603-.476.629-.859.074-1.049.945-1.87,1.982-1.87,1.103,0,2,.897,2,2,0,.553.448,1,1,1,1.038,0,1.909.821,1.982,1.87.027.384.272.718.629.859.358.141.765.065,1.047-.195.372-.345.848-.534,1.341-.534,1.103,0,2,.897,2,2s-.897,2-2,2h-15c-1.103,0-2-.897-2-2,0-.839.543-1.594,1.351-1.877Z"/>
</svg>