<?xml version="1.0" encoding="UTF-8"?>
<svg id="Outline" xmlns="http://www.w3.org/2000/svg" version="1.1" viewBox="0 0 64 64">
  <!-- Generator: Adobe Illustrator 29.5.1, SVG Export Plug-In . SVG Version: 2.1.0 Build 141)  -->
  <path d="M24,50.977h-2c-.553,0-1,.448-1,1s.447,1,1,1h2c.553,0,1-.448,1-1s-.447-1-1-1Z"/>
  <path d="M24,46.977h-2c-.553,0-1,.448-1,1s.447,1,1,1h2c.553,0,1-.448,1-1s-.447-1-1-1Z"/>
  <path d="M24,42.977h-2c-.553,0-1,.448-1,1s.447,1,1,1h2c.553,0,1-.448,1-1s-.447-1-1-1Z"/>
  <path d="M42,50.977h-2c-.553,0-1,.448-1,1s.447,1,1,1h2c.553,0,1-.448,1-1s-.447-1-1-1Z"/>
  <path d="M42,46.977h-2c-.553,0-1,.448-1,1s.447,1,1,1h2c.553,0,1-.448,1-1s-.447-1-1-1Z"/>
  <path d="M42,42.977h-2c-.553,0-1,.448-1,1s.447,1,1,1h2c.553,0,1-.448,1-1s-.447-1-1-1Z"/>
  <path d="M43,27.977c0-.552-.447-1-1-1h-13c-.553,0-1,.448-1,1s.447,1,1,1h12v2h-18v-2h2c.553,0,1-.448,1-1s-.447-1-1-1h-3c-.553,0-1,.448-1,1v4c0,.552.447,1,1,1h20c.553,0,1-.448,1-1v-4Z"/>
  <path d="M43,35.977c0-.552-.447-1-1-1h-20c-.553,0-1,.448-1,1v4c0,.552.447,1,1,1h20c.553,0,1-.448,1-1v-4ZM41,38.977h-18v-2h18v2Z"/>
  <path d="M56,54.977h-3v-14.75c.42.22.78.54,1,.99l.11.21c.17.35.519.55.889.55.737,0,1.218-.796.891-1.45l-.1-.21c-.46-.92-1.23-1.63-2.14-2.01l.07-.11c.51-.76,1.36-1.22,2.28-1.22.55,0,1-.45,1-1s-.45-1-1-1c-1.13,0-2.19.4-3.04,1.11-.16-1.82-.95-3.51-2.25-4.82-.39-.39-1.03-.39-1.42,0-.39.39-.39,1.03,0,1.42.78.77,1.3,1.73,1.55,2.78-.55-.31-1.18-.49-1.84-.49-.55,0-1,.45-1,1s.45,1,1,1c.77,0,1.44.49,1.68,1.21-1.06.35-1.95,1.1-2.47,2.13l-.1.21c-.25.5-.05,1.1.44,1.34.492.241,1.097.06,1.34-.44l.11-.21c.22-.45.58-.77,1-.99v14.75h-4v-23c0-.55-.45-1-1-1s-1,.45-1,1v23h-8v-7c0-2.76-2.24-5-5-5s-5,2.24-5,5v7h-8v-30h26v3c0,.55.45,1,1,1s1-.45,1-1v-3h1c.55,0,1-.45,1-1s-.45-1-1-1H16c-.55,0-1,.45-1,1s.45,1,1,1h1v30h-4v-14.75c.42.22.78.54,1,.99l.11.21c.589,1.125,2.361.261,1.78-.9l-.1-.21c-.52-1.03-1.41-1.78-2.47-2.13.24-.72.91-1.21,1.68-1.21.55,0,1-.45,1-1s-.45-1-1-1c-.66,0-1.29.18-1.84.49.25-1.05.77-2.01,1.55-2.78.39-.39.39-1.03,0-1.42-.39-.39-1.03-.39-1.42,0-1.3,1.31-2.09,3-2.25,4.82-.85-.71-1.91-1.11-3.04-1.11-.55,0-1,.45-1,1s.45,1,1,1c.92,0,1.77.46,2.28,1.22l.07.11c-.91.38-1.68,1.09-2.14,2.01l-.1.21c-.25.5-.05,1.1.44,1.34.49.24,1.096.063,1.34-.44l.11-.21c.22-.45.58-.77,1-.99v14.75h-3c-.55,0-1,.45-1,1s.45,1,1,1h48c.55,0,1-.45,1-1s-.45-1-1-1ZM35,54.977h-6v-7c0-1.65,1.35-3,3-3s3,1.35,3,3v7Z"/>
  <path d="M27.796,15.976l-.68,3.826c-.067.376.087.759.396.984.31.225.722.252,1.059.073l3.429-1.829,3.429,1.829c.722.385,1.598-.257,1.455-1.057l-.68-3.826,2.798-2.696c.276-.266.376-.665.258-1.029-.118-.364-.435-.628-.813-.681l-3.848-.536-1.699-3.495c-.336-.688-1.463-.688-1.799,0l-1.699,3.495-3.848.536c-.379.053-.695.317-.813.681-.118.364-.019.764.258,1.029l2.798,2.696ZM30.205,12.941c.33-.046.616-.253.762-.553l1.033-2.125,1.033,2.125c.146.299.432.507.762.553l2.339.326-1.701,1.639c-.24.231-.35.567-.291.895l.413,2.325-2.084-1.111c-.147-.079-.309-.118-.471-.118s-.323.039-.471.118l-2.084,1.111.413-2.325c.059-.328-.051-.664-.291-.895l-1.701-1.639,2.339-.326Z"/>
  <path d="M43.574,16.702l-.551,3.101c-.067.376.087.759.397.984.31.224.721.253,1.059.073l2.778-1.482,2.779,1.482c.336.179.749.151,1.059-.073.31-.225.464-.607.396-.984l-.551-3.101,2.268-2.185c.276-.266.376-.665.258-1.029-.118-.364-.434-.628-.813-.681l-3.119-.435-1.377-2.832c-.336-.688-1.465-.688-1.799,0l-1.376,2.832-3.119.435c-.38.053-.695.317-.813.681-.118.364-.019.764.258,1.029l2.268,2.185ZM45.785,14.279c.33-.046.616-.253.762-.553l.71-1.461.711,1.462c.146.299.432.507.762.553l1.61.225-1.171,1.128c-.24.231-.35.567-.291.895l.284,1.601-1.435-.765c-.147-.079-.309-.118-.471-.118s-.323.039-.471.118l-1.434.765.284-1.6c.059-.328-.051-.664-.291-.895l-1.171-1.128,1.61-.225Z"/>
  <path d="M12.985,16.702l-.551,3.101c-.067.376.087.759.396.984.309.225.722.252,1.059.073l2.779-1.482,2.778,1.482c.147.079.309.118.47.118.609,0,1.092-.579.985-1.175l-.551-3.101,2.268-2.185c.276-.266.376-.665.258-1.029-.118-.364-.434-.628-.813-.681l-3.119-.435-1.376-2.832c-.167-.344-.517-.563-.899-.563s-.731.218-.899.562l-1.377,2.832-3.119.435c-.38.053-.695.317-.813.681-.118.364-.019.764.258,1.029l2.268,2.185ZM15.196,14.279c.33-.046.616-.253.762-.553l.711-1.462.71,1.461c.146.3.432.507.762.553l1.61.225-1.171,1.128c-.24.231-.35.567-.291.895l.284,1.6-1.434-.765c-.295-.157-.646-.157-.941,0l-1.435.765.284-1.601c.059-.328-.051-.664-.291-.895l-1.171-1.128,1.61-.225Z"/>
</svg>