<?xml version="1.0" encoding="UTF-8"?>
<svg id="Outline" xmlns="http://www.w3.org/2000/svg" version="1.1" viewBox="0 0 64 64">
  <!-- Generator: Adobe Illustrator 29.5.1, SVG Export Plug-In . SVG Version: 2.1.0 Build 141)  -->
  <path d="M44,39.815v-2c0-.553-.447-1-1-1s-1,.447-1,1v6c0,.553.447,1,1,1s1-.447,1-1v-2h2v2c0,.553.447,1,1,1s1-.447,1-1v-6c0-.553-.447-1-1-1s-1,.447-1,1v2h-2Z"/>
  <path d="M37,40.815c0,4.411,3.589,8,8,8s8-3.589,8-8-3.589-8-8-8-8,3.589-8,8ZM51,40.815c0,3.309-2.691,6-6,6s-6-2.691-6-6,2.691-6,6-6,6,2.691,6,6Z"/>
  <path d="M56,30.815c.55,0,1-.45,1-1v-3c0-.39-.23-.75-.59-.91l-11-5c-.07-.03-.15-.04-.23-.05-1.51-3.52-4.89-5.86-8.75-6.02-.26-.35-.54-.69-.85-1.01-1.7-1.7-3.96-2.64-6.37-2.64s-4.66.94-6.36,2.64c-2.71,2.71-3.39,6.82-1.75,10.24l-1.18,1.18c-.39.4-.39,1.03,0,1.42.4.39,1.03.39,1.42-.01l1.7-1.71c.32-.32.38-.82.15-1.21-1.62-2.75-1.18-6.24,1.08-8.49,1.32-1.33,3.07-2.06,4.94-2.06,1.78,0,3.44.66,4.74,1.86-.8.17-1.58.44-2.31.8-1.9-1.06-4.35-.81-5.96.81-1.95,1.95-1.95,5.12,0,7.07.97.97,2.25,1.46,3.53,1.46s2.56-.49,3.54-1.46c1.74-1.75,1.91-4.47.53-6.42.67-.24,1.37-.39,2.08-.45,1.44,2.65,1.04,6.04-1.2,8.28-2.25,2.26-5.75,2.7-8.49,1.08-.39-.23-.89-.17-1.22.15l-4.43,4.43c-.18.19-.29.45-.29.71,0,.27.11.52.29.71l2.12,2.11-1.41,1.42-.72-.71c-.39-.39-1.02-.39-1.41,0l-2.82,2.83c-.39.39-.39,1.03,0,1.42l.71.7-1.42,1.42-2.12-2.13c-.19-.18-.44-.29-.71-.29s-.52.11-.71.29l-.7.71-1.41-1.41,9.09-9.08c.39-.39.39-1.03,0-1.42-.39-.39-1.03-.39-1.42,0l-9.8,9.79c-.18.19-.29.44-.29.71,0,.26.11.52.29.71l2.83,2.83c.19.18.44.29.71.29.29-.01.52-.11.71-.3l.7-.7,2.12,2.12c.2.19.45.29.71.29s.51-.1.71-.29l2.83-2.83c.39-.39.39-1.03,0-1.42l-.71-.7,1.41-1.42.72.71c.39.39,1.02.39,1.41,0l2.83-2.83c.18-.19.29-.45.29-.71,0-.27-.11-.52-.29-.71l-2.12-2.11,3.19-3.2c2.45,1.18,5.26,1.14,7.66.03v23.48c0,.55.45,1,1,1h22c.55,0,1-.45,1-1v-18c0-.55-.45-1-1-1s-1,.45-1,1v17h-20v-23.36l8.87-4.03c.08.46.13.92.13,1.39,0,.06-.01.12-.01.19-1.16.41-1.99,1.51-1.99,2.81,0,1.65,1.35,3,3,3s3-1.35,3-3c0-1.31-.84-2.41-2.01-2.82,0-.06.01-.12.01-.18,0-.5-.04-1-.12-1.5l9.12,4.14v2.36c0,.55.45,1,1,1ZM31.33,22.305c-1.16,1.17-3.07,1.17-4.24,0-1.17-1.17-1.17-3.07,0-4.24,1.17-1.17,3.07-1.17,4.24,0s1.17,3.07,0,4.24ZM37.24,24.245c1.14-2.26,1.27-4.9.38-7.25,2.49.52,4.58,2.17,5.64,4.51l-6.02,2.74ZM46,27.815c0,.55-.45,1-1,1s-1-.45-1-1,.45-1,1-1,1,.45,1,1Z"/>
</svg>