<?xml version="1.0" encoding="UTF-8"?>
<svg id="Outline" xmlns="http://www.w3.org/2000/svg" version="1.1" viewBox="0 0 64 64">
  <!-- Generator: Adobe Illustrator 29.5.1, SVG Export Plug-In . SVG Version: 2.1.0 Build 141)  -->
  <path d="M56,20c.553,0,1-.448,1-1v-5c0-.308-.142-.599-.385-.788-.243-.19-.557-.257-.858-.182l-16.154,4.043c.243-.76.397-1.469.397-2.073,0-4.411-3.589-8-8-8s-8,3.589-8,8c0,.604.154,1.312.397,2.073l-7.304-1.828c-.009-.002-.017-.004-.026-.007l-8.823-2.208c-.301-.073-.615-.008-.858.182-.243.189-.385.48-.385.788v36c0,.459.312.859.758.97l24,6c.08.02.161.03.242.03s.162-.01.242-.03l24-6c.445-.111.758-.511.758-.97v-27c0-.552-.447-1-1-1s-1,.448-1,1v7.465l-2.179,1.453c-.081.054-.175.083-.272.083h-.628c-.187,0-.354-.104-.438-.271l-1.176-2.352c-.425-.849-1.278-1.376-2.228-1.376h-.281c-.835,0-1.609.415-2.072,1.109l-.828,1.242c-.138.205-.409.277-.627.167l-2.156-1.078c-.697-.349-1.531-.349-2.229,0-.595.298-1.038.809-1.249,1.44-.21.631-.162,1.306.136,1.901l1.026,2.053c.325.65.916,1.125,1.624,1.303l2.541.635c.163.041.293.161.347.321l.45,1.35c.059.177.014.37-.119.502l-1.295,1.294c-.471.47-.729,1.096-.729,1.761s.259,1.291.729,1.762l.51.509c.091.091.144.218.144.347v1.892c0,1.374,1.117,2.491,2.49,2.491h2.268c.053,0,.105.008.155.025l2.941.98-18.854,4.714v-2.719c0-.552-.447-1-1-1s-1,.448-1,1v2.719l-22-5.5v-.4l2.235-.447c.785-.157,1.463-.61,1.907-1.277s.603-1.467.445-2.252l-.345-1.726c-.08-.399.088-.803.426-1.028l1.529-1.019c.116-.078.251-.131.39-.154l4.562-.76c.317-.054.643.051.871.279l.858.859c1.169,1.167,3.071,1.169,4.242,0,.187-.186.444-.293.707-.293h.172c.552,0,1,.449,1,1v.559c0,1.293.824,2.437,2.051,2.846l.949.316v2.279c0,.552.447,1,1,1s1-.448,1-1v-19.663c.916-1.215,3.907-5.298,5.669-8.968l16.331-4.087v3.719c0,.552.447,1,1,1ZM48.758,47h-2.268c-.271,0-.49-.22-.49-.491v-1.892c0-.656-.266-1.298-.729-1.762l-.51-.509c-.191-.191-.191-.503,0-.694l1.295-1.294c.672-.671.902-1.648.602-2.549l-.45-1.35c-.271-.812-.928-1.421-1.759-1.628l-2.54-.635c-.14-.035-.256-.129-.32-.257l-1.026-2.053c-.121-.242-.023-.538.219-.658.137-.069.303-.069.439,0l2.156,1.078c1.12.56,2.489.196,3.186-.846l.828-1.242c.091-.137.244-.218.408-.218h.281c.187,0,.354.104.438.271l1.176,2.352c.425.849,1.278,1.376,2.228,1.376h.628c.494,0,.972-.145,1.382-.418l1.069-.713v16.077l-5.454-1.818c-.255-.085-.521-.128-.788-.128ZM32,9c3.309,0,6,2.691,6,6,0,2.545-3.802,8.302-6,11.326-2.198-3.023-6-8.78-6-11.326,0-3.309,2.691-6,6-6ZM15.136,16.817l-1.266,1.69c-.642.857-.742,1.984-.264,2.941.479.958,1.442,1.553,2.513,1.553h2.133c.216,0,.419.084.572.237l.548.548c.246.247.308.623.151.935l-.537,1.075c-.351.701-.392,1.523-.113,2.255.278.732.855,1.319,1.583,1.61l1.775.71c.363.146.57.528.494.911l-.333,1.664c-.044.219-.172.406-.36.525-.19.119-.413.154-.63.101l-1.51-.377c-.646-.162-1.337-.086-1.938.213l-2.462,1.231c-.26.13-.57.11-.812-.05l-1.252-.835c-.838-.557-1.917-.623-2.815-.175l-1.613.807V15.281l6.136,1.536ZM30.684,43.507c-.409-.136-.684-.518-.684-.949v-.559c0-1.654-1.346-3-3-3h-.172c-.801,0-1.555.312-2.121.878-.391.391-1.023.39-1.414,0l-.858-.858c-.684-.685-1.668-.999-2.614-.838l-4.562.76c-.423.071-.817.227-1.171.463l-1.528,1.019c-1.016.677-1.517,1.888-1.277,3.084l.345,1.726c.053.262,0,.528-.148.75s-.374.374-.636.426l-1.843.369v-10.162l2.508-1.254c.259-.129.57-.11.812.05l1.252.835c.838.558,1.918.624,2.815.175l2.462-1.231c.173-.086.37-.109.559-.062l1.509.377c.743.187,1.538.059,2.185-.352.646-.409,1.103-1.073,1.252-1.823l.333-1.664c.266-1.327-.454-2.656-1.712-3.16l-1.776-.71c-.213-.085-.374-.25-.456-.463-.081-.214-.069-.445.033-.65l.537-1.076c.541-1.083.329-2.387-.526-3.242l-.548-.548c-.531-.53-1.236-.822-1.986-.822h-2.133c-.309,0-.586-.171-.724-.447-.139-.276-.109-.601.075-.848l1.77-2.362,8.092,2.025c1.762,3.671,4.753,7.753,5.669,8.968v15.276l-.316-.105Z"/>
  <path d="M36,15c0-2.206-1.794-4-4-4s-4,1.794-4,4,1.794,4,4,4,4-1.794,4-4ZM30,15c0-1.103.897-2,2-2s2,.897,2,2-.897,2-2,2-2-.897-2-2Z"/>
</svg>