<?xml version="1.0" encoding="UTF-8"?>
<svg id="Outline" xmlns="http://www.w3.org/2000/svg" version="1.1" viewBox="0 0 64 64">
  <!-- Generator: Adobe Illustrator 29.5.1, SVG Export Plug-In . SVG Version: 2.1.0 Build 141)  -->
  <path d="M56.71,43.29l-4.58-4.58c-.39-.39-1.03-.39-1.42,0s-.39,1.03,0,1.42l4.29,4.28v9.45l-2.04-1.69c-1.67-1.4-3.8-2.17-5.99-2.17-1.44,0-2.89.34-4.18.99l-2.85,1.42c-2.84,1.42-6.25.87-8.49-1.38l-.64-.64c-.55-.54-1.13-1.02-1.74-1.47l-4.95-8.1,1.82-2.18c.35-.42.29-1.05-.13-1.41-.42-.35-1.05-.3-1.41.13l-1.38,1.66-2.17-3.54c-.18-.29-.49-.48-.84-.48-.38-.01-.66.17-.85.46l-9.89,15.29c-.45.48-.88.99-1.27,1.53l-.81,1.14c-.32.45-.22,1.07.23,1.39.45.33,1.07.22,1.39-.23l.82-1.14c2.43-3.41,6.38-5.44,10.57-5.44,3.47,0,6.74,1.35,9.19,3.81l.64.64c2.86,2.85,7.2,3.55,10.81,1.75l2.84-1.42c2.55-1.28,5.81-.9,8,.93,0,0,3.63,3.018,3.68,3.06.161.133.432.23.641.23.508,0,1-.466,1-1v-12c0-.27-.11-.52-.29-.71ZM20.2,46c-2.26,0-4.44.53-6.43,1.48l6.21-9.6,5.57,9.11c-1.69-.64-3.49-.99-5.35-.99Z"/>
  <path d="M47.883,37.297c.391.391,1.023.391,1.414,0,.391-.391.391-1.023,0-1.414l-4.59-4.59c-.391-.391-1.023-.391-1.414,0l-5.919,5.919-5.6-6.844c-.19-.232-.448-.41-.774-.367-.297,0-.578.132-.769.359l-3.26,3.91c-.354.425-.296,1.055.128,1.409.426.354,1.055.296,1.409-.128l2.484-2.98,8.232,10.062c.198.242.485.367.775.367.829,0,1.298-.993.774-1.633l-2.127-2.6,5.353-5.353,3.883,3.883Z"/>
  <path d="M13,28h24c3.309,0,6-2.691,6-6,0-.694-.124-1.365-.352-2h10.352c2.206,0,4-1.794,4-4s-1.794-4-4-4c-.487,0-.966.091-1.414.263-.522-1.077-1.511-1.883-2.688-2.159-.407-1.775-2.001-3.104-3.898-3.104-1.562,0-2.935.921-3.586,2.263-.448-.172-.927-.263-1.414-.263-2.049,0-3.743,1.549-3.974,3.537-.296.169-.566.375-.806.607-.401-.085-.808-.144-1.22-.144-1.795,0-3.467.8-4.604,2.173-1.212-.302-2.451-.202-3.599.261-.855-1.148-2.099-1.957-3.508-2.271-1.04-1.938-3.06-3.163-5.289-3.163-3.309,0-6,2.691-6,6,0,.115.004.231.012.35-2.373.825-4.012,3.066-4.012,5.65,0,3.309,2.691,6,6,6ZM37.351,14.123c.458-.16.728-.645.649-1.123,0-1.103.897-2,2-2,.493,0,.969.189,1.34.533.283.263.688.34,1.048.196.357-.142.603-.476.629-.859.074-1.049.945-1.87,1.983-1.87,1.103,0,2,.897,2,2,0,.553.447,1,1,1,1.038,0,1.909.821,1.983,1.87.026.384.271.718.629.859.359.144.766.066,1.048-.196.371-.344.847-.533,1.34-.533,1.103,0,2,.897,2,2s-.897,2-2,2h-15c-1.103,0-2-.897-2-2,0-.839.543-1.594,1.351-1.877ZM12.302,18.075c.271-.048.509-.203.661-.432.151-.229.203-.51.142-.777-.069-.303-.104-.595-.104-.866,0-2.206,1.794-4,4-4,1.612,0,3.061.961,3.689,2.449.139.328.442.558.796.603,1.312.165,2.453.963,3.055,2.136.126.246.349.429.615.505.266.075.552.037.789-.104,1.068-.641,2.287-.77,3.479-.313.441.167.946.003,1.2-.398.771-1.213,2.13-1.898,3.505-1.859-.082.317-.129.646-.129.983,0,2.206,1.794,4,4,4h2.441c.361.603.559,1.283.559,2,0,2.206-1.794,4-4,4H13c-2.206,0-4-1.794-4-4,0-1.94,1.389-3.591,3.302-3.925Z"/>
</svg>