<?xml version="1.0" encoding="UTF-8"?>
<svg id="Outline" xmlns="http://www.w3.org/2000/svg" version="1.1" viewBox="0 0 64 64">
  <!-- Generator: Adobe Illustrator 29.5.1, SVG Export Plug-In . SVG Version: 2.1.0 Build 141)  -->
  <path d="M39,24v30c0,1.65-1.35,3-3,3H10c-1.65,0-3-1.35-3-3v-30c0-1.65,1.35-3,3-3h6c.55,0,1,.45,1,1s-.45,1-1,1h-3v3c0,.55-.45,1-1,1s-1-.45-1-1v-3h-1c-.55,0-1,.45-1,1v30c0,.55.45,1,1,1h1v-25c0-.55.45-1,1-1s1,.45,1,1v25h23c.55,0,1-.45,1-1v-30c0-.55-.45-1-1-1h-16c-.55,0-1-.45-1-1s.45-1,1-1h16c1.65,0,3,1.35,3,3Z"/>
  <path d="M35,35c0-5.514-4.486-10-10-10s-10,4.486-10,10,4.486,10,10,10,10-4.486,10-10ZM25,43c-.839,0-1.939-1.468-2.547-3.968.814-.114,1.669-.18,2.547-.18s1.732.067,2.547.181c-.608,2.499-1.708,3.967-2.547,3.967ZM25,36.852c-.996,0-1.962.077-2.885.209-.072-.646-.115-1.331-.115-2.061,0-.785.05-1.519.132-2.207.918.13,1.878.207,2.868.207s1.949-.076,2.868-.207c.082.688.132,1.422.132,2.207,0,.73-.044,1.415-.115,2.062-.924-.132-1.89-.21-2.885-.21ZM17,35c0-1.247.295-2.423.806-3.475.689.35,1.483.646,2.357.877-.103.825-.163,1.691-.163,2.598,0,.855.054,1.673.146,2.455-.892.237-1.701.539-2.398.9-.475-1.022-.747-2.156-.747-3.355ZM25,27c.823,0,1.894,1.415,2.508,3.824-.804.111-1.646.176-2.508.176s-1.706-.065-2.509-.175c.615-2.41,1.686-3.825,2.509-3.825ZM29.837,32.401c.874-.231,1.668-.525,2.358-.875.51,1.052.805,2.228.805,3.474,0,1.198-.272,2.332-.747,3.353-.699-.359-1.509-.66-2.399-.897.092-.782.146-1.601.146-2.456,0-.908-.06-1.774-.163-2.599ZM31.1,29.836c-.48.227-1.025.424-1.622.589-.237-.964-.544-1.836-.917-2.578.976.488,1.84,1.165,2.54,1.99ZM21.44,27.846c-.373.743-.681,1.615-.918,2.579-.598-.166-1.142-.363-1.621-.591.699-.824,1.563-1.501,2.539-1.989ZM18.809,40.059c.491-.241,1.057-.45,1.68-.624.24,1.02.559,1.94.95,2.719-1.018-.509-1.916-1.222-2.63-2.094ZM28.56,42.154c.391-.778.709-1.698.95-2.718.622.174,1.189.382,1.682.622-.715.873-1.613,1.587-2.631,2.096Z"/>
  <path d="M29,48c0-.552-.448-1-1-1h-12c-.552,0-1,.448-1,1s.448,1,1,1h12c.552,0,1-.448,1-1Z"/>
  <path d="M16,51c-.552,0-1,.448-1,1s.448,1,1,1h6c.552,0,1-.448,1-1s-.448-1-1-1h-6Z"/>
  <path d="M56.165,14.014l-5.165-.861v-2.153c0-2.206-1.794-4-4-4s-4,1.794-4,4v2.153l-5.165.861c-.482.08-.835.498-.835.986v3c0,.552.448,1,1,1h5.153l.72,4.321-2.189.73c-.408.136-.684.518-.684.949v3c0,.552.448,1,1,1h10c.552,0,1-.448,1-1v-3c0-.431-.275-.812-.684-.949l-2.189-.73.72-4.321h5.153c.552,0,1-.448,1-1v-3c0-.489-.354-.906-.835-.986ZM55,17h-5c-.489,0-.906.354-.986.835l-1,6c-.081.485.203.958.67,1.113l2.316.772v1.279h-8v-1.279l2.316-.772c.467-.156.751-.628.67-1.113l-1-6c-.08-.482-.498-.835-.986-.835h-5v-1.153l5.165-.861c.482-.08.835-.498.835-.986v-3c0-1.103.897-2,2-2s2,.897,2,2v3c0,.489.354.906.835.986l5.165.861v1.153Z"/>
</svg>