<?xml version="1.0" encoding="UTF-8"?>
<svg id="Outline" xmlns="http://www.w3.org/2000/svg" version="1.1" viewBox="0 0 64 64">
  <!-- Generator: Adobe Illustrator 29.5.1, SVG Export Plug-In . SVG Version: 2.1.0 Build 141)  -->
  <path d="M11,36c0,3.859,3.141,7,7,7h20c3.859,0,7-3.141,7-7s-3.141-7-7-7h-20c-3.859,0-7,3.141-7,7ZM43,36c0,2.757-2.243,5-5,5h-20c-2.757,0-5-2.243-5-5s2.243-5,5-5h20c2.757,0,5,2.243,5,5Z"/>
  <path d="M56,27c.55,0,1-.45,1-1v-3c0-.55-.45-1-1-1h-4c-.55,0-1,.45-1,1v9h-2.76c-1.61-4.09-5.59-7-10.24-7h-12c-.55,0-1,.45-1,1s.45,1,1,1h12c4.96,0,9,4.04,9,9,0,2.4-.94,4.66-2.64,6.36s-3.96,2.64-6.36,2.64h-20c-4.96,0-9-4.04-9-9,0-2.4.94-4.66,2.64-6.36,1.7-1.7,3.96-2.64,6.36-2.64h4c.55,0,1-.45,1-1s-.45-1-1-1h-4c-2.94,0-5.7,1.14-7.78,3.22-2.08,2.08-3.22,4.84-3.22,7.78,0,6.07,4.93,11,11,11h5.1c.26,1.25.99,2.33,1.99,3.05.5,3.93,3.88,6.95,7.91,6.95h16c4.41,0,8-3.59,8-8v-19c0-.55-.45-1-1-1s-1,.45-1,1v19c0,3.31-2.69,6-6,6h-16c-2.62,0-4.87-1.7-5.67-4.07.22.03.44.07.67.07.5,0,.98-.1,1.43-.23.66,1.32,2.03,2.23,3.57,2.23h16c2.21,0,4-1.79,4-4v-25h2v2c0,.55.45,1,1,1ZM28,49c-1.3,0-2.4-.84-2.82-2h5.64c-.42,1.16-1.52,2-2.82,2ZM51,49c0,1.1-.9,2-2,2h-16c-.8,0-1.5-.48-1.81-1.18.85-.72,1.48-1.69,1.71-2.82h5.1c2.94,0,5.7-1.14,7.78-3.22,1.09-1.1,1.92-2.38,2.46-3.78h2.76v9ZM51,38h-2.19c.12-.65.19-1.32.19-2s-.07-1.35-.19-2h2.19v4Z"/>
  <path d="M23,38.992c.255,0,.513-.091.707-.285l4-4c.391-.391.391-1.023,0-1.414s-1.023-.391-1.414,0l-4,4c-.623.623-.162,1.696.707,1.699Z"/>
  <path d="M28.293,38.707c.365.365,1.022.392,1.414,0l4-4c.391-.391.391-1.023,0-1.414s-1.023-.391-1.414,0l-4,4c-.391.391-.391,1.023,0,1.414Z"/>
  <path d="M47,23c1.654,0,3-1.346,3-3s-1.346-3-3-3-3,1.346-3,3,1.346,3,3,3ZM47,19c.552,0,1,.448,1,1s-.448,1-1,1-1-.448-1-1,.448-1,1-1Z"/>
  <path d="M51,17c0,1.654,1.346,3,3,3s3-1.346,3-3-1.346-3-3-3-3,1.346-3,3ZM54,16c.552,0,1,.448,1,1s-.448,1-1,1-1-.448-1-1,.448-1,1-1Z"/>
  <path d="M49,13c1.654,0,3-1.346,3-3s-1.346-3-3-3-3,1.346-3,3,1.346,3,3,3ZM49,9c.552,0,1,.448,1,1s-.448,1-1,1-1-.448-1-1,.448-1,1-1Z"/>
</svg>