<?xml version="1.0" encoding="UTF-8"?>
<svg id="Outline" xmlns="http://www.w3.org/2000/svg" version="1.1" viewBox="0 0 64 64">
  <!-- Generator: Adobe Illustrator 29.5.1, SVG Export Plug-In . SVG Version: 2.1.0 Build 141)  -->
  <path d="M56,34c.55,0,1-.45,1-1v-5c0-1.65-1.35-3-3-3h-5v-3c0-.55-.45-1-1-1h-3.05c-.51-6.7-6.12-12-12.95-12s-12.44,5.3-12.95,12h-3.05c-.55,0-1,.45-1,1v3h-5c-1.65,0-3,1.35-3,3v24c0,1.65,1.35,3,3,3h44c1.65,0,3-1.35,3-3v-15c0-.55-.45-1-1-1s-1,.45-1,1v15c0,.55-.45,1-1,1h-1v-3c0-.55-.45-1-1-1h-1v-18h4v2c0,.55.45,1,1,1ZM47,23v2h-6v-2h6ZM32,11c3.71,0,7,1.85,8.99,4.67-.9-.43-1.92-.67-2.99-.67h-12c-1.07,0-2.09.24-2.99.67,1.99-2.82,5.28-4.67,8.99-4.67ZM17,23h6v2h-6v-2ZM11,50v3h-1c-.55,0-1-.45-1-1v-21h4v18h-1c-.55,0-1,.45-1,1ZM21,53h-8v-2h8v2ZM15,49v-18h4v18h-4ZM35.15,53l-1.28-4.17,1.92-.58,1.46,4.75h-2.1ZM41,50v3h-1.66l-1.93-6.29c-.17-.53-.73-.83-1.25-.67l-3.83,1.17c-.26.08-.47.26-.59.49-.13.24-.15.51-.08.76l1.4,4.54h-10.06v-3c0-.55-.45-1-1-1h-1v-18h22v6h-5c-.55,0-1,.45-1,1v4c0,.55.45,1,1,1h5v6h-1c-.55,0-1,.45-1,1ZM43,39v2h-4v-2h4ZM51,53h-8v-2h8v2ZM45,49v-18h4v18h-4ZM9,29v-1c0-.55.45-1,1-1h17c.55,0,1-.45,1-1s-.45-1-1-1h-2v-3c0-.55-.45-1-1-1h-2.9c.47-2.28,2.49-4,4.9-4h12c2.41,0,4.43,1.72,4.9,4h-2.9c-.55,0-1,.45-1,1v3h-8c-.55,0-1,.45-1,1s.45,1,1,1h23c.55,0,1,.45,1,1v1H9Z"/>
  <path d="M24,41h10c.388,0,.741-.225.906-.576.165-.352.111-.767-.138-1.064l-5-6c-.38-.456-1.156-.456-1.536,0l-5,6c-.249.298-.302.713-.138,1.064.165.351.518.576.906.576ZM29,35.562l2.865,3.438h-5.729l2.865-3.438Z"/>
  <path d="M27,44c-1.654,0-3,1.346-3,3s1.346,3,3,3,3-1.346,3-3-1.346-3-3-3ZM27,48c-.551,0-1-.449-1-1s.449-1,1-1,1,.449,1,1-.449,1-1,1Z"/>
</svg>