<?xml version="1.0" encoding="UTF-8"?>
<svg id="Outline" xmlns="http://www.w3.org/2000/svg" version="1.1" viewBox="0 0 64 64">
  <!-- Generator: Adobe Illustrator 29.5.1, SVG Export Plug-In . SVG Version: 2.1.0 Build 141)  -->
  <path d="M53.457,37.543c-.379-.835-.94-1.554-1.619-2.125.098-.782.162-1.587.162-2.418,0-11.028-8.972-20-20-20s-20,8.972-20,20c0,2.501.481,4.922,1.383,7.224-1.445,1.097-2.383,2.827-2.383,4.776,0,.115.004.232.012.35-2.373.825-4.012,3.067-4.012,5.65,0,3.309,2.691,6,6,6h18c.553,0,1-.448,1-1s-.447-1-1-1H13c-2.206,0-4-1.794-4-4,0-1.94,1.389-3.591,3.302-3.925.271-.047.509-.203.661-.432.151-.229.203-.509.142-.776-.069-.303-.104-.595-.104-.867,0-2.206,1.794-4,4-4,1.612,0,3.061.961,3.689,2.449.139.329.442.559.796.603.072.009.141.027.211.04.087.032.177.046.272.051,1.105.279,2.045,1.018,2.572,2.043.126.247.35.429.615.505.266.078.552.039.789-.104,1.066-.64,2.286-.769,3.479-.313.441.169.946.003,1.2-.398.747-1.175,2.009-1.876,3.376-1.876,1.665,0,3.172,1.066,3.751,2.653.102.277.319.496.597.597,1.587.578,2.652,2.085,2.652,3.75,0,2.206-1.794,4-4,4h-2c-.553,0-1,.448-1,1s.447,1,1,1h2c3.309,0,6-2.691,6-6,0-.695-.136-1.367-.365-2h2.365c.553,0,1-.448,1-1s-.447-1-1-1h-3.559c-.548-.606-1.216-1.109-1.984-1.457-.969-2.137-3.107-3.543-5.457-3.543-1.796,0-3.467.8-4.604,2.172-1.212-.298-2.451-.202-3.6.261-.695-.934-1.654-1.626-2.743-2.027.251-1.674,1.535-3.033,3.249-3.332.271-.047.509-.203.661-.432.151-.229.203-.509.142-.776-.069-.303-.104-.595-.104-.867,0-2.206,1.794-4,4-4,1.612,0,3.061.961,3.689,2.449.139.329.442.559.796.603,1.312.165,2.453.963,3.055,2.134.126.247.35.429.615.505.267.078.552.039.789-.104,1.066-.64,2.285-.768,3.479-.313.442.169.946.003,1.2-.398.747-1.175,2.009-1.876,3.376-1.876,1.665,0,3.172,1.066,3.751,2.653.102.277.319.496.597.597,1.587.578,2.652,2.085,2.652,3.75,0,2.206-1.794,4-4,4h-2c-.553,0-1,.448-1,1s.447,1,1,1h2c3.309,0,6-2.691,6-6,0-2.35-1.406-4.489-3.543-5.457ZM43.396,36.172c-1.211-.299-2.452-.202-3.6.261-.854-1.148-2.098-1.957-3.507-2.27-1.04-1.939-3.06-3.164-5.289-3.164-3.309,0-6,2.691-6,6,0,.115.004.232.012.35-1.699.591-3.009,1.914-3.623,3.563-1.115-1.197-2.689-1.913-4.388-1.913-.64,0-1.256.103-1.835.289-.758-2.007-1.165-4.114-1.165-6.289,0-9.925,8.075-18,18-18s18,8.075,18,18c0,.457-.018.906-.051,1.346-.619-.217-1.273-.346-1.949-.346-1.796,0-3.467.8-4.604,2.172Z"/>
  <path d="M32,11c.553,0,1-.448,1-1v-2c0-.552-.447-1-1-1s-1,.448-1,1v2c0,.552.447,1,1,1Z"/>
  <path d="M22.274,12.134c.2.483.792.754,1.307.541.51-.211.752-.796.541-1.307l-.766-1.848c-.211-.511-.798-.751-1.307-.541-.51.211-.752.796-.541,1.307l.766,1.848Z"/>
  <path d="M15.029,17.443c.363.363,1.025.389,1.414,0,.391-.391.391-1.023,0-1.414l-1.414-1.414c-.391-.391-1.023-.391-1.414,0s-.391,1.023,0,1.414c0,0,1.411,1.411,1.414,1.414Z"/>
  <path d="M8.521,24.357s1.848.765,1.848.765c.508.21,1.097-.034,1.307-.541.211-.51-.031-1.095-.541-1.307l-1.848-.765c-.508-.209-1.096.03-1.307.541-.211.51.031,1.095.541,1.307Z"/>
  <path d="M40.431,12.646c.461.193,1.047.087,1.295-.512l.766-1.848c.211-.51-.031-1.095-.541-1.307-.509-.211-1.095.031-1.307.541l-.766,1.848c-.246.594.092,1.085.553,1.278Z"/>
  <path d="M48.264,17.736c.256,0,.512-.098.707-.293l1.414-1.414c.391-.391.391-1.023,0-1.414s-1.023-.391-1.414,0l-1.414,1.414c-.616.616-.161,1.707.707,1.707Z"/>
  <path d="M53.249,25.199c.128,0,.258-.025.383-.077l1.848-.765c.51-.211.752-.796.541-1.307s-.799-.75-1.307-.541l-1.848.765c-.938.389-.711,1.924.383,1.924Z"/>
</svg>