<?xml version="1.0" encoding="UTF-8"?>
<svg id="Outline" xmlns="http://www.w3.org/2000/svg" version="1.1" viewBox="0 0 64 64">
  <!-- Generator: Adobe Illustrator 29.5.1, SVG Export Plug-In . SVG Version: 2.1.0 Build 141)  -->
  <path d="M56,41.76c.55,0,1-.45,1-1v-1c0-2.3-1.56-4.21-3.68-4.8l-4.79-24.91c-.05-.27-.22-.52-.46-.66-.24-.15-.53-.19-.8-.11l-9.09,2.6c-.26.07-.48.24-.6.47-.13.24-.16.51-.09.77l1.1,3.84c.15.53.7.83,1.23.68l3.85-1.1,3.51,18.22h-24.18c-.55,0-1,.45-1,1s.45,1,1,1h1.45c.98,0,1.87.45,2.44,1.25.57.79.72,1.77.41,2.69l-2.66,7.98c-.39,1.19-1.14,2.21-2.18,2.95-1.02.74-2.23,1.13-3.49,1.13-5.5,0-9.97-4.47-9.97-9.97v-3.03c0-1.65,1.35-3,3-3h7c.55,0,1-.45,1-1s-.45-1-1-1h-2.18l3.51-18.22,3.85,1.1c.52.15,1.08-.15,1.23-.68l1.1-3.84c.07-.26.04-.53-.09-.77-.12-.23-.34-.4-.6-.47l-9.09-2.6c-.28-.08-.56-.04-.8.11-.24.14-.41.39-.46.66l-4.79,24.91c-2.12.59-3.68,2.5-3.68,4.8v3.03c0,6.6,5.37,11.97,11.97,11.97,1.69,0,3.3-.52,4.66-1.51,1.38-.98,2.38-2.35,2.91-3.94l1.64-4.92c2.48-.88,5.16-.88,7.64,0l1.64,4.91c.53,1.6,1.53,2.97,2.9,3.95,1.37.99,2.98,1.51,4.67,1.51,5.79,0,10.74-4.13,11.77-9.82.1-.54-.26-1.07-.8-1.16-.55-.1-1.07.26-1.16.8-.86,4.74-4.99,8.18-9.81,8.18-1.26,0-2.47-.39-3.5-1.13-1.03-.74-1.78-1.76-2.17-2.96l-2.66-7.97c-.31-.92-.16-1.9.41-2.69.57-.8,1.46-1.25,2.44-1.25h12.45c1.65,0,3,1.35,3,3v1c0,.55.45,1,1,1ZM17.23,11.5l7.08,2.03-.55,1.91-3.94-1.12c-.27-.08-.56-.04-.79.11-.24.14-.41.39-.46.66l-3.79,19.67h-2.03l4.48-23.26ZM35.49,36.84c-.95,1.31-1.2,2.95-.69,4.5l.25.75c-2.01-.48-4.09-.48-6.1,0l.25-.76c.51-1.54.26-3.18-.69-4.49-.02-.03-.04-.05-.06-.08h7.1c-.02.03-.04.05-.06.08ZM49.22,34.76l-3.79-19.67c-.05-.27-.22-.52-.46-.66-.24-.15-.53-.19-.79-.11l-3.94,1.12-.55-1.91,7.08-2.03,4.48,23.26h-2.03Z"/>
</svg>