<?xml version="1.0" encoding="UTF-8"?>
<svg id="Outline" xmlns="http://www.w3.org/2000/svg" version="1.1" viewBox="0 0 64 64">
  <!-- Generator: Adobe Illustrator 29.5.1, SVG Export Plug-In . SVG Version: 2.1.0 Build 141)  -->
  <path d="M56.71,40.585c-.39-.39-1.03-.39-1.42,0-.86.87-2.17,1.11-3.3.76,0-.02.01-.03.01-.05v-10h4c.55,0,1-.45,1-1s-.45-1-1-1v-1c0-1.65-1.35-3-3-3s-3,1.35-3,3v1h-2v-1c0-1.65-1.35-3-3-3s-3,1.35-3,3v1h-.84c.23-.48.33-1.02.28-1.56-.08-.8-.47-1.52-1.09-2.02l-6.32-5.19c-.07-.06-.15-.11-.24-.14.13-.34.21-.71.21-1.09,0-1.65-1.35-3-3-3h-10.76l-5.53-5.54c-.39-.39-1.03-.39-1.42,0l-2.83,2.83c-.39.39-.39,1.03,0,1.42l5.3,5.29h-.16c-.23,0-.46.08-.63.23l-6.32,5.18c-.675.553-1.1,1.444-1.1,2.32,0,.47.11.9.3,1.3-.48.08-.85.47-.85.97,0,.55.45,1,1,1h9c.55,0,1-.45,1-1s-.45-1-1-1h-3.27l3.66-3h6.61c.55,0,1-.45,1-1s-.45-1-1-1h-6.97c-.23,0-.46.08-.63.23l-5.23,4.28c-.42.35-1.05.28-1.4-.15-.34-.416-.273-1.059.14-1.4l6.05-4.96h17.08l6.05,4.97c.427.326.484.985.14,1.39-.34.41-.99.48-1.41.15l-5.22-4.28c-.17-.15-.4-.23-.63-.23h-3.97c-.55,0-1,.45-1,1s.45,1,1,1h3.61l3.66,3h-14.27c-.55,0-1,.45-1,1s.45,1,1,1h21v10c0,.02.01.03.01.05-1.13.35-2.44.11-3.3-.76-.38-.37-1.04-.37-1.42,0-1.22,1.23-3.36,1.23-4.58,0-.38-.37-1.04-.37-1.42,0-1.22,1.23-3.36,1.23-4.58,0-.38-.37-1.04-.37-1.42,0-1.22,1.23-3.36,1.23-4.58,0-.38-.37-1.04-.37-1.42,0-1.22,1.23-3.36,1.23-4.58,0-.38-.37-1.04-.37-1.42,0-1.22,1.23-3.36,1.23-4.58,0-.39-.39-1.03-.39-1.42,0-.39.39-.39,1.03,0,1.42.99.99,2.31,1.53,3.71,1.53,1.09,0,2.13-.33,3-.94,1.75,1.23,4.25,1.23,6,0,1.75,1.23,4.25,1.23,6,0,1.75,1.23,4.25,1.23,6,0,1.75,1.23,4.25,1.23,6,0,1.75,1.23,4.25,1.23,6,0,1.75,1.23,4.25,1.23,6,0,.87.61,1.91.94,3,.94,1.4,0,2.72-.54,3.71-1.53.39-.39.39-1.03,0-1.42ZM52,28.295c0-.55.45-1,1-1s1,.45,1,1v1h-2v-1ZM31,20.295h-12.41l-6-6,1.41-1.41,5.12,5.12c.19.18.44.29.71.29h11.17c.55,0,1,.45,1,1s-.45,1-1,1ZM44,28.295c0-.55.45-1,1-1s1,.45,1,1v1h-2v-1ZM50,40.305c-.26,0-.52.1-.71.28-1.22,1.23-3.36,1.23-4.58,0-.19-.18-.45-.28-.71-.28v-1.01h6v1.01ZM50,37.295h-6v-2h6v2ZM50,33.295h-6v-2h6v2Z"/>
  <path d="M55.293,45.588c-1.226,1.225-3.36,1.225-4.586,0-.375-.375-1.039-.375-1.414,0-1.226,1.225-3.36,1.225-4.586,0-.375-.375-1.039-.375-1.414,0-1.226,1.225-3.36,1.225-4.586,0-.375-.375-1.039-.375-1.414,0-1.226,1.225-3.36,1.225-4.586,0-.375-.375-1.039-.375-1.414,0-1.226,1.225-3.36,1.225-4.586,0-.375-.375-1.039-.375-1.414,0-1.226,1.225-3.36,1.225-4.586,0-.375-.375-1.039-.375-1.414,0-1.226,1.225-3.36,1.225-4.586,0-.375-.375-1.039-.375-1.414,0-1.226,1.225-3.36,1.225-4.586,0-.391-.391-1.023-.391-1.414,0s-.391,1.023,0,1.414c.99.99,2.307,1.536,3.707,1.536,1.089,0,2.126-.33,3-.942,1.747,1.225,4.253,1.225,6,0,1.747,1.225,4.253,1.225,6,0,1.747,1.225,4.253,1.225,6,0,1.747,1.225,4.253,1.225,6,0,1.747,1.225,4.253,1.225,6,0,1.747,1.225,4.253,1.225,6,0,.874.612,1.911.942,3,.942,1.4,0,2.717-.546,3.707-1.536.391-.391.391-1.023,0-1.414s-1.023-.391-1.414,0Z"/>
  <path d="M55.293,50.588c-1.226,1.225-3.36,1.225-4.586,0-.375-.375-1.039-.375-1.414,0-1.226,1.225-3.36,1.225-4.586,0-.375-.375-1.039-.375-1.414,0-1.226,1.225-3.36,1.225-4.586,0-.375-.375-1.039-.375-1.414,0-1.226,1.225-3.36,1.225-4.586,0-.375-.375-1.039-.375-1.414,0-1.226,1.225-3.36,1.225-4.586,0-.375-.375-1.039-.375-1.414,0-1.226,1.225-3.36,1.225-4.586,0-.375-.375-1.039-.375-1.414,0-1.226,1.225-3.36,1.225-4.586,0-.375-.375-1.039-.375-1.414,0-1.226,1.225-3.36,1.225-4.586,0-.391-.391-1.023-.391-1.414,0s-.391,1.023,0,1.414c.99.99,2.307,1.536,3.707,1.536,1.089,0,2.126-.33,3-.942,1.747,1.225,4.253,1.225,6,0,1.747,1.225,4.253,1.225,6,0,1.747,1.225,4.253,1.225,6,0,1.747,1.225,4.253,1.225,6,0,1.747,1.225,4.253,1.225,6,0,1.747,1.225,4.253,1.225,6,0,.874.612,1.911.942,3,.942,1.4,0,2.717-.546,3.707-1.536.391-.391.391-1.023,0-1.414s-1.023-.391-1.414,0Z"/>
</svg>