<?xml version="1.0" encoding="UTF-8"?>
<svg id="Outline" xmlns="http://www.w3.org/2000/svg" version="1.1" viewBox="0 0 64 64">
  <!-- Generator: Adobe Illustrator 29.5.1, SVG Export Plug-In . SVG Version: 2.1.0 Build 141)  -->
  <path d="M56,31.001c.55,0,1-.45,1-1v-10c0-.33-.17-.6-.41-.79-.03-.03-.07-.07-.14-.1l-24-12c-.28-.15-.62-.15-.9,0L7.55,19.111c-.07.03-.11.07-.14.1-.24.19-.41.46-.41.79v36c0,.55.45,1,1,1h13c.3,0,.59-.14.78-.37.19-.24.26-.54.2-.84l-1.95-9.11c-.35-1.61-1.24-3.06-2.51-4.08-.53-.43-1.13-.78-1.76-1.05,2.04-1.38,3.8-3.16,5.15-5.23.3-.47.17-1.09-.29-1.39-.47-.3-1.09-.17-1.39.29-1.36,2.09-3.18,3.84-5.31,5.13l.83-14.04c.64.43,1.42.69,2.25.69,1.2,0,2.27-.54,3-1.38.51.59,1.19,1.02,1.96,1.23-.08,1.71-.41,3.39-1.02,5-.19.52.07,1.09.59,1.29.11.04.23.06.35.06.41,0,.79-.25.94-.65.68-1.82,1.05-3.73,1.14-5.68.81-.2,1.51-.65,2.04-1.25.73.84,1.8,1.38,3,1.38s2.27-.54,3-1.38c.73.84,1.8,1.38,3,1.38s2.27-.54,3-1.38c.53.6,1.23,1.04,2.03,1.25.27,5.98,3.31,11.38,8.21,14.69-2.12.89-3.76,2.77-4.27,5.12l-1.95,9.11c-.06.3.01.6.2.84.19.23.48.37.78.37h13c.55,0,1-.45,1-1v-22c0-.55-.45-1-1-1s-1,.45-1,1v21h-2.06l-1.67-28.41c.52.25,1.11.41,1.73.41.73,0,1.41-.21,2-.56v3.56c0,.55.45,1,1,1ZM11.06,55.001h-2.06v-28.56c.59.35,1.27.56,2,.56.62,0,1.2-.15,1.73-.41l-1.67,28.41ZM13,21.981l-.09,1.59c-.25.83-1.01,1.43-1.91,1.43-1.1,0-2-.9-2-2v-2h4v.98ZM16.26,44.161c.92.73,1.56,1.78,1.81,2.94l1.69,7.9h-6.7l.7-11.93c.92.13,1.78.5,2.5,1.09ZM19,23.001c0,1.1-.9,2-2,2s-2-.9-2-2v-2h4v2ZM25,23.001c0,1.1-.9,2-2,2s-2-.9-2-2v-2h4v2ZM31,23.001c0,1.1-.9,2-2,2s-2-.9-2-2v-2h4v2ZM37,23.001c0,1.1-.9,2-2,2s-2-.9-2-2v-2h4v2ZM12.24,19.001l19.76-9.88,19.76,9.88H12.24ZM49,21.001v2c0,1.1-.9,2-2,2s-2-.9-2-2v-2h4ZM39,23.001v-2h4v2c0,1.1-.9,2-2,2s-2-.9-2-2ZM42.03,26.851c.78-.21,1.46-.64,1.97-1.23.73.84,1.8,1.38,3,1.38.83,0,1.61-.26,2.25-.7l.83,14.05c-4.77-2.89-7.77-7.9-8.05-13.5ZM44.24,55.001l1.69-7.9c.46-2.12,2.21-3.72,4.31-4.03l.7,11.93h-6.7ZM53,25.001c-.91,0-1.67-.61-1.91-1.44l-.09-1.58v-.98h4v2c0,1.1-.9,2-2,2Z"/>
</svg>