<svg xmlns="http://www.w3.org/2000/svg" width="100" height="80" viewBox="0 0 100 80">
  <!-- Pin 1 -->
  <path d="M20,10 C12,10 6,16 6,24 C6,35 20,45 20,45 C20,45 34,35 34,24 C34,16 28,10 20,10 Z" fill="#2563eb" opacity="0.35"/>
  <circle cx="20" cy="23" r="5" fill="white" opacity="0.6"/>
  
  <!-- Pin 2 (más grande, central) -->
  <path d="M55,5 C45,5 37,13 37,23 C37,38 55,52 55,52 C55,52 73,38 73,23 C73,13 65,5 55,5 Z" fill="#d97706" opacity="0.45"/>
  <circle cx="55" cy="21" r="6" fill="white" opacity="0.6"/>
  
  <!-- Pin 3 -->
  <path d="M85,18 C79,18 74,23 74,29 C74,38 85,46 85,46 C85,46 96,38 96,29 C96,23 91,18 85,18 Z" fill="#166534" opacity="0.35"/>
  <circle cx="85" cy="28" r="4" fill="white" opacity="0.6"/>
  
  <!-- Línea conectora punteada -->
  <line x1="20" y1="45" x2="55" y2="52" stroke="#2563eb" stroke-width="1" stroke-dasharray="3,3" opacity="0.3"/>
  <line x1="55" y1="52" x2="85" y2="46" stroke="#2563eb" stroke-width="1" stroke-dasharray="3,3" opacity="0.3"/>
</svg>
