<svg xmlns="http://www.w3.org/2000/svg" width="200" height="200" viewBox="0 0 200 200">
  <defs>
    <style>
      .wave { fill: none; stroke: #4A9EBF; stroke-width: 2; stroke-linecap: round; }
    </style>
  </defs>
  <!-- Ondas suaves de agua -->
  <path class="wave" d="M0,30 C20,20 40,40 60,30 S100,20 120,30 S160,40 180,30 L200,35"/>
  <path class="wave" d="M0,70 C25,60 45,80 70,70 S110,60 140,70 S175,80 200,70"/>
  <path class="wave" d="M0,110 C30,100 50,120 80,110 S120,100 150,110 S180,120 200,110"/>
  <path class="wave" d="M0,150 C20,140 45,160 75,150 S115,140 145,150 S180,160 200,150"/>
  <path class="wave" d="M0,190 C25,180 50,200 85,190 S125,180 160,190 S190,200 200,190"/>
</svg>
