<svg xmlns="http://www.w3.org/2000/svg" viewBox="0 0 900.000000 870.000000"  preserveAspectRatio="xMidYMid meet">  <g transform="translate(0.000000,870.000000) scale(0.100000,-0.100000)" stroke="none"> <path d="M5630 8686 c0 -22 19 -30 35 -16 22 18 18 30 -10 30 -15 0 -25 -6 -25 -14z"/> <path d="M5690 8645 c0 -8 7 -15 15 -15 8 0 15 7 15 15 0 8 -7 15 -15 15 -8 0 -15 -7 -15 -15z"/> <path d="M4760 8455 c0 -34 43 -56 65 -34 13 13 13 17 -1 37 -8 12 -26 22 -40 22 -19 0 -24 -5 -24 -25z"/> <path d="M5960 8405 c0 -8 7 -15 15 -15 8 0 15 7 15 15 0 8 -7 15 -15 15 -8 0 -15 -7 -15 -15z"/> <path d="M4710 8353 c-19 -8 -36 -16 -38 -17 -1 -2 -7 -29 -13 -62 -6 -32 -20 -78 -32 -102 -18 -37 -19 -48 -10 -85 10 -34 9 -43 -3 -50 -28 -16 -36 -45 -19 -78 9 -16 15 -47 13 -67 -2 -28 -8 -37 -26 -42 -34 -7 -32 -24 3 -30 42 -7 48 -47 8 -56 -43 -9 -97 -35 -106 -51 -7 -11 -17 -6 -48 22 -21 19 -43 35 -48 35 -5 0 -16 3 -24 6 -30 11 -26 -27 8 -76 32 -46 34 -50 16 -59 -10 -6 -21 -8 -24 -5 -2 3 -15 -9 -27 -26 -15 -21 -29 -30 -43 -28 -19 3 -21 9 -19 44 3 40 -15 74 -39 74 -30 0 -93 -46 -121 -89 -30 -45 -79 -78 -99 -65 -5 3 -9 23 -9 45 0 27 -5 42 -16 46 -24 9 -38 -11 -23 -34 18 -30 5 -50 -38 -55 -66 -8 -94 3 -107 42 -12 39 -42 52 -53 23 -4 -10 -16 -31 -27 -46 l-21 -28 24 -18 c27 -20 14 -37 -19 -26 -11 3 -38 7 -61 7 -33 0 -42 5 -49 24 -5 12 -18 27 -28 33 -18 9 -21 6 -27 -25 -5 -31 -9 -35 -28 -31 -12 3 -30 0 -40 -8 -17 -12 -18 -18 -7 -62 7 -26 13 -63 13 -81 1 -18 8 -36 15 -41 8 -5 12 -17 10 -27 -2 -15 -14 -20 -56 -22 -60 -4 -66 9 -32 66 21 35 19 52 -6 52 -8 0 -17 -13 -20 -30 -8 -36 -19 -39 -28 -7 -10 38 -7 47 20 57 14 6 24 16 21 23 -2 6 -1 21 3 32 4 12 1 29 -8 42 -9 15 -12 33 -7 50 5 20 -4 47 -35 110 -40 80 -69 111 -90 98 -6 -4 -7 -23 -4 -45 5 -28 2 -47 -10 -65 -15 -23 -15 -26 4 -42 23 -20 27 -68 5 -76 -9 -4 -21 5 -32 23 -19 33 -42 45 -56 31 -7 -7 -5 -17 7 -30 13 -14 16 -28 11 -49 -5 -26 -3 -31 24 -40 38 -13 40 -38 6 -46 -30 -8 -45 -1 -45 19 0 8 -14 29 -30 47 -17 18 -30 36 -30 41 0 4 -18 41 -40 81 -33 60 -44 73 -60 69 -30 -8 -24 -36 24 -106 24 -35 47 -73 50 -85 9 -27 -11 -38 -33 -18 -39 36 -72 13 -86 -61 -9 -45 -18 -47 -55 -17 -28 24 -30 28 -15 44 14 15 14 19 1 29 -8 7 -27 16 -43 20 -16 4 -34 19 -41 34 -8 17 -21 27 -35 27 -34 0 -50 15 -42 38 8 27 59 64 77 57 8 -3 20 0 26 8 9 10 6 21 -11 45 -27 38 -35 40 -47 7 -11 -30 -15 -31 -41 -6 -12 11 -19 28 -17 42 2 19 -2 25 -22 27 -13 2 -33 10 -44 18 -22 15 -56 19 -56 6 0 -5 14 -21 30 -37 20 -19 28 -35 25 -47 -7 -19 10 -58 25 -58 5 0 12 9 15 21 5 14 10 18 17 11 7 -7 4 -22 -7 -45 -9 -19 -15 -41 -13 -49 5 -21 -39 -58 -70 -58 -20 0 -38 -11 -61 -37 -18 -20 -43 -42 -54 -48 -12 -6 -23 -19 -25 -30 -2 -11 -9 -25 -17 -30 -7 -6 -16 -26 -20 -45 l-8 -35 -14 33 c-8 20 -20 32 -32 32 -11 0 -25 2 -33 5 -21 8 -39 -9 -42 -40 -2 -16 -13 -35 -25 -43 -22 -15 -28 -46 -11 -57 11 -7 71 22 85 42 7 10 20 12 37 8 34 -9 52 -30 53 -63 0 -14 6 -27 14 -30 10 -3 12 3 9 27 -6 38 7 49 31 27 10 -9 21 -16 26 -16 5 0 16 -6 24 -14 9 -8 28 -18 44 -21 23 -6 27 -4 27 13 0 12 5 24 10 27 17 10 11 25 -10 25 -11 0 -27 12 -36 26 -16 24 -16 26 4 46 l20 21 47 -32 c25 -17 52 -31 58 -31 20 0 87 -60 87 -78 0 -10 -10 -23 -22 -31 -19 -12 -23 -11 -37 8 -13 17 -19 19 -29 9 -26 -26 -7 -66 30 -60 9 2 19 -2 23 -8 11 -18 31 -11 45 15 7 14 22 25 32 25 22 0 24 -25 3 -34 -8 -3 -15 -14 -15 -25 0 -11 -7 -24 -17 -29 -10 -6 -14 -16 -9 -27 5 -13 13 -16 36 -12 34 7 65 -16 56 -42 -36 -110 -44 -126 -64 -126 -28 0 -35 -10 -28 -40 5 -21 12 -25 41 -25 43 0 51 -14 25 -40 -25 -25 -25 -31 -1 -62 11 -14 20 -40 20 -59 0 -19 1 -45 3 -59 4 -36 -33 -40 -56 -5 -12 18 -23 24 -36 20 -13 -4 -43 19 -115 90 -94 91 -97 96 -92 130 7 40 -7 54 -32 31 -24 -22 -27 -21 -39 13 -7 19 -18 31 -34 33 -19 2 -23 10 -26 46 l-3 42 -45 0 c-49 0 -57 15 -24 45 26 23 28 100 3 127 -15 17 -15 19 3 39 18 20 18 21 -1 35 -24 18 -36 18 -61 0 -16 -13 -17 -18 -6 -35 11 -18 10 -21 -7 -21 -11 0 -23 -5 -27 -12 -10 -15 -5 -136 6 -157 5 -9 11 -24 14 -35 5 -13 12 -17 30 -12 19 5 29 0 46 -21 22 -28 21 -42 -2 -125 -11 -36 -13 -38 -55 -38 -31 0 -43 4 -43 14 0 8 5 18 11 21 7 5 5 13 -7 26 -15 17 -19 17 -45 4 -38 -20 -60 -19 -66 4 -3 12 -18 22 -41 26 -32 6 -34 9 -17 15 25 11 84 2 110 -16 25 -18 35 -18 35 1 0 8 -10 20 -22 26 -43 23 -50 55 -15 68 19 8 19 10 6 16 -26 10 -99 -14 -124 -41 -15 -16 -28 -22 -40 -18 -16 6 -16 5 -4 -16 8 -12 19 -31 25 -42 6 -10 20 -25 30 -33 18 -13 18 -16 3 -42 -15 -28 -14 -29 28 -71 46 -47 47 -49 34 -71 -8 -13 -15 -12 -49 3 -22 10 -45 29 -51 42 -6 13 -17 24 -26 24 -17 0 -21 -25 -5 -35 6 -3 10 -15 10 -25 0 -23 -35 -46 -45 -29 -4 6 -18 8 -31 5 -17 -5 -26 -1 -33 13 -6 10 -29 26 -51 35 -22 9 -40 20 -40 24 0 5 -12 14 -26 21 -23 10 -26 10 -20 -5 3 -9 9 -27 12 -40 6 -24 31 -36 69 -31 15 1 21 -5 23 -25 4 -30 11 -32 73 -29 29 2 39 -3 52 -23 16 -24 16 -26 -1 -35 -11 -6 -24 -6 -35 0 -22 13 -22 2 3 -48 22 -45 29 -52 62 -58 20 -4 38 -21 38 -37 0 -5 -12 -8 -28 -8 -15 0 -35 -9 -45 -20 -24 -28 -50 -25 -76 11 -23 31 -24 31 -95 25 -39 -3 -78 -5 -86 -5 -87 2 -93 4 -102 28 -11 30 -4 51 17 51 25 0 16 24 -17 45 -18 11 -47 45 -65 75 -38 64 -49 71 -62 37 -6 -14 -18 -28 -29 -31 -10 -4 -24 -18 -30 -31 -10 -22 -9 -25 8 -25 24 0 26 -5 35 -62 9 -59 -12 -67 -38 -13 -19 41 -66 57 -167 59 -59 1 -65 -1 -65 -19 0 -14 10 -23 32 -30 17 -6 50 -25 72 -43 36 -29 40 -36 30 -53 -7 -15 -7 -24 1 -34 14 -17 139 -30 153 -16 15 15 37 14 37 -3 0 -23 29 -27 90 -14 52 10 63 10 99 -7 23 -10 46 -24 53 -32 6 -8 31 -23 55 -34 31 -14 43 -25 41 -37 -1 -10 7 -31 20 -49 26 -37 28 -56 7 -73 -13 -10 -19 -10 -33 4 -22 19 -30 20 -65 4 -15 -8 -29 -24 -32 -39 -6 -28 -58 -64 -76 -53 -8 5 -6 10 5 16 18 10 22 63 6 73 -5 3 -10 12 -10 20 0 10 10 12 40 8 31 -4 40 -2 40 9 0 22 -65 48 -121 48 l-51 0 6 -47 c4 -27 10 -78 14 -115 l7 -66 -35 -6 c-54 -9 -58 -8 -92 24 -17 17 -36 29 -42 27 -15 -5 -19 -27 -4 -27 14 0 68 -79 68 -99 0 -14 -17 -14 -26 1 -5 7 -11 5 -21 -8 -13 -18 -15 -18 -27 -1 -16 21 -32 22 -40 1 -13 -33 -6 -44 24 -44 31 0 39 -17 18 -38 -27 -27 -44 -13 -57 48 -12 54 -12 63 3 79 22 24 20 35 -9 67 -21 22 -27 25 -40 14 -13 -10 -15 -9 -15 9 0 12 -7 24 -15 27 -10 4 -15 20 -15 44 0 43 -19 67 -38 48 -7 -7 -12 -19 -12 -27 0 -8 -7 -23 -16 -32 -13 -14 -21 -16 -35 -8 -12 6 -26 6 -36 1 -10 -5 -37 -12 -59 -16 -32 -4 -43 -2 -48 9 -3 9 -18 15 -35 15 -16 0 -33 5 -36 10 -10 17 -25 11 -25 -10 0 -21 27 -40 60 -40 11 0 31 -11 44 -25 18 -19 33 -25 65 -25 42 0 58 -21 26 -34 -9 -3 -25 -21 -36 -40 -26 -44 -39 -49 -90 -31 -56 20 -68 19 -80 -8 -8 -19 -6 -30 10 -58 48 -79 48 -76 15 -137 -19 -37 -47 -69 -77 -92 -29 -22 -42 -36 -33 -38 8 -2 23 1 33 6 11 5 37 5 68 -2 41 -9 51 -15 53 -35 5 -31 -12 -48 -32 -32 -19 16 -36 6 -36 -20 0 -30 40 -40 69 -18 28 22 43 23 96 5 61 -21 85 -79 40 -96 -23 -9 -25 -14 -20 -43 6 -30 3 -36 -32 -60 -21 -14 -47 -25 -58 -24 -15 2 -19 -3 -18 -21 4 -30 -75 -229 -93 -236 -8 -3 -31 1 -52 8 -20 8 -55 17 -77 20 -22 3 -49 7 -60 8 -31 5 -33 -41 -3 -67 13 -11 32 -32 41 -47 13 -22 27 -28 71 -33 34 -5 68 -3 88 4 28 10 35 9 46 -6 10 -15 16 -15 32 -5 11 6 22 12 24 12 3 0 19 -30 37 -66 18 -36 43 -74 57 -85 29 -23 80 -25 88 -4 12 30 34 16 34 -20 0 -30 -4 -35 -22 -35 -24 -1 -58 -21 -58 -35 0 -4 8 -14 18 -21 16 -11 15 -13 -11 -23 -16 -6 -35 -11 -43 -11 -8 0 -23 -5 -34 -12 -30 -19 -87 7 -141 64 -39 42 -50 48 -85 48 -53 0 -65 -13 -52 -54 14 -41 46 -75 86 -93 18 -7 36 -21 39 -31 16 -42 46 -72 68 -66 16 4 28 -2 43 -20 25 -33 53 -35 49 -3 -3 33 34 29 51 -5 11 -23 17 -26 46 -21 28 4 37 1 48 -16 7 -11 18 -21 25 -21 6 0 20 -12 30 -26 17 -23 22 -25 41 -15 15 8 22 21 22 41 0 26 4 30 27 30 16 0 52 -16 81 -37 42 -29 55 -34 62 -23 5 8 2 26 -7 44 -14 27 -14 31 1 41 40 30 0 48 -42 19 -20 -14 -24 -14 -48 5 -30 24 -66 15 -74 -18 -6 -27 -23 -32 -28 -9 -3 16 31 74 53 90 6 4 20 8 31 8 12 0 27 7 34 15 7 8 27 15 45 15 31 0 65 25 65 47 0 6 -9 22 -20 36 l-21 26 26 7 c31 8 146 -21 190 -48 17 -10 42 -18 56 -18 38 0 109 -38 109 -58 0 -14 -15 -20 -67 -31 -111 -22 -147 -30 -173 -36 -20 -5 -32 0 -52 20 -26 26 -27 26 -38 6 -7 -15 -8 -27 -1 -40 8 -15 6 -25 -11 -46 -26 -33 -14 -45 48 -45 36 0 44 4 65 35 27 39 44 44 59 16 27 -52 0 -130 -36 -100 -9 7 -38 14 -64 16 -48 3 -49 2 -84 -46 -20 -27 -36 -58 -36 -70 0 -12 -6 -21 -15 -21 -9 0 -15 9 -15 24 0 30 -15 42 -67 51 -33 5 -43 3 -51 -11 -7 -13 -17 -15 -47 -10 -28 6 -35 10 -26 19 16 16 14 37 -4 37 -8 0 -19 9 -25 20 -16 30 -46 24 -76 -15 -14 -19 -32 -35 -39 -35 -7 0 -18 -6 -24 -13 -14 -17 5 -44 34 -49 11 -2 29 -20 40 -43 30 -59 98 -125 129 -125 14 0 26 5 26 10 0 6 -10 10 -22 10 -16 0 -28 11 -41 36 -18 37 -16 54 9 54 8 0 36 22 63 49 27 27 52 47 55 44 3 -4 6 -20 6 -37 0 -39 10 -55 35 -57 38 -4 55 1 55 16 0 20 20 18 47 -4 29 -24 29 -37 2 -44 -16 -4 -20 -11 -16 -26 8 -32 -19 -59 -61 -63 -42 -3 -50 -21 -11 -26 17 -2 31 -12 38 -28 10 -22 9 -26 -8 -31 -11 -3 -22 -16 -25 -29 -6 -22 -9 -23 -29 -13 -12 7 -29 19 -39 29 -22 23 -123 23 -123 0 0 -11 12 -15 48 -15 35 0 52 -5 62 -18 12 -16 63 -37 92 -37 6 0 22 18 34 40 17 31 29 40 48 40 44 0 57 -15 30 -34 -24 -17 -24 -17 -5 -31 11 -8 30 -15 41 -15 34 0 83 20 89 36 3 8 17 14 31 14 14 0 25 5 25 10 0 6 7 10 15 10 28 0 14 -30 -22 -49 -24 -12 -31 -45 -13 -56 16 -10 12 -32 -7 -39 -9 -4 -25 2 -38 14 -22 21 -79 27 -90 10 -3 -5 3 -15 15 -22 23 -15 26 -50 6 -67 -8 -7 -18 -25 -21 -41 -3 -15 -15 -36 -27 -46 -11 -11 -24 -29 -29 -41 -9 -25 -24 -28 -65 -13 l-28 11 52 45 c56 49 63 64 32 64 -28 0 -80 -28 -80 -43 0 -15 -55 -47 -81 -47 -17 0 -59 -51 -59 -72 0 -16 22 -7 45 18 l25 27 9 -24 c5 -15 5 -29 -2 -37 -7 -9 -7 -16 1 -24 14 -14 32 -1 32 24 0 17 2 18 16 8 22 -19 14 -64 -13 -68 -12 -2 -27 -10 -34 -18 -18 -22 -2 -43 45 -59 36 -13 40 -12 62 10 13 13 24 32 24 41 0 14 3 14 15 4 9 -7 17 -11 19 -9 3 5 37 71 57 113 16 33 75 76 105 76 12 0 34 12 49 26 22 20 34 24 54 19 14 -4 43 -8 64 -8 34 -1 49 -11 28 -19 -9 -3 -14 -57 -12 -120 1 -25 5 -28 34 -28 22 0 43 -9 65 -29 21 -20 45 -31 69 -33 38 -3 38 -3 38 -48 0 -41 -2 -45 -27 -48 -39 -5 -50 -23 -40 -68 9 -45 36 -57 58 -25 9 12 21 21 28 21 25 0 26 -30 3 -51 -12 -11 -32 -30 -45 -42 l-23 -22 -28 33 c-32 37 -77 46 -66 12 3 -11 2 -20 -4 -20 -5 0 -22 -5 -37 -10 -25 -10 -26 -12 -10 -29 21 -24 11 -32 -33 -26 -20 3 -43 1 -51 -5 -13 -9 -11 -13 10 -30 21 -17 23 -21 10 -30 -22 -14 -91 -1 -117 22 -19 18 -26 19 -57 8 -51 -16 -95 -63 -89 -93 4 -17 -2 -30 -21 -45 -26 -20 -34 -46 -17 -56 4 -3 19 6 31 19 13 14 35 25 49 25 19 0 31 9 44 31 18 33 40 34 46 3 1 -10 10 -27 18 -36 21 -24 8 -72 -28 -102 -50 -43 -83 -86 -72 -97 6 -6 14 -4 23 6 12 14 15 14 30 0 15 -14 18 -14 30 0 8 10 30 15 61 15 47 0 49 2 69 40 11 21 29 44 40 50 11 6 20 20 20 31 0 11 5 17 10 14 6 -4 8 -10 5 -15 -3 -5 3 -15 15 -22 11 -7 20 -17 20 -21 0 -14 -43 -46 -62 -47 -21 0 -28 -20 -16 -42 12 -25 49 -23 55 2 4 14 11 19 22 15 19 -6 48 22 70 66 10 21 10 30 0 46 -20 33 -5 53 41 53 32 0 40 -4 40 -18 0 -21 29 -52 48 -52 7 0 12 11 12 24 0 15 10 30 28 41 15 10 31 24 35 32 9 14 53 18 61 5 2 -4 -11 -21 -31 -37 -19 -17 -55 -50 -80 -74 -25 -24 -61 -49 -79 -57 -40 -17 -41 -22 -14 -57 26 -33 25 -37 -5 -37 -18 0 -28 7 -35 25 -5 14 -16 25 -25 25 -14 0 -54 -54 -68 -92 -8 -22 -50 -24 -67 -3 -18 22 -40 18 -67 -11 -28 -30 -50 -21 -55 24 -3 31 -35 42 -45 17 -3 -10 2 -30 11 -47 21 -35 16 -55 -16 -60 -19 -2 -23 -10 -26 -46 -2 -24 2 -50 9 -58 14 -17 90 -19 106 -3 6 6 19 9 29 7 14 -3 6 -10 -28 -28 -51 -25 -63 -50 -25 -50 29 0 40 -9 54 -42 7 -16 19 -28 27 -28 7 0 30 -7 50 -15 32 -14 35 -17 24 -35 -10 -16 -10 -22 4 -32 9 -7 18 -22 20 -33 4 -27 62 -33 89 -9 21 19 25 44 8 44 -6 0 -9 14 -7 32 3 30 8 34 48 46 25 7 67 20 93 29 35 11 51 13 59 5 8 -8 7 -13 -5 -18 -9 -3 -17 -13 -17 -21 0 -11 7 -13 28 -8 20 4 36 0 54 -15 15 -11 33 -18 41 -14 8 3 17 -2 21 -11 6 -17 -45 -55 -75 -55 -19 0 -49 -31 -49 -49 0 -10 12 -12 48 -6 26 4 49 10 52 15 3 4 15 10 28 14 12 4 32 26 43 48 l20 40 52 -7 c29 -4 53 -9 55 -10 7 -6 -23 -45 -35 -45 -14 0 -43 -28 -43 -42 0 -6 13 -8 34 -4 20 4 37 2 41 -4 10 -16 36 -12 50 7 9 13 29 18 71 18 33 1 67 5 76 9 12 6 17 2 20 -16 4 -32 46 -37 67 -9 16 21 16 21 33 -9 16 -29 16 -30 -3 -40 -34 -19 -23 -36 21 -32 31 3 40 8 40 23 0 23 15 25 24 4 8 -21 -3 -44 -26 -56 -11 -6 -26 -26 -34 -44 -7 -18 -29 -43 -49 -55 -19 -12 -35 -27 -35 -35 0 -19 -29 -39 -58 -40 -21 0 -28 -6 -30 -25 -2 -14 -10 -29 -18 -33 -19 -11 -18 -31 4 -50 24 -22 51 -22 59 1 14 40 78 123 100 128 32 8 43 -4 19 -21 -28 -21 -14 -60 25 -74 47 -16 106 -14 113 4 5 14 11 13 45 -5 47 -24 71 -26 71 -5 0 8 16 27 36 42 19 15 49 40 67 56 26 23 32 25 39 12 5 -8 15 -15 22 -15 15 0 48 33 45 46 -6 33 5 55 36 74 47 29 117 21 142 -16 19 -29 10 -43 -17 -26 -37 23 -57 15 -67 -26 -7 -31 -13 -38 -37 -40 -18 -2 -33 -13 -44 -32 -9 -16 -27 -34 -40 -39 -20 -10 -24 -7 -33 16 l-10 28 -37 -45 c-31 -37 -37 -52 -37 -91 -1 -32 -7 -55 -19 -68 -10 -11 -19 -35 -19 -53 -1 -18 -8 -39 -14 -46 -7 -7 -13 -28 -13 -47 0 -20 -6 -35 -15 -39 -25 -9 -17 -30 25 -59 42 -30 51 -53 24 -64 -11 -4 -22 1 -30 13 -22 32 -34 44 -44 44 -15 0 -12 -36 4 -49 11 -10 13 -28 9 -81 -4 -48 -2 -74 7 -84 16 -21 76 -31 104 -18 17 8 28 6 45 -7 27 -20 25 -30 -20 -127 -17 -35 -30 -82 -32 -110 -2 -27 -7 -55 -11 -63 -5 -7 -4 -17 3 -24 7 -7 12 -6 17 6 9 25 27 20 46 -13 15 -26 23 -30 58 -30 35 0 43 4 60 33 11 17 20 42 20 54 0 13 11 30 25 39 14 9 25 22 25 29 0 7 7 18 16 26 12 10 14 23 9 61 -6 45 -5 48 19 57 22 9 25 17 28 67 2 32 8 59 14 61 7 2 24 -7 39 -22 16 -14 35 -25 43 -25 11 0 13 -9 8 -43 -5 -30 -2 -52 10 -76 20 -41 6 -65 -24 -38 -24 22 -32 13 -32 -32 0 -49 12 -65 44 -59 35 7 50 -14 43 -59 -4 -20 -2 -42 4 -49 7 -9 7 -19 -1 -33 -6 -11 -8 -31 -4 -45 9 -37 -15 -44 -41 -12 -20 25 -28 28 -71 24 -43 -3 -51 0 -74 26 -24 26 -29 27 -50 16 l-23 -12 38 -33 c44 -36 36 -51 -21 -41 -42 8 -60 0 -43 -20 15 -19 100 -18 125 1 25 19 55 19 80 0 10 -8 33 -15 49 -15 18 0 38 -8 48 -20 9 -11 23 -20 31 -20 21 0 37 25 29 46 -6 17 -5 17 11 5 25 -21 41 1 41 57 l0 47 58 3 c74 4 73 26 -1 30 -41 2 -58 9 -87 34 -38 34 -44 52 -20 62 26 10 16 43 -22 73 -35 28 -36 31 -25 63 7 18 12 48 12 67 0 30 3 34 23 31 23 -3 25 -16 12 -74 l-7 -31 84 -9 c76 -8 83 -11 86 -32 2 -13 -3 -31 -11 -40 -8 -9 -17 -25 -20 -34 -4 -12 -17 -18 -40 -18 -43 0 -51 -9 -30 -32 20 -23 27 -23 61 1 20 14 39 17 74 14 43 -5 50 -9 70 -44 20 -37 37 -47 51 -33 3 4 28 7 54 9 26 1 58 5 71 10 19 6 22 4 22 -19 0 -14 -4 -26 -10 -26 -5 0 -10 -7 -10 -15 0 -19 20 -19 47 0 18 12 27 13 48 3 20 -9 33 -9 59 0 18 7 69 12 113 12 68 0 83 -3 99 -21 15 -16 25 -19 54 -14 19 4 43 13 52 22 15 13 19 13 45 -6 41 -31 132 -20 178 21 25 21 43 28 74 28 35 0 43 4 56 30 14 27 20 30 63 30 57 0 91 -16 112 -53 13 -24 13 -29 0 -37 -20 -13 -64 -12 -77 1 -17 17 -36 0 -30 -27 2 -14 -2 -25 -11 -29 -30 -11 8 -35 57 -35 25 0 56 -3 69 -6 30 -8 39 -47 17 -80 -20 -32 -13 -58 14 -49 14 4 23 0 30 -14 9 -16 6 -21 -21 -30 l-32 -11 29 -30 c16 -16 38 -33 49 -36 11 -4 32 -15 46 -25 17 -12 39 -18 70 -16 l45 2 -4 45 c-4 54 -13 67 -54 75 -44 10 -67 33 -67 67 0 23 4 28 25 28 30 0 31 4 5 40 -11 16 -17 35 -14 44 4 12 -11 34 -51 72 -53 52 -56 57 -41 73 20 22 11 51 -14 51 -11 0 -22 10 -25 23 -4 12 -16 29 -28 38 l-20 16 21 19 c12 10 22 23 22 28 0 5 9 20 20 32 l21 21 -26 31 c-14 16 -25 39 -25 51 0 31 -43 28 -65 -5 -35 -53 -27 -135 10 -104 11 9 19 10 27 2 7 -7 0 -21 -26 -48 -20 -20 -36 -40 -36 -44 0 -15 -42 -50 -60 -50 -30 0 -25 36 10 67 32 28 39 53 15 53 -8 0 -15 -6 -15 -13 0 -8 -11 -19 -25 -25 -34 -16 -35 -15 -35 8 0 11 -7 20 -15 20 -18 0 -18 -2 -3 -34 9 -21 8 -29 -6 -45 -9 -10 -27 -21 -39 -24 -12 -2 -30 -8 -39 -12 -13 -5 -17 0 -20 27 -4 42 -23 34 -23 -11 0 -26 -5 -36 -23 -42 -26 -10 -28 -24 -4 -38 16 -10 16 -10 -1 -11 -21 0 -38 39 -41 94 -2 32 -7 40 -32 51 -49 20 -57 38 -34 68 18 22 24 24 49 16 31 -11 61 -2 99 29 20 16 22 20 9 31 -13 10 -13 15 0 41 8 16 19 32 24 36 6 3 9 35 7 71 -2 49 1 67 12 73 51 29 55 36 37 63 -9 15 -17 39 -17 55 0 15 -6 34 -12 40 -10 10 -10 17 0 32 6 11 12 29 12 40 0 12 15 41 33 65 32 45 64 62 92 51 24 -9 17 -26 -11 -26 -33 0 -30 -33 4 -38 12 -2 22 -8 22 -13 0 -5 -6 -9 -12 -8 -38 5 -44 -5 -57 -106 -7 -53 -5 -66 15 -107 l24 -48 -27 -6 c-37 -9 -53 -22 -53 -45 0 -27 16 -32 50 -14 30 15 30 15 50 -17 11 -18 20 -43 20 -55 0 -16 6 -23 19 -23 24 0 37 35 23 64 -46 97 -52 125 -45 193 8 63 10 68 33 68 18 0 26 -7 30 -25 4 -19 13 -26 37 -28 18 -2 40 1 50 7 12 6 25 6 35 0 21 -11 68 25 68 52 0 20 20 30 48 22 34 -9 35 8 7 142 -4 17 -14 44 -23 62 -19 39 -11 51 23 33 30 -16 39 -9 31 25 -5 18 -13 25 -31 25 -30 0 -33 22 -10 67 16 32 47 52 53 34 5 -14 32 -14 32 -1 0 6 -7 10 -15 10 -22 0 -18 18 5 25 40 13 19 60 -29 67 -26 3 -42 28 -19 28 8 0 25 11 37 24 l23 24 -24 4 c-22 3 -23 7 -20 68 2 71 0 77 -40 102 -23 15 -26 23 -23 60 1 24 3 45 4 47 0 3 10 -5 21 -17 12 -12 25 -22 30 -22 19 0 80 -63 80 -82 0 -30 19 -58 40 -58 11 0 28 -15 41 -37 13 -21 43 -64 67 -96 40 -53 44 -62 38 -98 -7 -43 11 -62 38 -40 11 9 16 6 24 -18 6 -16 20 -34 31 -41 23 -12 27 -40 9 -58 -15 -15 2 -35 42 -52 44 -18 40 -31 -10 -43 -20 -5 -28 -1 -35 16 -13 29 -30 24 -30 -10 0 -25 3 -28 28 -25 26 3 28 1 26 -35 -1 -21 1 -48 5 -61 5 -15 2 -31 -9 -48 -20 -32 -12 -44 30 -44 29 0 34 -4 37 -27 2 -22 8 -28 28 -28 20 0 25 5 25 25 0 18 -7 26 -25 30 -18 4 -26 14 -28 32 -3 23 1 27 25 30 26 3 28 6 29 48 2 161 7 209 20 214 21 8 17 34 -7 47 -28 15 -37 3 -41 -55 -2 -28 -8 -51 -15 -54 -8 -2 -13 5 -13 15 0 11 -5 24 -11 30 -8 8 -5 28 11 75 26 72 33 79 75 71 57 -9 59 -11 40 -33 -14 -16 -16 -23 -7 -32 7 -7 12 -23 12 -36 0 -15 7 -26 18 -29 11 -2 22 -20 29 -44 10 -40 10 -40 -13 -35 -20 5 -24 3 -24 -15 0 -16 4 -19 18 -14 9 4 34 11 54 15 21 4 44 13 53 20 22 18 18 49 -7 59 -22 8 -21 9 10 15 36 9 41 21 13 36 -30 16 -49 12 -56 -11 -9 -28 -49 -22 -53 8 -3 17 3 24 22 29 23 5 26 11 26 50 0 47 -23 63 -35 24 -8 -24 -25 -17 -25 11 0 32 30 69 56 69 12 0 26 5 29 10 3 6 15 10 26 10 16 0 18 -5 13 -24 -8 -34 7 -57 18 -27 11 30 32 22 38 -15 8 -45 36 -38 32 8 -3 29 1 37 17 43 11 3 28 2 39 -4 10 -5 27 -9 37 -8 15 2 21 -5 23 -25 2 -17 9 -28 18 -28 12 0 14 10 12 43 l-3 42 -50 0 c-56 0 -65 7 -65 52 0 39 15 51 30 23 6 -11 15 -18 21 -15 27 17 -13 125 -47 125 -15 0 -53 37 -54 53 0 11 28 8 49 -5 16 -10 26 -8 54 7 39 20 67 15 67 -13 0 -28 18 -39 80 -47 30 -5 64 -9 75 -11 11 -1 41 -6 68 -10 l47 -7 0 -39 c0 -31 -4 -41 -20 -45 -26 -7 -25 -9 10 -44 16 -17 35 -49 41 -72 6 -23 18 -50 26 -59 15 -17 17 -17 38 5 13 12 34 30 49 40 32 22 33 33 3 41 -20 5 -23 11 -22 48 1 24 3 49 3 56 4 25 23 11 41 -31 13 -29 29 -47 52 -59 57 -27 138 -50 154 -44 23 8 18 44 -7 57 -61 31 -106 97 -78 114 6 3 10 12 10 20 0 18 -123 57 -155 49 -17 -4 -25 -1 -29 14 -8 24 -42 34 -85 26 -34 -7 -101 16 -133 45 -17 17 -19 27 -13 69 8 58 22 66 81 46 55 -19 61 -18 67 16 7 31 -22 108 -48 130 -8 7 -15 27 -15 44 -1 17 -7 42 -15 56 -24 42 -14 109 10 70 9 -15 35 -12 35 4 0 16 34 31 50 21 5 -3 10 -19 10 -36 0 -19 5 -29 15 -29 8 0 15 6 15 13 0 6 4 18 9 25 11 19 67 -9 76 -38 11 -34 48 -52 81 -40 25 10 31 8 56 -19 16 -17 38 -31 49 -31 11 0 22 -7 25 -15 7 -17 34 -21 34 -4 0 6 -4 18 -9 28 -6 11 -6 33 1 59 8 32 7 46 -2 57 -10 12 -9 16 6 21 49 15 64 25 64 42 0 32 -185 112 -261 112 -29 0 -69 39 -69 69 0 9 -7 24 -15 34 -17 23 -9 47 15 47 9 0 36 -14 59 -31 39 -28 44 -29 60 -15 23 21 57 20 65 -1 5 -12 9 -14 18 -5 9 9 8 15 -5 24 -11 9 -15 21 -11 36 8 29 35 24 129 -22 57 -28 64 -34 51 -45 -9 -8 -25 -11 -36 -8 -32 8 -32 -8 1 -32 34 -25 59 -22 59 9 0 29 41 26 75 -6 32 -29 70 -27 80 6 8 25 17 25 39 1 17 -18 16 -19 -13 -26 -36 -8 -38 -15 -13 -44 16 -20 25 -22 111 -19 64 2 96 7 99 16 2 8 -7 12 -26 12 -27 0 -122 35 -122 45 0 2 5 15 11 29 10 21 14 23 30 13 28 -17 43 2 29 37 -10 26 -12 27 -33 14 -37 -25 -93 -31 -126 -13 -17 8 -40 15 -52 15 -24 0 -99 47 -99 62 0 4 10 12 23 17 52 20 60 63 13 75 -38 9 -110 61 -126 90 -15 29 -4 51 11 23 6 -11 22 -17 44 -17 30 0 36 5 55 45 21 44 21 75 0 75 -16 0 -12 18 10 40 29 29 65 25 90 -10 19 -27 23 -29 43 -16 13 8 30 11 42 7 19 -8 19 -8 0 -19 -15 -8 -17 -14 -9 -22 9 -9 17 -4 33 19 14 19 31 31 45 31 12 0 33 11 46 26 21 21 22 27 10 34 -22 14 -28 12 -40 -10 -13 -24 -65 -28 -74 -5 -4 10 -14 13 -35 9 -26 -5 -32 -2 -42 20 -14 29 -54 45 -72 27 -6 -6 -21 -11 -34 -11 -19 0 -23 5 -23 30 0 20 -5 30 -15 30 -8 0 -15 5 -15 10 0 6 -11 15 -25 20 -25 9 -36 50 -14 50 11 0 69 -60 69 -72 0 -5 7 -8 15 -8 9 0 18 12 22 30 3 17 9 30 14 30 17 0 39 -33 39 -60 0 -36 30 -56 59 -40 33 17 96 12 116 -10 10 -12 31 -20 48 -20 17 0 38 -7 48 -16 16 -15 19 -14 41 11 52 61 64 67 75 39 4 -10 -4 -24 -21 -39 -28 -24 -28 -45 0 -45 8 0 17 7 21 15 5 13 19 15 88 9 l82 -6 21 30 c25 35 27 45 10 72 -10 15 -9 23 6 39 28 30 28 30 166 -33 32 -15 66 -21 118 -21 39 0 72 3 72 7 0 4 -4 8 -10 8 -24 0 -7 28 20 33 25 6 30 11 30 36 0 46 -17 81 -40 81 -33 0 -103 32 -139 63 -28 24 -41 28 -75 25 -33 -4 -45 0 -63 19 -19 20 -32 23 -96 23 -75 0 -97 9 -97 41 0 29 -19 32 -29 6 -10 -25 -36 -41 -52 -31 -5 3 -9 19 -9 35 0 24 -4 30 -17 27 -13 -2 -18 -13 -19 -35 0 -43 -8 -49 -34 -25 -23 21 -21 45 8 114 11 25 23 38 42 41 28 6 85 71 75 86 -3 5 -30 7 -60 4 -44 -5 -59 -2 -74 11 -12 11 -27 15 -39 11 -11 -3 -23 -1 -27 5 -8 13 21 80 34 80 5 0 18 -16 30 -35 24 -41 61 -47 83 -13 13 20 17 21 45 9 34 -14 73 -12 76 4 1 6 -11 12 -28 13 -16 2 -37 9 -45 16 -28 24 -60 26 -80 3 -20 -20 -20 -21 -35 -1 -8 10 -15 22 -15 26 0 4 -18 17 -40 29 -26 15 -42 32 -46 49 -8 39 -45 106 -81 145 -18 20 -33 40 -33 45 0 18 22 21 39 6 16 -15 19 -15 34 2 34 37 14 72 -40 72 -40 0 -42 12 -7 39 20 16 31 18 45 10 12 -6 26 -6 37 -1 9 5 35 13 57 17 39 7 39 7 15 20 -39 21 -55 85 -22 85 23 0 42 19 42 41 0 11 12 20 37 26 39 9 58 33 25 33 -27 0 -44 24 -37 52 8 32 -8 44 -67 50 -34 4 -51 1 -62 -10 -14 -14 -16 -14 -22 3 -9 23 -41 55 -54 55 -14 0 -12 -27 3 -33 9 -3 9 -7 0 -17 -21 -23 -43 -4 -43 39 0 47 20 71 59 71 16 0 43 3 60 6 28 6 31 4 37 -24 7 -33 30 -42 113 -42 26 0 52 -5 59 -12 9 -9 17 -9 34 0 13 6 39 13 58 15 87 12 106 18 122 38 23 28 15 39 -29 39 -20 0 -51 10 -71 22 -33 20 -35 21 -48 3 -10 -13 -21 -16 -46 -11 -18 4 -55 11 -83 16 -95 16 -190 42 -207 57 -14 13 -20 13 -47 -1 -16 -9 -39 -16 -51 -16 -31 0 -37 30 -11 51 12 10 21 26 19 36 -1 10 1 24 5 31 12 18 64 15 84 -7 10 -10 35 -24 55 -30 21 -7 40 -16 43 -21 7 -12 105 -1 130 15 11 7 43 18 70 24 28 7 68 17 90 22 22 6 50 10 63 10 12 -1 22 5 22 13 0 22 -28 39 -52 33 -89 -23 -126 -34 -145 -45 -28 -16 -63 0 -63 28 0 15 8 19 42 22 23 2 43 8 45 15 5 15 -41 63 -59 63 -7 0 -25 -24 -39 -53 -24 -47 -29 -52 -60 -52 -31 0 -34 2 -31 28 1 15 -2 27 -8 27 -5 0 -10 -4 -10 -10 0 -5 -6 -10 -14 -10 -17 0 -107 91 -100 102 11 18 50 6 74 -22 23 -29 50 -40 50 -21 0 5 10 12 23 15 12 3 30 17 39 30 15 21 16 25 1 46 -14 20 -22 22 -74 17 -33 -3 -62 -1 -65 4 -3 5 -19 9 -35 9 -30 0 -79 25 -79 41 0 5 11 19 25 31 44 39 25 66 -23 32 -15 -10 -32 -14 -49 -9 -21 5 -33 0 -58 -25 l-33 -32 -7 33 c-4 17 -18 42 -32 55 -29 27 -23 44 14 44 17 0 38 13 60 36 31 33 33 38 20 58 -12 17 -26 22 -75 24 -54 3 -62 0 -72 -19 -9 -15 -9 -24 -1 -32 6 -6 11 -14 11 -18 0 -14 -35 -15 -52 -2 -11 10 -18 11 -23 3 -4 -7 2 -14 14 -17 12 -3 21 -8 21 -11 0 -3 -26 -31 -59 -63 l-58 -58 -12 25 c-10 23 -15 25 -50 19 -34 -6 -40 -4 -46 14 -4 14 -15 21 -31 21 -38 0 -32 41 11 79 20 17 39 31 44 31 20 0 41 -40 41 -78 0 -23 3 -42 8 -42 16 1 52 49 52 70 0 34 38 80 65 80 13 0 36 11 52 24 24 21 26 26 14 40 -19 23 -5 33 17 13 20 -19 48 -22 57 -8 3 6 -2 14 -11 19 -24 14 -9 54 19 50 18 -2 23 -11 27 -48 4 -32 10 -46 22 -48 15 -3 17 2 12 28 -5 20 -2 36 9 48 8 9 18 27 21 40 5 15 15 22 32 22 27 0 30 -16 9 -44 -21 -28 -19 -36 9 -36 18 0 25 6 28 23 3 20 9 22 76 24 57 1 74 -2 79 -13 3 -9 1 -20 -6 -27 -16 -16 -14 -44 5 -51 22 -9 34 1 34 30 0 26 9 31 27 13 17 -17 41 -4 45 23 2 18 10 24 34 26 53 5 51 -19 -8 -100 -20 -28 2 -41 39 -23 38 19 58 42 70 80 5 17 21 36 37 43 22 11 27 19 24 45 -3 28 -11 36 -63 62 l-60 30 14 41 c21 59 12 74 -47 74 -26 0 -53 5 -59 11 -8 8 -13 8 -18 0 -7 -13 58 -106 81 -115 24 -9 5 -28 -24 -23 -35 7 -50 -1 -68 -34 -11 -22 -22 -29 -44 -29 -19 0 -30 5 -30 14 0 17 -21 26 -63 27 -30 1 -30 2 -6 8 36 9 79 46 79 68 0 11 -6 28 -14 39 -13 16 -18 17 -35 7 -12 -7 -30 -13 -41 -13 -11 0 -25 -9 -32 -20 -7 -11 -16 -20 -20 -20 -17 0 -48 46 -48 72 0 26 -30 68 -49 68 -5 0 -14 -7 -21 -15 -15 -18 -30 -11 -30 16 0 23 -13 24 -44 4 -21 -14 -25 -13 -51 9 -27 23 -27 26 -16 69 6 25 11 48 11 51 0 3 -24 6 -54 6 -46 0 -56 3 -61 20 -9 27 1 40 32 40 17 0 27 7 30 20 3 12 18 27 34 36 19 10 29 22 29 38 0 29 36 62 62 58 24 -4 58 25 58 50 0 26 -27 22 -55 -8 l-24 -26 -48 23 c-29 15 -49 32 -51 44 -6 30 -21 43 -32 25 -5 -9 -3 -27 6 -48 18 -43 18 -40 -8 -44 -15 -2 -24 -11 -26 -25 -3 -20 1 -23 27 -23 37 0 41 -17 7 -30 -13 -5 -27 -14 -31 -19 -9 -16 -51 -13 -65 4 -18 22 -30 15 -45 -28 -12 -35 -2 -66 11 -33 12 31 34 17 34 -21 0 -47 11 -66 33 -57 13 5 17 1 17 -16 0 -18 -3 -20 -14 -11 -9 8 -28 10 -50 5 -20 -3 -43 -3 -52 0 -16 6 -16 8 0 25 21 23 12 31 -36 31 -33 0 -47 -7 -81 -40 -73 -70 -77 -74 -77 -64 0 6 9 28 19 50 19 38 19 39 0 65 -25 36 -24 49 4 49 27 0 57 28 57 53 0 8 5 38 12 66 9 38 16 51 30 51 13 0 18 -7 18 -25 0 -20 5 -25 25 -25 20 0 30 11 55 60 17 33 36 60 44 60 7 0 19 6 25 14 6 8 31 17 55 20 24 4 51 15 61 26 16 17 15 19 -4 25 -11 3 -23 14 -26 24 -3 10 -14 26 -25 36 -19 17 -20 17 -33 -13 -8 -20 -17 -28 -23 -23 -5 6 -28 11 -52 13 -42 3 -57 17 -31 29 64 29 76 40 106 100 59 118 34 153 -48 70 -50 -51 -53 -52 -102 -49 -45 3 -52 0 -55 -17 -2 -11 -11 -35 -20 -53 -13 -26 -14 -36 -5 -52 11 -16 9 -20 -7 -25 -27 -9 -44 -43 -41 -82 3 -35 -29 -80 -49 -68 -6 4 -18 1 -26 -6 -14 -11 -13 -15 7 -30 l22 -17 -24 -12 c-28 -15 -68 -60 -69 -77 0 -17 -63 -63 -87 -63 -12 0 -32 15 -47 34 -25 34 -25 35 -9 64 14 25 15 34 4 60 -16 37 -37 47 -65 29 -12 -8 -36 -18 -53 -21 -17 -4 -38 -17 -46 -30 -15 -23 -90 -52 -107 -41 -13 8 -13 68 1 99 8 18 9 33 1 56 -14 37 -6 60 19 60 12 0 24 11 30 27 8 21 6 30 -11 48 -11 12 -20 29 -20 38 0 20 26 23 33 3 3 -7 17 -16 32 -20 20 -5 35 1 68 27 23 19 50 37 60 40 16 6 23 37 11 50 -4 3 -20 -1 -36 -9 -41 -21 -78 -11 -78 21 0 13 -5 27 -12 31 -7 5 6 12 32 18 24 6 45 16 47 23 5 13 -76 36 -124 35 -21 0 -33 4 -33 13 0 7 -9 23 -19 36 l-19 24 -22 -20 c-12 -11 -27 -29 -32 -40 -42 -90 -71 -130 -109 -152 -51 -29 -69 -29 -69 -2 0 12 -8 28 -17 35 -17 12 -15 15 17 44 19 17 45 35 58 40 26 11 28 25 5 35 -12 4 -23 -1 -32 -14 -7 -12 -20 -21 -27 -21 -8 0 -20 -11 -26 -25 -9 -21 -18 -25 -52 -24 -24 1 -31 4 -18 6 16 3 25 14 29 34 3 15 12 34 19 40 8 6 14 21 14 33 1 28 34 71 49 62 6 -4 11 -17 11 -30 0 -31 11 -39 26 -18 21 26 17 63 -6 69 -30 8 -27 51 5 63 32 12 36 60 5 60 -10 0 -25 10 -31 22 l-12 22 -23 -28 c-15 -17 -24 -40 -24 -60 0 -27 -7 -38 -39 -61 -25 -17 -42 -38 -46 -55 -3 -16 -13 -34 -21 -41 -8 -6 -14 -22 -14 -35 0 -29 -14 -38 -30 -19 -16 19 -64 19 -80 0 -7 -8 -17 -15 -23 -15 -6 0 -26 -14 -43 -31 -37 -36 -64 -33 -64 6 0 32 -32 34 -54 4 -21 -31 -64 -19 -68 18 -3 23 -9 29 -40 34 -36 5 -78 33 -78 50 0 4 11 9 25 11 14 2 26 8 26 13 0 16 -34 18 -45 3 -15 -20 -52 -39 -60 -31 -13 14 -4 39 24 63 17 13 30 32 30 41 0 21 53 66 58 50 9 -26 20 -8 15 23 -3 19 -1 36 6 40 19 12 12 31 -16 48 -37 21 -51 14 -59 -30 -4 -20 -13 -43 -21 -50 -7 -7 -13 -22 -13 -32 0 -22 -44 -55 -60 -45 -8 5 -8 10 0 20 6 7 8 25 4 40 -7 27 -7 27 -81 23 -93 -6 -113 6 -86 54 10 16 36 50 59 74 22 24 40 45 40 45 -1 1 -30 3 -64 5 -43 2 -70 8 -83 20 -20 18 -18 20 -33 -30 -4 -11 -21 -15 -65 -15 -34 0 -61 3 -61 6 0 3 14 18 31 34 25 23 28 31 20 48 -9 16 -8 22 5 29 24 13 11 62 -17 62 -32 0 -59 19 -59 40 0 24 32 27 50 5 14 -17 50 -21 50 -5 0 5 -9 14 -20 20 -14 8 -20 21 -20 48 0 55 -18 110 -40 122 -27 14 -72 12 -94 -5 -29 -22 -44 -19 -60 12 -12 23 -12 34 1 77 14 48 17 100 11 193 -3 48 -16 67 -25 35 -7 -27 -19 -28 -33 -2 -17 32 -41 39 -80 23z m-2032 -905 c15 -12 16 -44 2 -53 -26 -16 -80 41 -64 67 6 10 42 1 62 -14z m3462 -544 c0 -17 -22 -14 -28 4 -2 7 3 12 12 12 9 0 16 -7 16 -16z m-3600 -62 c0 -5 -11 -19 -24 -31 -21 -20 -23 -27 -14 -52 11 -31 35 -39 44 -14 8 20 39 19 64 -2 25 -21 25 -42 3 -82 -15 -26 -16 -33 -4 -40 15 -10 51 -3 51 10 0 17 28 9 33 -10 9 -37 -39 -72 -58 -41 -14 22 -35 10 -35 -20 0 -20 -5 -30 -15 -30 -16 0 -18 5 -19 59 -1 29 -6 36 -26 41 -20 5 -26 13 -28 43 -2 20 -7 37 -13 37 -5 0 -9 12 -9 26 0 17 -6 28 -20 31 -27 7 -25 22 7 55 25 26 63 38 63 20z m3520 -91 c15 -29 13 -39 -16 -57 -36 -24 -48 -7 -29 39 17 41 29 46 45 18z m-3620 -23 c0 -16 -3 -19 -11 -11 -6 6 -8 16 -5 22 11 17 16 13 16 -11z m4840 -64 c0 -2 -12 -4 -26 -4 -14 0 -23 4 -20 9 6 8 46 4 46 -5z m-55 -299 c0 -5 -15 -11 -32 -13 -25 -3 -33 1 -33 13 0 12 8 16 33 13 17 -2 32 -7 32 -13z m210 -165 c0 -29 -32 -41 -41 -16 -9 24 4 48 23 44 12 -2 18 -12 18 -28z m-5593 -261 c15 -8 18 -17 13 -36 -3 -14 -1 -31 6 -39 13 -16 10 -17 -46 -14 -44 1 -65 20 -65 57 0 16 6 23 19 23 11 0 23 5 26 10 8 13 21 13 47 -1z m5479 -114 c0 -5 -9 -11 -21 -13 -20 -3 -27 8 -13 22 10 9 34 3 34 -9z m-5661 -44 c0 -22 -25 -45 -40 -36 -13 8 -13 28 2 43 18 18 38 14 38 -7z m-191 -10 c9 -6 10 -10 2 -16 -16 -9 -44 2 -36 15 8 12 16 12 34 1z m5421 -74 c0 -33 -28 -67 -55 -67 -36 0 -39 16 -9 55 31 41 64 47 64 12z m750 -316 c0 -12 -20 -25 -27 -18 -7 7 6 27 18 27 5 0 9 -4 9 -9z m-6335 -381 c0 -22 -4 -25 -30 -22 -39 5 -42 8 -20 32 25 27 50 22 50 -10z m208 -412 c12 -7 34 -11 50 -9 43 4 33 -24 -17 -43 -34 -13 -49 -14 -72 -6 -15 6 -46 8 -67 4 -28 -4 -37 -3 -33 5 4 6 13 11 21 11 7 0 15 4 17 8 3 9 56 39 71 41 5 1 18 -4 30 -11z m6010 -7 c5 -22 0 -31 -20 -31 -7 0 -13 11 -13 25 0 30 25 34 33 6z m-37 -42 c3 -6 2 -15 -3 -20 -12 -12 -53 1 -53 17 0 17 46 19 56 3z m-5696 -184 c0 -8 -4 -15 -9 -15 -13 0 -22 16 -14 24 11 11 23 6 23 -9z m180 -10 c0 -28 -24 -34 -34 -9 -8 20 1 34 20 34 8 0 14 -10 14 -25z m5315 -945 c3 -6 -1 -13 -10 -16 -19 -8 -30 0 -20 15 8 14 22 14 30 1z m-37 -182 c4 -30 -23 -57 -40 -40 -8 8 -7 19 2 42 15 36 34 35 38 -2z m72 -69 c0 -12 -47 -11 -55 0 -9 15 28 31 42 19 7 -6 13 -14 13 -19z m-5140 -74 c0 -21 -39 -40 -54 -25 -8 8 -5 16 14 30 26 20 40 18 40 -5z m-102 -112 c2 -12 12 -25 23 -28 12 -4 19 -14 17 -23 -6 -31 -168 -51 -168 -21 0 5 13 9 28 9 37 0 52 17 52 58 0 29 3 33 23 30 14 -2 23 -11 25 -25z m497 -123 c3 -5 16 -10 28 -10 12 0 34 -8 49 -18 26 -17 26 -18 8 -30 -27 -17 -25 -31 6 -42 36 -14 54 3 54 51 0 29 5 39 21 44 27 9 47 -9 31 -28 -9 -10 -9 -16 0 -25 8 -8 8 -15 -2 -27 -7 -9 -16 -32 -19 -53 -5 -27 -12 -38 -29 -42 -20 -4 -34 -20 -58 -68 -4 -7 -1 -19 5 -25 10 -9 15 -8 25 6 18 23 47 22 53 -3 3 -11 16 -23 30 -26 39 -10 21 -29 -33 -34 -38 -4 -60 -14 -96 -43 -26 -21 -49 -44 -52 -50 -3 -8 -12 -3 -25 13 -18 22 -20 23 -26 7 -9 -21 -48 -22 -65 -2 -11 13 -17 12 -47 -11 -32 -24 -35 -25 -59 -9 -26 17 -44 13 -44 -10 0 -8 -4 -16 -10 -20 -11 -7 -39 45 -33 63 3 7 -3 22 -13 33 -17 19 -17 21 -2 30 14 8 16 19 11 61 -6 48 -5 51 13 43 38 -16 138 -23 153 -10 22 21 -20 55 -69 55 -62 0 -48 44 24 74 21 9 47 27 58 41 11 14 26 25 34 25 8 0 14 6 14 13 0 30 50 51 65 27z m-345 -275 c0 -14 -4 -25 -10 -25 -19 0 -10 -28 11 -33 12 -3 18 -10 14 -16 -9 -16 -46 -13 -66 4 -15 14 -18 14 -33 0 -15 -15 -16 -14 -16 12 0 17 12 43 31 66 25 31 34 35 50 27 11 -6 19 -21 19 -35z m-69 -178 l-22 -22 -20 24 c-41 50 -6 88 40 44 l25 -24 -23 -22z m3850 -207 c15 0 32 -7 39 -14 6 -8 33 -16 58 -18 39 -2 48 -7 50 -24 2 -11 -6 -28 -17 -38 -19 -17 -22 -18 -45 -2 -14 9 -34 16 -45 16 -11 0 -25 9 -31 20 -6 11 -29 28 -51 36 -36 15 -48 32 -33 47 4 3 16 0 28 -8 11 -8 32 -15 47 -15z m-2973 -12 c-3 -7 -13 -15 -24 -17 -16 -3 -17 -1 -5 13 16 19 34 21 29 4z m2832 -3 c0 -15 -38 -41 -47 -32 -2 3 0 15 7 26 12 24 40 28 40 6z m60 -34 c0 -10 11 -26 25 -35 20 -13 23 -21 16 -34 -7 -12 -5 -22 6 -35 13 -13 14 -20 5 -29 -9 -9 -15 -9 -23 -1 -6 6 -26 9 -45 6 -34 -6 -34 -6 -34 35 0 22 5 44 10 47 6 3 10 19 10 34 0 15 3 31 6 34 11 10 24 -3 24 -22z m65 -202 c0 -7 -8 -15 -17 -17 -18 -3 -25 18 -11 32 10 10 28 1 28 -15z m-2885 -99 c0 -5 -7 -10 -15 -10 -8 0 -15 5 -15 10 0 6 7 10 15 10 8 0 15 -4 15 -10z m328 -117 c-4 -22 -22 -20 -26 1 -2 10 3 16 13 16 10 0 15 -7 13 -17z m1843 -162 c14 -13 17 -21 9 -26 -11 -7 -50 21 -50 37 0 14 20 9 41 -11z m-309 -441 c16 -28 16 -31 1 -37 -34 -13 -71 39 -41 58 19 13 21 12 40 -21z m358 -195 c0 -18 -5 -25 -18 -25 -28 0 -34 11 -15 32 22 25 33 23 33 -7z"/> <path d="M2508 2764 c-5 -40 12 -55 37 -34 20 16 19 56 -1 64 -27 10 -32 7 -36 -30z"/> <path d="M2463 2694 c-26 -11 -11 -30 32 -42 25 -7 54 -12 65 -12 25 0 26 26 2 39 -23 12 -84 21 -99 15z"/> <path d="M2602 2619 c2 -6 8 -10 13 -10 5 0 11 4 13 10 2 6 -4 11 -13 11 -9 0 -15 -5 -13 -11z"/> <path d="M2360 2466 c0 -10 9 -16 21 -16 24 0 21 23 -4 28 -10 2 -17 -3 -17 -12z"/> <path d="M5581 8326 c-10 -12 -8 -17 9 -26 26 -14 46 0 37 24 -8 20 -31 21 -46 2z"/> <path d="M5427 8223 c-4 -3 -7 -16 -7 -29 0 -12 -7 -24 -15 -28 -18 -7 -21 -50 -2 -44 6 3 14 13 16 24 2 10 7 21 11 24 13 8 23 60 13 60 -5 0 -13 -3 -16 -7z"/> <path d="M5207 8119 c-10 -6 -15 -14 -12 -20 10 -14 45 -11 45 5 0 21 -12 26 -33 15z"/> <path d="M2937 8093 c-12 -11 -8 -22 14 -34 31 -16 52 7 25 27 -22 16 -30 17 -39 7z"/> <path d="M5304 8048 c-12 -18 8 -47 34 -50 19 -2 28 -10 30 -25 4 -26 12 -29 30 -11 16 16 15 49 -4 73 -15 20 -80 30 -90 13z"/> <path d="M3111 8031 c-15 -27 -14 -31 9 -31 13 0 20 7 20 19 0 28 -17 35 -29 12z"/> <path d="M2766 7984 c-9 -8 -16 -20 -16 -26 0 -6 -8 -20 -17 -30 -12 -13 -18 -37 -18 -71 0 -54 7 -67 39 -67 10 0 38 -13 63 -30 50 -34 71 -38 79 -12 3 9 10 25 15 34 13 25 11 30 -9 24 -23 -8 -55 25 -50 51 5 29 52 28 91 -1 43 -33 61 -34 53 -3 -3 12 -6 27 -6 34 0 15 -62 53 -87 53 -10 0 -29 14 -41 30 -26 34 -70 41 -96 14z"/> <path d="M2484 7969 c-3 -6 8 -25 25 -43 21 -21 29 -38 25 -49 -4 -11 0 -19 12 -23 11 -4 31 -18 45 -31 l26 -24 35 21 c59 34 56 90 -5 90 -25 0 -107 38 -131 61 -13 12 -23 11 -32 -2z"/> <path d="M3060 7970 c0 -13 28 -25 38 -16 3 4 0 11 -8 16 -20 13 -30 12 -30 0z"/> <path d="M3224 7969 c-8 -14 11 -33 25 -25 11 7 4 36 -9 36 -5 0 -12 -5 -16 -11z"/> <path d="M6636 7924 c-18 -17 -19 -24 -10 -48 6 -15 12 -13 49 9 24 14 55 25 69 25 16 0 26 6 26 15 0 22 -112 21 -134 -1z"/> <path d="M5250 7911 c0 -26 15 -34 47 -26 22 5 24 8 12 20 -8 7 -24 16 -36 20 -19 5 -23 2 -23 -14z"/> <path d="M2431 7871 c-8 -15 -8 -23 2 -33 8 -7 19 -23 26 -36 6 -12 18 -22 25 -22 20 0 28 28 11 37 -7 5 -15 21 -17 38 -4 36 -32 45 -47 16z"/> <path d="M3120 7880 c0 -12 28 -25 36 -17 3 3 -4 10 -15 17 -15 7 -21 7 -21 0z"/> <path d="M3470 7868 c-11 -12 -20 -25 -20 -29 0 -13 93 -50 109 -43 13 5 12 8 -6 21 -19 13 -20 18 -10 34 10 16 9 21 -3 29 -24 16 -48 12 -70 -12z"/> <path d="M5561 7881 c-18 -12 -5 -31 20 -31 14 0 19 6 17 17 -4 20 -18 26 -37 14z"/> <path d="M4464 7846 c-4 -10 -2 -22 4 -28 8 -8 13 -7 18 6 4 10 2 22 -4 28 -8 8 -13 7 -18 -6z"/> <path d="M6698 7839 c-11 -6 -18 -22 -18 -38 0 -16 -7 -34 -15 -41 -22 -19 -18 -52 10 -83 29 -30 56 -34 79 -11 12 11 13 20 6 34 -6 10 -10 28 -10 39 0 12 -7 21 -15 21 -8 0 -15 7 -15 15 0 8 5 15 11 15 13 0 8 52 -6 56 -5 2 -18 -1 -27 -7z"/> <path d="M7206 7831 c-22 -24 -13 -41 20 -41 17 0 24 5 24 20 0 11 0 23 1 28 1 16 -28 12 -45 -7z"/> <path d="M5090 7800 c0 -5 7 -10 15 -10 8 0 15 5 15 10 0 6 -7 10 -15 10 -8 0 -15 -4 -15 -10z"/> <path d="M4490 7776 c0 -9 7 -16 16 -16 17 0 14 22 -4 28 -7 2 -12 -3 -12 -12z"/> <path d="M3123 7754 c-18 -8 -33 -21 -33 -29 0 -16 30 -20 46 -6 5 5 20 11 34 13 30 4 34 32 5 35 -11 1 -35 -5 -52 -13z"/> <path d="M2930 7740 c-6 -12 -10 -22 -8 -23 2 -1 18 -10 36 -19 50 -27 62 -23 62 17 0 35 -20 49 -35 24 -5 -7 -13 -5 -25 6 -17 16 -19 15 -30 -5z"/> <path d="M6036 7741 c-24 -26 -13 -41 29 -41 42 0 48 9 25 38 -22 27 -32 28 -54 3z"/> <path d="M3652 7729 c1 -13 8 -23 13 -21 15 3 12 35 -3 40 -9 3 -13 -3 -10 -19z"/> <path d="M5070 7712 c0 -5 9 -17 20 -27 16 -14 20 -15 20 -4 0 16 -19 39 -32 39 -4 0 -8 -4 -8 -8z"/> <path d="M6341 7674 c-12 -15 -21 -38 -21 -51 0 -34 24 -24 30 13 7 42 44 45 58 5 8 -21 18 -31 31 -31 38 0 18 51 -29 75 -39 20 -45 19 -69 -11z"/> <path d="M7240 7690 c0 -5 7 -10 15 -10 8 0 15 5 15 10 0 6 -7 10 -15 10 -8 0 -15 -4 -15 -10z"/> <path d="M6200 7662 c0 -27 -35 -122 -45 -122 -2 0 -15 5 -29 11 -21 10 -24 17 -19 40 4 24 2 29 -13 29 -36 0 -49 -16 -37 -42 7 -13 13 -32 15 -43 2 -15 12 -21 38 -23 19 -2 43 -10 52 -19 11 -10 26 -13 43 -9 26 7 26 7 23 103 -2 66 -7 98 -15 101 -9 2 -13 -7 -13 -26z"/> <path d="M6050 7656 c0 -15 37 -32 47 -22 3 3 3 12 0 21 -8 19 -47 20 -47 1z"/> <path d="M5393 7630 c-26 -11 -30 -35 -8 -43 19 -8 60 26 51 41 -8 14 -13 14 -43 2z"/> <path d="M5755 7610 c-4 -6 -3 -16 3 -22 13 -13 23 4 13 21 -7 10 -10 10 -16 1z"/> <path d="M3875 7600 c-8 -12 20 -24 35 -15 6 3 8 11 5 16 -8 12 -32 12 -40 -1z"/> <path d="M6375 7580 c-10 -11 -13 -20 -8 -20 13 0 38 29 31 35 -3 3 -13 -4 -23 -15z"/> <path d="M6423 7529 c-32 -15 -43 -25 -43 -43 0 -34 12 -40 32 -14 12 17 20 20 28 12 8 -8 4 -19 -15 -42 -20 -24 -28 -46 -31 -89 -4 -44 -3 -54 5 -41 14 21 69 34 84 19 7 -7 3 -13 -16 -20 -30 -12 -42 -42 -27 -71 12 -22 21 -25 36 -11 5 5 30 12 56 16 39 6 49 4 54 -9 8 -22 29 -20 64 6 27 19 30 28 30 75 0 45 4 58 25 77 14 13 25 31 25 40 0 9 7 19 15 22 21 8 19 34 -2 34 -26 -1 -61 -33 -65 -61 -2 -18 -11 -25 -33 -29 -22 -4 -30 -11 -28 -25 4 -50 -40 -74 -57 -30 -8 21 -16 25 -48 25 -21 0 -41 3 -45 6 -3 3 13 32 35 65 36 52 40 62 30 84 -14 31 -48 32 -109 4z"/> <path d="M6280 7506 c-5 -14 -18 -29 -28 -35 -13 -7 -22 -26 -27 -58 -6 -41 -4 -49 15 -65 30 -24 36 -23 53 11 13 26 13 31 0 44 -18 18 -5 49 32 73 29 19 32 39 9 48 -29 11 -44 6 -54 -18z"/> <path d="M7165 7511 c-7 -12 12 -24 25 -16 11 7 4 25 -10 25 -5 0 -11 -4 -15 -9z"/> <path d="M5574 7486 c-4 -10 -2 -22 4 -28 8 -8 13 -7 18 6 4 10 2 22 -4 28 -8 8 -13 7 -18 -6z"/> <path d="M6360 7405 c0 -8 5 -15 10 -15 6 0 10 7 10 15 0 8 -4 15 -10 15 -5 0 -10 -7 -10 -15z"/> <path d="M2197 7333 c-14 -13 -6 -43 13 -53 12 -6 19 -19 17 -33 -3 -27 21 -30 37 -4 9 14 7 20 -6 28 -11 6 -18 22 -18 39 0 22 -5 30 -18 30 -10 0 -22 -3 -25 -7z"/> <path d="M6772 7194 c4 -21 22 -23 26 -1 2 10 -3 17 -13 17 -10 0 -15 -6 -13 -16z"/> <path d="M2684 7189 c-9 -15 11 -33 30 -26 9 4 13 13 10 22 -7 17 -30 20 -40 4z"/> <path d="M2007 7183 c-4 -3 -7 -23 -7 -44 0 -68 53 -73 97 -9 12 17 12 21 1 18 -7 -1 -23 7 -36 20 -22 22 -43 28 -55 15z"/> <path d="M6595 7179 c-10 -15 3 -25 16 -12 7 7 7 13 1 17 -6 3 -14 1 -17 -5z"/> <path d="M1846 7154 c-9 -24 -8 -28 23 -63 33 -37 45 -29 35 26 -9 51 -44 73 -58 37z"/> <path d="M6565 7149 c-10 -15 3 -25 16 -12 7 7 7 13 1 17 -6 3 -14 1 -17 -5z"/> <path d="M2156 7122 c-3 -6 -1 -14 5 -17 15 -10 25 3 12 16 -7 7 -13 7 -17 1z"/> <path d="M7604 7085 c-10 -31 -9 -35 6 -35 25 0 43 25 35 50 -10 31 -29 24 -41 -15z"/> <path d="M2482 7043 c2 -22 9 -29 31 -31 32 -4 33 4 8 36 -26 30 -43 28 -39 -5z"/> <path d="M6825 7001 c-3 -5 8 -19 25 -31 l30 -21 0 30 c0 26 -4 31 -24 31 -14 0 -27 -4 -31 -9z"/> <path d="M1282 6948 c-15 -15 3 -38 30 -38 16 0 37 25 27 34 -13 12 -47 14 -57 4z"/> <path d="M1540 6940 c0 -5 7 -10 15 -10 8 0 15 5 15 10 0 6 -7 10 -15 10 -8 0 -15 -4 -15 -10z"/> <path d="M2575 6910 c-3 -5 3 -10 15 -10 12 0 18 5 15 10 -3 6 -10 10 -15 10 -5 0 -12 -4 -15 -10z"/> <path d="M7495 6911 c-7 -12 12 -24 25 -16 11 7 4 25 -10 25 -5 0 -11 -4 -15 -9z"/> <path d="M2330 6885 c-10 -12 -9 -16 4 -20 9 -3 23 -7 32 -10 24 -8 47 14 33 31 -15 18 -53 18 -69 -1z"/> <path d="M7726 6881 c-3 -5 1 -11 9 -15 15 -6 29 7 18 18 -9 9 -21 8 -27 -3z"/> <path d="M7344 6865 c-9 -23 5 -35 41 -35 39 0 52 14 35 35 -16 19 -69 19 -76 0z"/> <path d="M6624 6849 c-4 -7 0 -17 11 -25 12 -9 16 -22 13 -44 -3 -21 0 -34 9 -37 19 -7 52 37 53 71 0 24 -3 28 -22 23 -13 -4 -29 0 -39 9 -13 12 -19 12 -25 3z"/> <path d="M2060 6815 c0 -10 7 -15 18 -13 21 4 19 22 -2 26 -10 2 -16 -3 -16 -13z"/> <path d="M6827 6824 c-9 -10 2 -24 19 -24 8 0 14 7 14 15 0 15 -21 21 -33 9z"/> <path d="M1712 6794 c2 -10 18 -28 35 -39 29 -18 32 -24 26 -55 -3 -19 -9 -37 -14 -40 -4 -3 -11 -19 -15 -35 l-7 -30 35 27 36 27 6 -25 c5 -17 12 -24 24 -22 25 5 26 41 2 63 -11 10 -20 30 -20 45 0 16 -7 30 -15 34 -8 3 -15 14 -15 25 0 23 -4 26 -48 36 -29 6 -33 5 -30 -11z"/> <path d="M8185 6559 c-15 -46 40 -50 62 -4 11 24 10 25 -22 25 -25 0 -35 -5 -40 -21z"/> <path d="M1927 6559 c-24 -14 -12 -29 22 -29 34 0 44 9 30 27 -13 15 -28 16 -52 2z"/> <path d="M8092 6543 c2 -10 12 -18 23 -18 11 0 21 8 23 18 3 13 -3 17 -23 17 -20 0 -26 -4 -23 -17z"/> <path d="M7940 6511 c0 -13 -10 -26 -25 -33 -31 -14 -32 -34 -4 -43 16 -5 27 0 45 21 27 33 28 67 2 72 -13 2 -18 -3 -18 -17z"/> <path d="M1784 6475 c-9 -24 5 -35 46 -35 50 0 59 15 21 35 -38 19 -60 19 -67 0z"/> <path d="M8042 6474 c-18 -7 -31 -18 -27 -24 9 -15 41 -12 55 5 21 25 7 34 -28 19z"/> <path d="M956 6463 c-11 -11 -6 -23 9 -23 8 0 15 4 15 9 0 13 -16 22 -24 14z"/> <path d="M565 6430 c-7 -12 61 -43 75 -35 6 4 10 15 10 26 0 16 -7 19 -39 19 -22 0 -43 -5 -46 -10z"/> <path d="M7324 6415 c-9 -22 1 -29 15 -11 8 10 9 16 1 21 -5 3 -13 -1 -16 -10z"/> <path d="M491 6379 c-22 -30 -26 -80 -6 -85 11 -4 45 63 45 89 0 28 -16 27 -39 -4z"/> <path d="M7765 6399 c-4 -5 -18 -14 -32 -20 -13 -5 -21 -13 -18 -19 8 -13 42 -13 50 0 3 6 21 10 40 10 30 0 52 19 38 34 -11 10 -71 7 -78 -5z"/> <path d="M8133 6391 c-18 -10 -40 -24 -48 -31 -9 -7 -32 -13 -53 -14 -30 -1 -38 -5 -40 -24 -4 -28 23 -40 46 -20 9 8 35 23 57 34 60 29 95 55 89 65 -7 12 -14 11 -51 -10z"/> <path d="M384 6346 c-8 -22 3 -33 18 -18 9 9 9 15 0 24 -9 9 -13 7 -18 -6z"/> <path d="M542 6312 c-34 -31 -40 -47 -19 -55 20 -8 98 43 95 62 -5 27 -41 24 -76 -7z"/> <path d="M255 6281 c-7 -12 12 -24 25 -16 11 7 4 25 -10 25 -5 0 -11 -4 -15 -9z"/> <path d="M1563 6280 c-25 -10 -26 -11 -17 -34 8 -22 23 -20 44 6 27 34 16 45 -27 28z"/> <path d="M1732 6278 c5 -15 28 -18 29 -3 0 6 -7 12 -17 13 -10 3 -15 -1 -12 -10z"/> <path d="M207 6236 c-3 -8 -2 -18 3 -21 13 -8 20 9 11 24 -6 10 -10 9 -14 -3z"/> <path d="M7667 6133 c-13 -12 -7 -23 13 -23 11 0 20 7 20 15 0 15 -21 21 -33 8z"/> <path d="M1587 6083 c-17 -16 -5 -33 22 -33 17 0 31 -6 35 -16 3 -8 11 -12 17 -8 9 5 8 10 -3 18 -8 6 -17 19 -21 29 -6 17 -37 23 -50 10z"/> <path d="M827 6021 c-38 -12 -46 -18 -41 -33 5 -16 1 -17 -40 -12 -42 6 -46 5 -46 -13 0 -31 19 -39 87 -37 83 2 118 23 109 67 -4 17 -10 34 -14 37 -4 3 -28 -1 -55 -9z"/> <path d="M588 5985 c-10 -11 4 -89 20 -107 18 -21 55 -23 71 -4 9 11 5 19 -21 41 -18 15 -35 37 -38 48 -6 21 -22 32 -32 22z"/> <path d="M7943 5954 c-4 -11 1 -23 17 -36 27 -22 43 -12 38 23 -4 30 -45 39 -55 13z"/> <path d="M8120 5900 c0 -25 4 -31 18 -28 11 2 17 12 17 28 0 16 -6 26 -17 28 -14 3 -18 -3 -18 -28z"/> <path d="M7640 5899 c-24 -10 -24 -11 -6 -25 23 -16 35 -17 55 -5 16 10 8 41 -11 40 -7 0 -24 -5 -38 -10z"/> <path d="M8022 5855 c-43 -19 -36 -40 14 -41 21 -1 59 -9 83 -18 78 -30 114 11 40 46 -54 25 -100 30 -137 13z"/> <path d="M8220 5831 c0 -5 7 -12 16 -15 22 -9 24 -8 24 9 0 8 -9 15 -20 15 -11 0 -20 -4 -20 -9z"/> <path d="M7916 5807 c3 -8 -7 -26 -22 -41 -36 -35 -21 -54 33 -40 46 11 53 35 21 69 -25 27 -40 32 -32 12z"/> <path d="M8430 5795 c-7 -9 -29 -15 -51 -15 -26 0 -39 -4 -39 -13 0 -18 32 -47 51 -47 17 0 89 64 89 79 0 16 -36 13 -50 -4z"/> <path d="M7751 5777 c-9 -11 -7 -20 8 -38 17 -21 20 -22 26 -7 15 39 -10 73 -34 45z"/> <path d="M958 5755 c-51 -28 -49 -84 5 -103 42 -15 80 -16 71 -1 -3 6 -17 8 -29 5 -17 -4 -28 0 -39 16 -21 30 -20 35 11 50 29 14 44 48 21 48 -7 -1 -25 -7 -40 -15z"/> <path d="M1032 5708 c5 -15 28 -18 29 -3 0 6 -7 12 -17 13 -10 3 -15 -1 -12 -10z"/> <path d="M8208 5698 c-16 -5 -28 -14 -28 -19 0 -5 -7 -9 -15 -9 -8 0 -15 5 -15 11 0 14 -62 7 -67 -7 -2 -6 6 -14 19 -17 18 -5 20 -9 10 -19 -9 -9 -21 -5 -56 19 -24 17 -47 29 -50 26 -11 -11 -6 -42 7 -50 19 -12 30 -43 28 -80 -2 -28 1 -33 19 -33 21 0 80 26 80 36 0 2 -12 9 -27 15 l-28 10 25 19 c14 11 39 22 55 26 28 6 52 25 84 67 16 20 4 22 -41 5z"/> <path d="M7823 5674 c-3 -8 -1 -20 4 -25 11 -11 56 18 48 32 -10 15 -45 10 -52 -7z"/> <path d="M7818 5583 c-29 -18 -38 -43 -15 -43 7 0 22 6 33 14 11 8 38 16 60 18 53 4 49 22 -6 25 -29 2 -55 -3 -72 -14z"/> <path d="M937 5410 c-21 -35 -15 -50 18 -50 28 0 42 17 26 33 -6 6 -11 19 -11 29 0 27 -13 22 -33 -12z"/> <path d="M1017 5433 c-13 -12 -7 -43 7 -43 19 0 28 14 20 34 -7 17 -16 20 -27 9z"/> <path d="M8096 5412 c-3 -6 -1 -14 5 -17 15 -10 25 3 12 16 -7 7 -13 7 -17 1z"/> <path d="M8275 5390 c-7 -12 2 -30 16 -30 12 0 12 27 0 35 -5 3 -12 1 -16 -5z"/> <path d="M8460 5355 c-10 -12 -9 -16 3 -21 20 -7 37 3 37 22 0 18 -24 18 -40 -1z"/> <path d="M8064 5299 c-3 -6 -2 -21 4 -32 6 -12 13 -30 16 -39 3 -10 13 -18 22 -18 13 0 15 7 9 43 -4 23 -9 45 -12 50 -6 11 -31 9 -39 -4z"/> <path d="M8340 5279 c0 -9 7 -22 15 -29 8 -7 15 -19 15 -26 0 -16 36 -19 45 -5 3 6 -5 15 -17 22 -13 6 -31 21 -40 33 -14 17 -18 18 -18 5z"/> <path d="M8780 5255 c0 -8 9 -15 19 -15 26 0 35 16 15 24 -25 10 -34 7 -34 -9z"/> <path d="M7814 5229 c-10 -17 13 -36 27 -22 12 12 4 33 -11 33 -5 0 -12 -5 -16 -11z"/> <path d="M8602 5154 c4 -21 22 -23 26 -1 2 10 -3 17 -13 17 -10 0 -15 -6 -13 -16z"/> <path d="M8277 5144 c-11 -12 3 -24 29 -24 15 0 24 6 24 15 0 15 -40 21 -53 9z"/> <path d="M8819 4952 c-15 -2 -35 -12 -44 -22 -9 -10 -23 -16 -32 -13 -8 3 -27 -7 -44 -23 l-29 -28 -16 22 c-8 12 -19 22 -23 22 -17 0 -48 -36 -55 -62 -6 -27 -9 -28 -70 -28 -66 0 -116 -24 -116 -55 0 -18 9 -23 57 -31 35 -5 44 -2 77 26 23 21 42 30 53 26 12 -5 14 -9 5 -18 -31 -31 -2 -52 51 -37 34 9 56 42 36 55 -36 22 63 66 147 65 38 0 68 5 80 14 10 8 27 15 37 15 31 0 19 30 -13 30 -17 0 -39 9 -52 23 -15 15 -32 22 -49 19z"/> <path d="M8280 4781 c0 -6 5 -13 11 -17 6 -3 9 -17 6 -30 -5 -28 17 -52 29 -32 10 16 6 59 -8 76 -12 14 -38 16 -38 3z"/> <path d="M820 4730 c0 -11 7 -20 15 -20 8 0 15 9 15 20 0 11 -7 20 -15 20 -8 0 -15 -9 -15 -20z"/> <path d="M8180 4725 c0 -20 4 -26 18 -23 9 2 17 12 17 23 0 11 -8 21 -17 23 -14 3 -18 -3 -18 -23z"/> <path d="M567 4724 c-10 -10 2 -24 19 -24 9 0 24 -10 33 -21 l17 -21 17 26 c10 15 15 31 12 36 -7 11 -88 14 -98 4z"/> <path d="M1165 4710 c-7 -12 2 -30 16 -30 12 0 12 27 0 35 -5 3 -12 1 -16 -5z"/> <path d="M8037 4666 c-6 -15 1 -26 15 -26 4 0 8 9 8 20 0 23 -15 27 -23 6z"/> <path d="M8155 4660 c-8 -13 20 -24 41 -16 20 8 9 26 -16 26 -10 0 -22 -5 -25 -10z"/> <path d="M260 4505 c0 -12 7 -15 25 -13 33 4 33 22 0 26 -18 2 -25 -1 -25 -13z"/> <path d="M7692 4433 c-13 -22 13 -63 39 -63 27 0 32 17 9 30 -11 6 -20 20 -20 30 0 24 -16 26 -28 3z"/> <path d="M1535 4276 c-15 -11 -17 -18 -9 -26 17 -17 49 -8 49 14 0 25 -16 30 -40 12z"/> <path d="M1148 4259 c-10 -5 -18 -17 -18 -25 0 -11 9 -14 38 -12 29 2 37 7 37 23 0 23 -30 31 -57 14z"/> <path d="M8016 4225 c-9 -14 -12 -25 -6 -25 18 0 60 32 54 41 -10 16 -32 9 -48 -16z"/> <path d="M340 4195 c0 -16 27 -32 37 -21 7 7 -16 36 -28 36 -5 0 -9 -7 -9 -15z"/> <path d="M1483 4110 c-30 -24 -29 -40 1 -40 16 0 27 7 31 21 10 31 -7 40 -32 19z"/> <path d="M1230 4103 c0 -12 56 -63 69 -63 15 0 14 35 -1 47 -18 14 -68 25 -68 16z"/> <path d="M1563 4073 c-34 -13 9 -63 54 -63 29 0 29 21 0 48 -24 22 -32 25 -54 15z"/> <path d="M1314 3996 c-4 -10 -2 -22 4 -28 8 -8 13 -7 18 6 4 10 2 22 -4 28 -8 8 -13 7 -18 -6z"/> <path d="M860 3880 c0 -15 5 -20 18 -18 9 2 17 10 17 18 0 8 -8 16 -17 18 -13 2 -18 -3 -18 -18z"/> <path d="M567 3883 c-15 -14 -5 -31 32 -55 45 -30 109 -42 146 -28 34 13 23 30 -20 30 -19 0 -38 6 -42 13 -9 14 -77 47 -97 47 -7 0 -16 -3 -19 -7z"/> <path d="M985 3868 c-9 -22 -2 -63 10 -61 17 3 24 41 10 60 -12 16 -14 17 -20 1z"/> <path d="M506 3863 c-12 -12 -6 -33 9 -33 8 0 15 6 15 14 0 17 -14 28 -24 19z"/> <path d="M1501 3801 c-19 -12 -4 -31 25 -31 19 0 25 5 22 17 -4 20 -27 27 -47 14z"/> <path d="M590 3785 c-15 -18 -6 -45 15 -45 10 0 15 10 15 30 0 33 -11 38 -30 15z"/> <path d="M1637 3777 c-18 -14 -31 -53 -20 -60 19 -11 53 13 53 37 0 31 -12 39 -33 23z"/> <path d="M1372 3758 c6 -18 28 -21 28 -4 0 9 -7 16 -16 16 -9 0 -14 -5 -12 -12z"/> <path d="M735 3729 c-12 -19 4 -59 25 -59 27 0 35 18 19 46 -13 25 -33 31 -44 13z"/> <path d="M1505 3729 c-4 -6 -1 -15 6 -20 21 -13 31 -11 27 8 -4 20 -24 28 -33 12z"/> <path d="M8467 3632 c-25 -27 -21 -42 11 -42 31 0 68 32 57 49 -10 17 -50 13 -68 -7z"/> <path d="M1942 3477 c-28 -30 -29 -57 -2 -57 11 0 23 -7 26 -15 4 -8 13 -15 21 -15 8 0 13 6 10 13 -15 39 -17 56 -7 62 5 3 10 13 10 21 0 22 -34 17 -58 -9z"/> <path d="M7730 3485 c0 -9 5 -15 11 -13 6 2 11 8 11 13 0 5 -5 11 -11 13 -6 2 -11 -4 -11 -13z"/> <path d="M1245 3459 c-4 -6 2 -21 14 -33 12 -12 21 -32 21 -44 0 -21 35 -49 43 -35 9 14 5 87 -4 106 -11 19 -64 24 -74 6z"/> <path d="M1038 3424 c-27 -14 -34 -36 -22 -68 5 -13 16 -15 58 -10 28 4 56 14 62 23 10 13 16 13 39 3 32 -15 49 -5 43 24 -2 13 -14 20 -38 22 -19 2 -39 8 -44 13 -15 14 -67 10 -98 -7z"/> <path d="M7436 3403 c-11 -11 -6 -23 9 -23 8 0 15 4 15 9 0 13 -16 22 -24 14z"/> <path d="M7497 3373 c-12 -12 -8 -20 18 -31 22 -10 25 -9 25 7 0 10 -7 22 -16 25 -19 7 -19 7 -27 -1z"/> <path d="M590 3343 c-19 -9 -53 -19 -74 -22 -22 -3 -41 -12 -44 -18 -6 -20 72 -17 89 3 9 11 24 14 48 11 20 -2 47 0 61 5 24 9 24 10 6 24 -25 18 -42 17 -86 -3z"/> <path d="M1707 3353 c-13 -12 -7 -54 9 -60 25 -9 37 11 23 40 -12 27 -20 32 -32 20z"/> <path d="M7610 3334 c0 -17 22 -14 28 4 2 7 -3 12 -12 12 -9 0 -16 -7 -16 -16z"/> <path d="M8036 3333 c-12 -12 -6 -43 9 -43 8 0 15 9 15 19 0 21 -13 34 -24 24z"/> <path d="M7808 3319 c-19 -11 -24 -44 -9 -54 13 -8 41 23 41 46 0 21 -7 23 -32 8z"/> <path d="M7467 3284 c-10 -10 -9 -62 2 -68 14 -9 33 21 29 45 -3 23 -19 35 -31 23z"/> <path d="M7906 3218 c-15 -38 -12 -48 13 -48 18 0 41 37 41 65 0 29 -40 16 -54 -17z"/> <path d="M1447 3233 c-13 -12 -7 -23 13 -23 11 0 20 7 20 15 0 15 -21 21 -33 8z"/> <path d="M568 3212 c-32 -19 -36 -32 -10 -32 23 0 64 29 57 41 -8 12 -16 11 -47 -9z"/> <path d="M663 3184 c-13 -14 -23 -31 -23 -39 0 -26 21 -27 45 -1 13 14 31 26 40 26 10 0 15 7 13 18 -5 27 -49 24 -75 -4z"/> <path d="M375 3149 c-4 -12 -2 -26 4 -32 16 -16 45 3 49 32 5 30 -44 30 -53 0z"/> <path d="M480 3145 c-15 -18 -5 -35 20 -35 23 0 32 13 24 34 -8 20 -28 21 -44 1z"/> <path d="M1388 3109 c-10 -10 -29 -19 -43 -19 -54 0 -32 -66 24 -72 21 -3 26 3 33 32 5 19 12 45 15 58 6 27 -6 27 -29 1z"/> <path d="M7736 3083 c-4 -4 -19 -7 -34 -8 -22 0 -27 -5 -27 -25 0 -22 5 -25 44 -28 44 -3 81 17 81 43 0 20 -48 34 -64 18z"/> <path d="M8006 3042 c-3 -6 -1 -14 5 -17 15 -10 25 3 12 16 -7 7 -13 7 -17 1z"/> <path d="M7196 3003 c-12 -12 -6 -43 9 -43 8 0 15 9 15 19 0 21 -13 34 -24 24z"/> <path d="M8166 2932 c-16 -18 -15 -20 9 -36 22 -14 26 -15 31 -2 8 20 1 49 -12 53 -6 2 -18 -5 -28 -15z"/> <path d="M7361 2890 c-31 -42 -19 -54 46 -47 50 5 57 3 89 -25 32 -28 37 -30 51 -16 23 24 8 61 -22 54 -18 -5 -24 -1 -29 20 -6 23 -11 25 -45 23 -22 -2 -45 2 -53 9 -12 9 -19 6 -37 -18z"/> <path d="M1312 2888 c6 -18 28 -21 28 -4 0 9 -7 16 -16 16 -9 0 -14 -5 -12 -12z"/> <path d="M1817 2834 c-9 -10 2 -24 19 -24 8 0 14 7 14 15 0 15 -21 21 -33 9z"/> <path d="M7688 2804 c-4 -3 -1 -15 5 -26 12 -19 4 -31 -42 -57 -17 -10 -6 -31 18 -31 31 0 63 44 59 81 -3 32 -24 49 -40 33z"/> <path d="M7407 2770 c-4 -15 -14 -20 -36 -20 -24 0 -31 -4 -31 -19 0 -10 7 -24 15 -31 8 -7 15 -23 15 -36 0 -15 -6 -24 -15 -24 -9 0 -15 9 -15 23 0 17 -9 25 -37 34 -51 16 -63 4 -57 -55 4 -33 1 -53 -9 -67 -14 -18 -12 -23 15 -57 29 -37 31 -38 98 -38 60 0 71 -3 80 -20 8 -15 17 -19 31 -15 12 4 21 1 25 -9 9 -23 34 -20 34 3 0 22 -35 51 -62 51 -10 0 -20 10 -24 24 -5 21 -13 25 -47 28 -53 4 -62 30 -18 53 26 13 31 22 31 50 0 40 10 43 50 15 44 -31 105 -51 119 -37 31 31 -8 137 -51 137 -25 0 -36 -30 -15 -42 21 -11 22 -28 2 -28 -8 0 -15 7 -15 15 0 8 -11 17 -24 21 -15 3 -29 17 -35 35 -12 34 -17 36 -24 9z"/> <path d="M7605 2771 c-7 -12 12 -24 25 -16 11 7 4 25 -10 25 -5 0 -11 -4 -15 -9z"/> <path d="M802 2741 c2 -7 7 -12 11 -12 12 1 9 15 -3 20 -7 2 -11 -2 -8 -8z"/> <path d="M1340 2734 c0 -9 5 -14 12 -12 18 6 21 28 4 28 -9 0 -16 -7 -16 -16z"/> <path d="M1664 2725 c-8 -21 2 -32 36 -38 32 -7 60 0 60 14 0 9 -64 39 -82 39 -5 0 -11 -7 -14 -15z"/> <path d="M1120 2720 c-13 -9 -12 -12 4 -25 25 -19 72 -19 79 0 7 17 2 21 -38 29 -16 3 -37 1 -45 -4z"/> <path d="M1550 2681 c0 -12 6 -21 16 -21 9 0 14 7 12 17 -5 25 -28 28 -28 4z"/> <path d="M6890 2681 c0 -12 6 -21 16 -21 9 0 14 7 12 17 -5 25 -28 28 -28 4z"/> <path d="M1010 2675 c0 -8 7 -15 15 -15 8 0 15 7 15 15 0 8 -7 15 -15 15 -8 0 -15 -7 -15 -15z"/> <path d="M1737 2664 c-11 -11 -8 -44 3 -44 15 0 24 30 13 41 -5 5 -12 6 -16 3z"/> <path d="M1588 2655 c-11 -11 4 -79 20 -91 23 -17 5 -34 -31 -31 -26 2 -33 -2 -35 -21 -7 -46 -82 -54 -82 -8 0 12 7 31 15 42 17 23 19 50 3 60 -17 11 -78 -61 -78 -93 0 -15 -11 -38 -26 -54 -24 -25 -25 -30 -14 -63 10 -31 16 -36 42 -36 16 0 43 -9 59 -21 25 -18 29 -27 29 -70 0 -43 3 -49 20 -49 24 0 90 26 90 35 0 16 -42 64 -61 70 -27 9 -19 30 12 30 19 0 25 6 29 30 3 17 14 47 23 68 10 21 22 66 27 100 5 34 10 71 12 82 2 15 -3 21 -22 23 -14 2 -29 0 -32 -3z"/> <path d="M7036 2621 c-3 -5 0 -13 7 -19 15 -13 42 1 33 17 -9 13 -33 15 -40 2z"/> <path d="M7136 2593 c-11 -11 -6 -23 9 -23 8 0 15 4 15 9 0 13 -16 22 -24 14z"/> <path d="M7953 2543 c-19 -7 -16 -38 6 -57 11 -10 21 -28 23 -40 2 -13 10 -21 23 -21 13 0 19 5 16 15 -2 8 -3 28 -2 44 2 45 -30 74 -66 59z"/> <path d="M7722 2495 c-16 -12 -22 -25 -20 -43 3 -25 7 -27 59 -30 50 -3 57 -1 62 18 5 18 9 19 33 10 34 -13 54 -6 54 19 0 27 -5 29 -91 36 -60 5 -78 3 -97 -10z"/> <path d="M1795 2450 c-7 -12 2 -30 16 -30 12 0 12 27 0 35 -5 3 -12 1 -16 -5z"/> <path d="M6977 2333 c-12 -11 -8 -43 6 -43 22 0 38 16 31 33 -6 17 -25 22 -37 10z"/> <path d="M6800 2315 c0 -8 5 -15 10 -15 6 0 10 7 10 15 0 8 -4 15 -10 15 -5 0 -10 -7 -10 -15z"/> <path d="M6650 2172 c0 -17 47 -52 68 -52 17 0 22 6 22 24 0 13 -7 27 -16 30 -23 9 -74 7 -74 -2z"/> <path d="M1610 2151 c-5 -11 -22 -21 -37 -23 -37 -4 -37 -32 -1 -36 16 -2 34 4 46 16 11 11 25 21 33 24 17 6 4 38 -15 38 -9 0 -20 -9 -26 -19z"/> <path d="M2307 2154 c-14 -14 -7 -35 11 -32 9 2 17 10 17 17 0 16 -18 25 -28 15z"/> <path d="M6505 2109 c-4 -6 2 -13 14 -16 12 -3 21 -9 21 -14 0 -18 40 -9 50 11 9 16 8 22 -5 26 -8 4 -22 1 -29 -5 -10 -8 -16 -9 -21 -1 -8 13 -22 13 -30 -1z"/> <path d="M2241 2049 c-11 -12 -24 -19 -29 -15 -14 8 -46 -19 -38 -32 12 -19 55 -14 68 8 7 11 20 20 30 20 23 0 34 20 17 31 -20 13 -26 11 -48 -12z"/> <path d="M2420 2015 c0 -8 7 -15 15 -15 8 0 15 7 15 15 0 8 -7 15 -15 15 -8 0 -15 -7 -15 -15z"/> <path d="M7545 2021 c-7 -12 12 -24 25 -16 11 7 4 25 -10 25 -5 0 -11 -4 -15 -9z"/> <path d="M6626 2004 c-4 -10 1 -25 11 -36 10 -11 17 -36 18 -56 0 -48 27 -55 45 -12 7 17 18 34 24 38 15 9 36 49 30 55 -11 11 -44 -7 -44 -24 0 -11 -7 -19 -15 -19 -10 0 -15 11 -15 35 0 30 -3 35 -24 35 -13 0 -27 -7 -30 -16z"/> <path d="M7864 2005 c-9 -23 5 -35 42 -35 41 0 46 21 9 38 -34 16 -44 15 -51 -3z"/> <path d="M6560 1966 c0 -25 7 -40 23 -51 21 -15 22 -14 25 6 5 28 -17 79 -34 79 -9 0 -14 -12 -14 -34z"/> <path d="M7762 1966 c1 -10 8 -17 13 -17 15 1 12 24 -3 29 -9 3 -13 -2 -10 -12z"/> <path d="M6260 1930 c0 -14 7 -20 23 -20 30 0 40 10 26 27 -18 20 -49 16 -49 -7z"/> <path d="M2394 1915 c-8 -13 -14 -32 -12 -42 5 -27 59 -29 89 -4 l24 20 -27 25 c-34 32 -53 33 -74 1z"/> <path d="M6360 1856 c0 -9 7 -16 16 -16 17 0 14 22 -4 28 -7 2 -12 -3 -12 -12z"/> <path d="M6675 1849 c-8 -12 33 -59 52 -59 20 0 16 48 -6 60 -25 13 -38 13 -46 -1z"/> <path d="M2785 1790 c-4 -6 -3 -16 3 -22 6 -6 12 -6 17 2 4 6 3 16 -3 22 -6 6 -12 6 -17 -2z"/> <path d="M2486 1775 c-11 -8 -28 -15 -37 -15 -10 0 -21 -5 -24 -10 -9 -15 14 -40 36 -40 20 0 79 52 79 70 0 15 -32 12 -54 -5z"/> <path d="M6250 1660 c-22 -22 -27 -65 -8 -76 15 -10 48 32 48 62 0 32 -16 38 -40 14z"/> <path d="M2917 1634 c-13 -13 5 -24 39 -24 24 0 34 5 34 15 0 10 -10 15 -33 15 -19 0 -37 -3 -40 -6z"/> <path d="M3199 1610 c-11 -31 -23 -38 -35 -19 -10 16 -28 -6 -21 -25 4 -9 15 -16 25 -16 11 0 25 -7 32 -15 14 -17 30 -11 30 12 0 9 7 25 17 35 15 17 15 19 -2 38 -25 27 -34 25 -46 -10z"/> <path d="M7074 1629 c-9 -16 28 -50 50 -47 12 2 21 9 21 16 0 18 -62 45 -71 31z"/> <path d="M2724 1506 c-4 -10 -2 -22 4 -28 8 -8 13 -7 18 6 4 10 2 22 -4 28 -8 8 -13 7 -18 -6z"/> <path d="M6265 1510 c-3 -6 1 -13 10 -16 19 -8 30 0 20 15 -8 14 -22 14 -30 1z"/> <path d="M3234 1496 c-4 -10 -2 -22 4 -28 8 -8 13 -7 18 6 4 10 2 22 -4 28 -8 8 -13 7 -18 -6z"/> <path d="M5905 1451 c-7 -12 12 -24 25 -16 11 7 4 25 -10 25 -5 0 -11 -4 -15 -9z"/> <path d="M5550 1430 c0 -19 3 -21 12 -12 9 9 9 15 0 24 -9 9 -12 7 -12 -12z"/> <path d="M2716 1421 c-9 -14 4 -41 21 -41 9 0 13 8 11 22 -3 23 -23 35 -32 19z"/> <path d="M5454 1395 c-4 -8 -1 -22 6 -30 7 -8 15 -29 19 -47 4 -17 12 -33 19 -36 19 -6 15 65 -5 99 -19 32 -31 36 -39 14z"/> <path d="M5565 1379 c-9 -28 20 -63 30 -36 9 21 3 49 -12 54 -6 2 -14 -6 -18 -18z"/> <path d="M2987 1333 c-12 -12 -7 -20 20 -32 29 -14 49 -2 40 23 -6 16 -48 22 -60 9z"/> <path d="M5654 1298 c-7 -11 40 -83 76 -115 26 -24 60 -30 60 -12 0 6 -9 18 -19 27 -11 10 -22 31 -26 48 -5 27 -3 32 17 37 12 4 19 9 16 12 -10 11 -118 14 -124 3z"/> <path d="M2875 1239 c-4 -5 1 -19 10 -29 22 -24 66 -35 76 -19 11 18 3 27 -38 44 -42 18 -40 18 -48 4z"/> <path d="M5555 1210 c-10 -11 -23 -20 -28 -20 -5 0 -16 -8 -23 -17 -11 -15 -15 -15 -23 -5 -12 19 -45 11 -49 -11 -4 -19 23 -67 37 -67 4 0 12 9 17 20 8 19 11 19 32 5 12 -9 22 -26 22 -38 1 -22 62 -97 80 -97 18 0 21 21 6 52 -9 18 -16 47 -15 63 0 51 -15 128 -27 132 -6 2 -19 -6 -29 -17z"/> <path d="M5073 1163 c-20 -7 -16 -23 13 -49 21 -20 32 -23 67 -18 48 7 62 17 52 34 -5 8 -20 10 -41 7 -27 -5 -36 -2 -44 14 -11 19 -23 22 -47 12z"/> <path d="M5688 1128 c-8 -22 4 -58 19 -58 10 0 13 9 11 32 -3 32 -23 49 -30 26z"/> <path d="M3020 1110 c0 -15 5 -20 18 -18 9 2 17 10 17 18 0 8 -8 16 -17 18 -13 2 -18 -3 -18 -18z"/> <path d="M5757 1053 c-4 -3 -7 -15 -7 -25 0 -23 38 -25 47 -2 8 21 -24 43 -40 27z"/> <path d="M5901 1007 c-9 -11 -8 -17 4 -27 12 -10 16 -9 21 5 9 23 -10 40 -25 22z"/> <path d="M2593 983 c-19 -7 -15 -30 6 -36 26 -6 45 7 38 27 -6 16 -21 19 -44 9z"/> <path d="M5730 945 c0 -19 5 -25 23 -25 13 0 28 -5 35 -12 9 -9 12 -8 12 8 -1 28 -24 54 -49 54 -16 0 -21 -6 -21 -25z"/> <path d="M5682 894 c-12 -8 -22 -22 -22 -31 0 -20 76 -96 89 -89 12 8 3 42 -15 57 -8 6 -14 27 -14 45 0 38 -6 41 -38 18z"/> <path d="M5570 871 c0 -25 19 -38 31 -20 12 19 6 33 -14 37 -11 2 -17 -3 -17 -17z"/> <path d="M4255 720 l-7 -40 -49 0 c-44 0 -50 -3 -64 -30 -15 -29 -18 -30 -80 -30 -35 0 -67 -5 -70 -11 -4 -6 3 -21 15 -34 18 -19 20 -30 15 -67 -8 -52 8 -71 52 -66 21 2 29 9 31 26 3 19 8 23 27 18 29 -7 85 41 85 74 0 12 9 33 20 47 11 14 20 31 20 38 0 7 7 18 15 25 16 13 21 90 6 90 -5 0 -12 -18 -16 -40z"/> <path d="M3350 715 c0 -14 9 -30 20 -37 11 -7 20 -21 20 -30 0 -10 5 -18 11 -18 6 0 8 8 4 19 -3 11 -1 22 5 26 26 16 -5 65 -41 65 -14 0 -19 -7 -19 -25z"/> <path d="M4135 730 c-3 -5 0 -13 9 -16 21 -8 71 -1 71 11 0 14 -72 19 -80 5z"/> <path d="M4016 713 c-11 -11 -6 -23 9 -23 8 0 15 4 15 9 0 13 -16 22 -24 14z"/> <path d="M5057 703 c-8 -8 54 -73 69 -73 19 0 76 58 69 70 -9 15 -42 12 -49 -5 -3 -8 -17 -15 -31 -15 -16 0 -25 6 -25 15 0 15 -21 21 -33 8z"/> <path d="M4494 605 c-9 -23 6 -37 34 -31 15 3 34 2 42 -4 13 -8 13 -13 -2 -42 -28 -55 -27 -72 6 -78 41 -7 44 -28 7 -41 l-30 -11 21 -29 c13 -17 37 -33 60 -39 20 -6 40 -15 43 -20 3 -6 22 -10 40 -10 26 0 39 6 52 26 13 21 22 25 45 20 15 -3 28 -4 28 -1 0 13 -96 65 -121 65 -22 0 -34 8 -49 33 -26 41 -25 46 5 57 34 13 32 23 -17 61 -24 19 -47 39 -51 46 -12 19 -106 17 -113 -2z"/> <path d="M3600 575 c0 -9 9 -15 24 -15 13 0 27 -7 30 -16 3 -8 11 -12 16 -9 14 9 -30 55 -52 55 -10 0 -18 -7 -18 -15z"/> <path d="M5185 581 c-6 -11 9 -23 19 -14 9 9 7 23 -3 23 -6 0 -12 -4 -16 -9z"/> <path d="M4325 520 c-3 -5 0 -18 7 -29 22 -36 79 -34 65 2 -7 18 -64 39 -72 27z"/> <path d="M5632 456 c1 -10 8 -17 13 -17 15 1 12 24 -3 29 -9 3 -13 -2 -10 -12z"/> <path d="M3774 447 c-8 -21 2 -35 16 -21 5 5 6 15 0 24 -8 12 -10 12 -16 -3z"/> </g> </svg>