<?xml version="1.0" encoding="UTF-8"?>
<svg id="Outline" xmlns="http://www.w3.org/2000/svg" version="1.1" viewBox="0 0 64 64" fill="#2ECAA0">
  <!-- Generator: Adobe Illustrator 29.5.1, SVG Export Plug-In . SVG Version: 2.1.0 Build 141)  -->
  <path d="M52.969,51.17c-.785-.65-1.664-1.163-2.612-1.524-.518-.196-1.094.062-1.29.579s.062,1.094.579,1.291c.742.283,1.432.685,2.045,1.193l3.67,3.06c.422.352,1.059.292,1.408-.127.354-.424.297-1.055-.127-1.409l-3.673-3.062Z"/>
  <path d="M45.891,49.07c-1.08.12-2.12.43-3.11.92l-2.84,1.42c-2.84,1.42-6.25.86-8.49-1.38l-.64-.64c-1.4-1.4-3.04-2.49-4.87-3.26-.19-.07-.39-.13-.58-.2l-.51-3.72c.96.51,2.03.79,3.15.79,1.46,0,2.85-.47,4-1.34.51.38,1.07.69,1.65.91.52.19,1.1-.07,1.29-.59s-.07-1.1-.59-1.29c-.61-.22-1.17-.59-1.64-1.06-.38-.37-1.04-.37-1.42,0-.88.88-2.05,1.37-3.29,1.37s-2.41-.49-3.29-1.37c-.07-.06-.14-.1-.22-.14l-1.36-10.09c.93-.06,1.86-.05,2.79.06.16.01.33-.01.48-.07l.39-.15c2.11-.85,4.44-1.22,6.71-1.07l1.39.09c.48.03.88-.27,1.02-.71.13-.45-.06-.93-.46-1.16l-14.22-8.17c-.39-.23-.89-.16-1.21.16l-11.55,11.65c-.32.33-.38.84-.13,1.23.18.3.51.47.84.47.11,0,.22-.02.33-.05l1.31-.46c2.16-.74,4.49-.99,6.76-.74l.41.04c.16.02.33,0,.48-.06.87-.35,1.77-.61,2.68-.79l1.42,10.55c-.76.51-1.64.78-2.57.78-1.24,0-2.41-.49-3.29-1.37-.38-.37-1.04-.37-1.42,0-.88.88-2.05,1.37-3.29,1.37s-2.41-.49-3.29-1.37c-.39-.39-1.03-.39-1.42,0s-.39,1.03,0,1.42c1.26,1.26,2.93,1.95,4.71,1.95,1.46,0,2.85-.47,4-1.34,1.15.87,2.54,1.34,4,1.34,1.01,0,1.97-.24,2.85-.66l.41,2.98c-1.01-.21-2.03-.32-3.06-.32-4.83,0-9.39,2.35-12.21,6.28l-.81,1.14c-.31.45-.21,1.08.24,1.4.45.31,1.08.21,1.4-.24l.8-1.14c2.44-3.41,6.39-5.44,10.58-5.44,1.7,0,3.38.33,4.97.98,1.59.66,3.01,1.61,4.22,2.83l.64.64c1.8,1.79,4.19,2.74,6.62,2.74,1.42,0,2.85-.32,4.19-.99l2.83-1.42c.78-.39,1.6-.63,2.44-.73.55-.06.95-.55.88-1.1-.06-.55-.56-.95-1.1-.88ZM31.101,26.2c-1.58.13-3.14.48-4.62,1.02l-3.08-5.45,7.7,4.43ZM17.341,28.46c-1.57-.14-3.17-.06-4.72.23l6.25-6.31-1.53,6.08ZM19.521,28.01l1.57-6.26,3.17,5.62c-1.6-.01-3.2.21-4.74.64Z"/>
  <path d="M56.708,41.047c.391-.391.391-1.023,0-1.414s-1.023-.391-1.414,0c-1.816,1.815-4.77,1.815-6.586,0-.375-.375-1.039-.375-1.414,0-.882.882-2.051,1.367-3.293,1.367s-2.411-.485-3.293-1.367c-.188-.188-.441-.293-.707-.293s-.52.105-.707.293c-.471.47-1.037.836-1.64,1.059-.519.191-.783.767-.591,1.285.19.519.768.785,1.284.591.584-.216,1.144-.523,1.652-.906,1.148.868,2.539,1.338,4.001,1.338s2.853-.47,4.001-1.338c2.605,1.96,6.334,1.756,8.706-.615Z"/>
  <path d="M37.876,19.957c-.365.25-.522.712-.386,1.134.138.422.555.734.979.69.817-.023,1.518.335,1.984.977.467.643.582,1.44.315,2.189-.148.417-.004.883.354,1.144.359.261.847.252,1.198-.017.629-.484,1.422-.62,2.178-.376.756.246,1.318.823,1.543,1.585.125.425.516.717.959.717s.834-.292.959-.717c.225-.762.787-1.34,1.543-1.585.756-.244,1.55-.107,2.178.376.351.269.838.277,1.198.017.358-.261.503-.727.354-1.144-.267-.749-.151-1.546.315-2.189.466-.642,1.155-1.002,1.984-.977.457.039.841-.269.979-.69.137-.422-.021-.883-.386-1.134-.655-.449-1.031-1.162-1.031-1.957s.376-1.507,1.031-1.957c.365-.25.522-.712.386-1.134-.138-.421-.517-.711-.979-.69-.825.008-1.518-.335-1.984-.977-.467-.643-.582-1.44-.315-2.189.148-.417.004-.883-.354-1.144-.36-.262-.848-.255-1.198.017-.628.485-1.422.622-2.178.376-.756-.246-1.318-.823-1.543-1.585-.125-.425-.516-.717-.959-.717s-.834.292-.959.717c-.225.762-.787,1.34-1.543,1.585-.756.245-1.549.109-2.178-.376-.352-.271-.839-.278-1.198-.017-.358.261-.503.727-.354,1.144.267.749.151,1.546-.315,2.189-.467.642-1.17.982-1.984.977-.429-.026-.841.269-.979.69-.137.422.021.883.386,1.134.655.449,1.031,1.162,1.031,1.957s-.376,1.507-1.031,1.957ZM40.333,15.833c.683-.308,1.284-.791,1.738-1.415.453-.625.727-1.346.809-2.091.731.152,1.503.116,2.236-.123.734-.239,1.381-.662,1.885-1.217.504.555,1.15.978,1.885,1.217.732.238,1.504.274,2.236.123.082.745.355,1.466.809,2.091.454.624,1.056,1.107,1.738,1.415-.371.65-.574,1.395-.574,2.167s.203,1.516.574,2.167c-.683.308-1.284.791-1.738,1.415-.453.625-.727,1.346-.809,2.091-.731-.152-1.504-.116-2.236.123-.734.239-1.381.662-1.885,1.217-.504-.555-1.15-.978-1.885-1.217-.441-.144-.896-.214-1.35-.214-.299,0-.596.031-.887.091-.082-.745-.355-1.466-.809-2.091-.454-.624-1.056-1.107-1.738-1.415.371-.65.574-1.395.574-2.167s-.203-1.516-.574-2.167Z"/>
  <path d="M47.001,22c2.206,0,4-1.794,4-4s-1.794-4-4-4-4,1.794-4,4,1.794,4,4,4ZM47.001,16c1.103,0,2,.897,2,2s-.897,2-2,2-2-.897-2-2,.897-2,2-2Z"/>
  <circle cx="12.001" cy="55" r="1"/>
  <circle cx="15.001" cy="52" r="1"/>
  <circle cx="18.001" cy="55" r="1"/>
  <circle cx="20.001" cy="50" r="1"/>
</svg>