<?xml version="1.0" standalone="no"?>
<!DOCTYPE svg PUBLIC "-//W3C//DTD SVG 1.1//EN" "http://www.w3.org/Graphics/SVG/1.1/DTD/svg11.dtd" >
<svg xmlns="http://www.w3.org/2000/svg">
<metadata>Generated by IcoMoon</metadata>
<defs>
<font id="icomoon" horiz-adv-x="1024">
<font-face units-per-em="1024" ascent="960" descent="-64" />
<missing-glyph horiz-adv-x="1024" />
<glyph unicode="&#x20;" horiz-adv-x="512" d="" />
<glyph unicode="&#xe900;" glyph-name="phone-call-2" d="M809.255 325.657c-20.967 21.832-46.252 33.501-73.052 33.501-26.583 0-52.085-11.457-73.912-33.284l-68.297-68.076c-5.616 3.023-11.235 5.833-16.638 8.643-7.782 3.891-15.131 7.565-21.398 11.457-63.971 40.628-122.11 93.577-177.869 162.091-27.015 34.148-45.169 62.89-58.353 92.066 17.722 16.212 34.147 33.068 50.14 49.277 6.051 6.051 12.103 12.319 18.154 18.37 45.387 45.386 45.387 104.171 0 149.557l-59.001 59.001c-6.7 6.7-13.616 13.616-20.099 20.532-12.968 13.4-26.583 27.231-40.631 40.199-20.964 20.747-46.034 31.77-72.401 31.77s-51.869-11.022-73.481-31.77c-0.216-0.216-0.216-0.216-0.433-0.433l-73.481-74.13c-27.664-27.664-43.441-61.379-46.898-100.497-5.187-63.107 13.4-121.893 27.664-160.361 35.012-94.446 87.313-181.977 165.333-275.771 94.661-113.033 208.558-202.293 338.665-265.183 49.705-23.56 116.056-51.438 190.185-56.193 4.538-0.217 9.294-0.43 13.615-0.43 49.926 0 91.853 17.936 124.703 53.596 0.217 0.434 0.651 0.647 0.864 1.081 11.239 13.615 24.207 25.936 37.822 39.117 9.294 8.864 18.805 18.153 28.094 27.881 21.398 22.262 32.637 48.194 32.637 74.777 0 26.8-11.457 52.519-33.284 74.129l-118.649 119.083zM886.624 98.083c-0.217 0-0.217-0.217 0 0-8.43-9.077-17.072-17.289-26.366-26.37-14.049-13.398-28.312-27.447-41.714-43.221-21.828-23.343-47.546-34.365-81.261-34.365-3.24 0-6.701 0-9.941 0.217-64.188 4.104-123.838 29.176-168.575 50.573-122.327 59.216-229.738 143.286-318.997 249.836-73.698 88.826-122.973 170.955-155.608 259.131-20.099 53.814-27.447 95.742-24.206 135.293 2.161 25.286 11.887 46.25 29.825 64.188l73.698 73.698c10.59 9.942 21.828 15.345 32.85 15.345 13.616 0 24.638-8.213 31.554-15.129 0.216-0.216 0.432-0.433 0.648-0.648 13.183-12.319 25.718-25.070 38.902-38.686 6.699-6.916 13.616-13.832 20.532-20.964l59.001-59.001c22.909-22.909 22.909-44.089 0-66.998-6.268-6.268-12.319-12.535-18.586-18.586-18.154-18.586-35.444-35.876-54.247-52.734-0.433-0.432-0.865-0.648-1.081-1.081-18.586-18.586-15.129-36.739-11.238-49.060 0.216-0.647 0.432-1.298 0.648-1.946 15.344-37.171 36.957-72.184 69.807-113.897l0.216-0.213c59.65-73.482 122.541-130.757 191.915-174.629 8.864-5.62 17.94-10.158 26.583-14.479 7.782-3.891 15.131-7.565 21.398-11.457 0.864-0.43 1.729-1.077 2.593-1.511 7.348-3.674 14.266-5.403 21.398-5.403 17.936 0 29.176 11.239 32.85 14.914l73.912 73.912c7.348 7.348 19.022 16.208 32.637 16.208 13.398 0 24.42-8.425 31.121-15.774 0.217-0.217 0.217-0.217 0.43-0.434l119.083-119.083c22.262-22.045 22.262-44.737 0.217-67.645zM553.366 716.361c56.623-9.509 108.061-36.309 149.123-77.372 41.066-41.063 67.65-92.501 77.373-149.124 2.376-14.266 14.696-24.207 28.746-24.207 1.729 0 3.24 0.217 4.968 0.434 15.995 2.593 26.583 17.719 23.99 33.714-11.67 68.511-44.089 130.97-93.581 180.462s-111.952 81.91-180.462 93.581c-15.995 2.593-30.904-7.997-33.714-23.774s7.565-31.121 23.556-33.715zM1022.771 508.293c-19.235 112.814-72.401 215.473-154.096 297.167-81.691 81.694-184.349 134.86-297.165 154.095-15.778 2.81-30.691-7.997-33.501-23.773-2.593-15.993 7.995-30.905 23.99-33.715 100.712-17.074 192.565-64.836 265.613-137.67 73.052-73.049 120.599-164.901 137.671-265.615 2.376-14.262 14.696-24.207 28.746-24.207 1.729 0 3.24 0.217 4.968 0.434 15.778 2.376 26.583 17.506 23.773 33.284z" />
<glyph unicode="&#xe901;" glyph-name="feedback-1" d="M400.574 745.631l-58.68 57.198c-4.179 4.070-7.136 9.229-8.538 14.893-1.399 5.664-1.185 11.607 0.617 17.156s5.122 10.483 9.584 14.243c4.462 3.76 9.884 6.196 15.66 7.033l81.115 11.78 36.259 73.504c2.879 4.874 6.978 8.914 11.895 11.72s10.479 4.282 16.14 4.282c5.661 0 11.225-1.476 16.14-4.282 4.918-2.806 9.019-6.845 11.898-11.72l36.254-73.501 81.115-11.78c5.776-0.837 11.201-3.273 15.66-7.033 4.462-3.76 7.782-8.694 9.584-14.243s2.016-11.492 0.617-17.156c-1.402-5.664-4.359-10.823-8.538-14.894l-58.68-57.198 13.858-80.792c0.987-5.751 0.346-11.661-1.851-17.064-2.199-5.405-5.864-10.084-10.584-13.514-4.72-3.428-10.303-5.466-16.123-5.886-5.817-0.419-11.637 0.797-16.801 3.513l-72.55 38.151-72.553-38.154c-5.164-2.716-10.984-3.935-16.801-3.516-5.82 0.419-11.403 2.46-16.123 5.888s-8.385 8.109-10.584 13.512c-2.197 5.405-2.838 11.315-1.851 17.064l13.858 80.794zM6.060 742.484c1.804 5.548 5.124 10.48 9.585 14.24s9.884 6.197 15.657 7.036l81.103 11.783 36.291 73.498c2.875 4.877 6.973 8.919 11.888 11.727s10.479 4.285 16.14 4.285c5.661 0 11.225-1.477 16.14-4.285s9.013-6.851 11.889-11.727l36.257-73.498 81.099-11.783c5.773-0.837 11.196-3.272 15.655-7.030 4.462-3.758 7.78-8.689 9.584-14.236s2.021-11.487 0.624-17.15c-1.397-5.663-4.35-10.821-8.526-14.895l-58.695-57.198 13.858-80.796c0.99-5.749 0.349-11.659-1.846-17.062-2.197-5.405-5.859-10.086-10.576-13.517-4.718-3.428-10.301-5.471-16.121-5.893-5.817-0.422-11.637 0.792-16.798 3.506l-72.539 38.132-72.554-38.132c-5.162-2.716-10.982-3.933-16.8-3.513s-11.403 2.458-16.123 5.886c-4.72 3.43-8.386 8.112-10.583 13.514s-2.839 11.315-1.852 17.064l13.856 80.796-58.683 57.198c-4.182 4.069-7.14 9.228-8.542 14.892s-1.189 11.608 0.612 17.157zM687.143 763.765l81.098 11.784 36.257 73.498c2.582 5.23 6.576 9.634 11.527 12.713 4.954 3.079 10.669 4.711 16.501 4.711 5.834 0 11.549-1.632 16.503-4.711 4.952-3.079 8.945-7.483 11.527-12.713l36.293-73.498 81.103-11.784c5.773-0.837 11.196-3.274 15.657-7.034 4.459-3.76 7.78-8.693 9.582-14.242s2.016-11.491 0.617-17.154c-1.399-5.663-4.357-10.822-8.536-14.894l-58.692-57.2 13.861-80.796c0.987-5.749 0.344-11.661-1.853-17.064s-5.864-10.084-10.584-13.512c-4.718-3.43-10.303-5.469-16.123-5.888-5.817-0.419-11.637 0.797-16.798 3.513l-72.555 38.132-72.538-38.132c-5.161-2.716-10.981-3.933-16.801-3.513-5.817 0.419-11.403 2.458-16.123 5.888-4.718 3.428-8.385 8.109-10.581 13.512-2.199 5.403-2.84 11.315-1.853 17.064l13.858 80.796-58.695 57.198c-4.176 4.072-7.129 9.231-8.526 14.894-1.395 5.663-1.18 11.604 0.624 17.15s5.122 10.478 9.584 14.236c4.459 3.758 9.891 6.209 15.665 7.046zM192.069 490.030h625.117c24.859-0.027 48.694-9.916 66.272-27.494s27.468-41.413 27.494-66.275v-250.046c-0.027-24.859-9.916-48.694-27.494-66.272s-41.413-27.468-66.272-27.494h-205.848l-84.612-84.609c-2.901-2.904-6.346-5.208-10.138-6.778-3.794-1.57-7.856-2.38-11.961-2.38-4.103 0-8.168 0.809-11.959 2.38-3.794 1.57-7.236 3.874-10.138 6.778l-84.614 84.609h-205.847c-24.86 0.027-48.695 9.916-66.274 27.494s-27.467 41.413-27.494 66.272v250.046c0.027 24.861 9.915 48.696 27.494 66.275s41.413 27.468 66.274 27.494zM254.581 177.471h500.092c8.29 0 16.24 3.294 22.101 9.155s9.155 13.812 9.155 22.101c0 8.29-3.294 16.24-9.155 22.101s-13.812 9.155-22.101 9.155h-500.092c-8.29 0-16.24-3.294-22.101-9.155s-9.155-13.812-9.155-22.101c0-8.29 3.293-16.24 9.155-22.101s13.812-9.155 22.101-9.155zM254.581 302.494h500.092c8.29 0 16.24 3.294 22.101 9.155s9.155 13.812 9.155 22.101c0 8.29-3.294 16.24-9.155 22.101s-13.812 9.155-22.101 9.155h-500.092c-8.29 0-16.24-3.294-22.101-9.155s-9.155-13.812-9.155-22.101c0-8.29 3.293-16.24 9.155-22.101s13.812-9.155 22.101-9.155z" />
<glyph unicode="&#xe902;" glyph-name="video-2" d="M217.829 937.422c-92.32 52.956-167.166 9.574-167.166-96.819v-785.132c0-106.496 74.847-149.823 167.166-96.919l686.243 393.556c92.353 52.974 92.353 138.8 0 191.765l-686.243 393.548z" />
<glyph unicode="&#xe903;" glyph-name="bulb-1" d="M364.58 59.025c0-53.585 43.842-97.425 97.428-97.425h97.425c53.585 0 97.425 43.839 97.425 97.425v89.675h-292.277v-89.675zM851.739 594.86c0-112.029-53.661-214.329-141.318-272.8-16.998-14.541-30.413-32.873-39.526-52.944-9.216-20.070-14.029-42.086-14.029-64h-292.259c0 43.93-19.558 87.757-53.658 116.944-97.386 68.198-150.943 185.142-136.3 316.627 14.541 151.046 141.215 277.718 292.258 292.259 209.414 29.288 384.831-131.485 384.831-336.086z" />
<glyph unicode="&#xe904;" glyph-name="group--1" d="M735.275 306.005c-7.091 48.191-31.223 92.245-68.016 124.169-36.79 31.923-83.806 49.601-132.517 49.826h-45.397c-48.711-0.225-95.727-17.903-132.517-49.826-36.793-31.923-60.922-75.978-68.016-124.169l-21.76-152.149c-0.695-4.918-0.236-9.93 1.342-14.64s4.229-8.988 7.746-12.496c8.533-8.533 60.885-52.053 235.946-52.053s227.285 43.349 235.947 52.053c3.519 3.507 6.17 7.785 7.745 12.496 1.579 4.71 2.039 9.722 1.343 14.64l-21.845 152.149zM322.56 456.533c-41.235-38.013-68.066-89.111-75.946-144.64l-15.787-109.227c-126.72 0.853-165.12 46.933-171.52 56.32-2.474 3.41-4.239 7.282-5.192 11.386-0.953 4.102-1.073 8.357-0.355 12.507l9.387 52.907c4.891 27.651 16.377 53.714 33.484 75.981s39.332 40.078 64.788 51.928c25.457 11.847 53.396 17.385 81.447 16.137 28.052-1.246 55.388-9.239 79.694-23.299zM970.24 282.88c0.717-4.15 0.597-8.405-0.356-12.507-0.953-4.105-2.719-7.976-5.191-11.386-6.4-9.387-44.8-55.467-171.52-56.32l-15.787 109.227c-7.882 55.529-34.711 106.627-75.947 144.64 24.306 14.060 51.641 22.053 79.693 23.299 28.052 1.249 55.99-4.289 81.448-16.137 25.458-11.85 47.681-29.662 64.788-51.928s28.592-48.33 33.485-75.981l9.387-52.907zM329.813 550.4c-10.741-15.232-24.997-27.645-41.563-36.19-16.564-8.542-34.946-12.959-53.584-12.877-18.592 0-36.917 4.417-53.466 12.891-16.549 8.471-30.849 20.753-41.719 35.837-10.871 15.081-18.002 32.532-20.806 50.91-2.804 18.381-1.2 37.163 4.679 54.798 5.879 17.638 15.865 33.627 29.136 46.648s29.445 22.702 47.191 28.246c17.746 5.543 36.555 6.791 54.878 3.638s35.633-10.613 50.507-21.768c-4.278-16.73-6.428-33.932-6.4-51.2 0.031-39.131 10.806-77.503 31.147-110.933zM906.667 618.667c0.011-15.411-3.015-30.674-8.909-44.914-5.891-14.242-14.535-27.182-25.432-38.079s-23.836-19.538-38.076-25.432c-14.242-5.894-29.505-8.92-44.917-8.909-18.637-0.082-37.018 4.335-53.584 12.877-16.563 8.545-30.822 20.958-41.563 36.19 20.341 33.431 31.115 71.802 31.147 110.933 0.028 17.268-2.122 34.47-6.4 51.2 17.434 13.074 38.161 21.036 59.864 22.992 21.7 1.957 43.52-2.168 63.010-11.913s35.88-24.724 47.337-43.26c11.455-18.536 17.522-39.894 17.522-61.686zM512 501.333c88.366 0 160 71.634 160 160s-71.634 160-160 160c-88.366 0-160-71.634-160-160s71.634-160 160-160z" />
<glyph unicode="&#xe905;" glyph-name="pin-2" d="M512 960c-101.802-0.135-199.395-40.635-271.38-112.62s-112.485-169.578-112.62-271.38c0-275.679 357.761-620.96 372.959-635.519 2.957-2.873 6.917-4.481 11.041-4.481s8.083 1.607 11.041 4.481c15.199 14.559 372.959 359.84 372.959 635.519-0.137 101.802-40.634 199.395-112.621 271.38-71.984 71.985-169.578 112.485-271.379 112.62zM512 399.999c-34.81 0-68.838 10.324-97.78 29.662s-51.502 46.828-64.823 78.988c-13.321 32.16-16.806 67.547-10.015 101.686 6.791 34.143 23.553 65.502 48.167 90.116s55.973 41.376 90.116 48.167c34.14 6.791 69.526 3.306 101.686-10.015s59.65-35.879 78.988-64.823c19.338-28.943 29.662-62.97 29.662-97.78-0.028-46.67-18.581-91.418-51.582-124.419s-77.75-51.554-124.419-51.582z" />
<glyph unicode="&#xe906;" glyph-name="camera--1" d="M875.135 736h-137.407l-15.999 48c-7.712 23.307-22.582 43.586-42.491 57.95s-43.841 22.080-68.39 22.050h-197.697c-24.544 0.019-48.465-7.703-68.368-22.066-19.901-14.363-34.765-34.636-42.48-57.934l-16.031-48h-137.409c-30.984-0.034-60.689-12.357-82.598-34.266s-34.232-51.615-34.266-82.599v-470.399c0.068-30.963 12.406-60.634 34.311-82.516s51.591-34.185 82.553-34.22h726.4c30.963 0.067 60.634 12.407 82.516 34.312s34.185 51.591 34.22 82.551v470.401c-0.067 30.963-12.407 60.634-34.312 82.515s-51.591 34.187-82.553 34.221zM928 148.863c-0.016-14.013-5.592-27.451-15.503-37.36-9.909-9.911-23.347-15.487-37.363-15.503h-726.271c-14.015 0.016-27.452 5.592-37.362 15.503-9.91 9.909-15.485 23.347-15.502 37.36v470.401c0.051 13.994 5.641 27.397 15.547 37.279s23.324 15.441 37.317 15.457h160.481c6.713 0.005 13.255 2.121 18.699 6.050s9.515 9.469 11.636 15.838l23.328 69.984c3.503 10.526 10.232 19.682 19.235 26.167 9 6.485 19.814 9.97 30.909 9.961h197.697c11.1 0.012 21.919-3.476 30.922-9.968s15.729-15.657 19.222-26.192l23.328-69.952c2.121-6.369 6.193-11.909 11.636-15.838s11.986-6.044 18.699-6.050h160.48c14.015-0.016 27.454-5.592 37.363-15.503 9.911-9.909 15.487-23.347 15.503-37.363v-470.272zM512 640c-47.468 0-93.868-14.075-133.336-40.448-39.47-26.371-70.23-63.854-88.395-107.709s-22.918-92.109-13.657-138.666c9.259-46.554 32.119-89.32 65.682-122.883 33.566-33.566 76.328-56.422 122.885-65.684 46.554-9.259 94.812-4.506 138.666 13.657 43.854 18.165 81.335 48.928 107.709 88.395 26.371 39.467 40.448 85.87 40.448 133.338-0.070 63.631-25.376 124.634-70.37 169.628s-106 70.303-169.631 70.37zM512 224c-34.811 0-68.837 10.324-97.781 29.661-28.941 19.34-51.499 46.826-64.822 78.985-13.32 32.162-16.807 67.549-10.014 101.689 6.791 34.142 23.552 65.501 48.166 90.115 24.614 24.616 55.975 41.378 90.115 48.168 34.142 6.791 69.53 3.306 101.689-10.016 32.159-13.32 59.648-35.878 78.985-64.822 19.34-28.941 29.664-62.971 29.664-97.779-0.051-46.665-18.613-91.4-51.607-124.397-32.994-32.994-77.732-51.553-124.394-51.604zM832 544c17.672 0 32 14.328 32 32s-14.328 32-32 32c-17.672 0-32-14.328-32-32s14.328-32 32-32z" />
<glyph unicode="&#xe907;" glyph-name="envelope-1" d="M898.992 837.639h-773.773c-69.072 0-125.219-56.147-125.219-125.219v-528.845c0-69.069 56.147-125.218 125.219-125.218h773.563c69.069 0 125.218 56.149 125.218 125.218v528.633c0.21 69.072-55.933 125.431-125.008 125.431zM967.003 183.575c0-37.501-30.51-68.011-68.011-68.011h-773.773c-37.502 0-68.012 30.51-68.012 68.011v528.633c0 37.502 30.51 68.012 68.012 68.012h773.563c37.501 0 68.011-30.51 68.011-68.012v-528.633h0.21zM645.808 454.557l250.436 224.589c11.657 10.594 12.715 28.603 2.122 40.468-10.598 11.653-28.604 12.712-40.471 2.119l-345.359-309.976-67.377 60.173c-0.212 0.212-0.424 0.424-0.424 0.635-1.483 1.483-2.966 2.755-4.661 4.025l-274.169 245.353c-11.865 10.594-29.875 9.535-40.468-2.33s-9.535-29.875 2.331-40.468l253.405-226.496-252.345-236.245c-11.441-10.803-12.077-28.814-1.271-40.465 5.72-5.934 13.348-9.114 20.976-9.114 6.992 0 13.984 2.543 19.493 7.629l256.159 239.633 69.495-62.077c5.509-4.875 12.289-7.208 19.069-7.208s13.772 2.543 19.069 7.418l71.404 63.985 254.674-241.962c5.507-5.296 12.715-7.839 19.706-7.839 7.629 0 15.041 2.964 20.764 8.897 10.803 11.44 10.382 29.662-1.064 40.471l-251.494 238.783z" />
<glyph unicode="&#xe908;" glyph-name="pin-3" d="M511.998 724.526c-99.307 0-180.101-80.794-180.101-180.101s80.794-180.103 180.101-180.103c99.308 0 180.102 80.796 180.102 180.103s-80.794 180.101-180.102 180.101zM511.998 440.157c-57.494 0-104.269 46.775-104.269 104.269s46.775 104.27 104.269 104.27c57.497 0 104.272-46.776 104.272-104.27s-46.775-104.269-104.272-104.269zM512.001 933.053c-214.296 0-388.639-174.344-388.639-388.639v-10.743c0-108.379 62.136-234.673 184.688-375.371 88.841-102.001 176.44-173.121 180.123-176.096l23.828-19.257 23.828 19.251c3.685 2.98 91.285 74.1 180.125 176.096 122.546 140.703 184.686 266.996 184.686 375.374v10.743c0 214.297-174.344 388.641-388.64 388.641zM824.81 533.668c0-183.153-235.994-404.865-312.81-472.174-76.837 67.331-312.808 289.032-312.808 472.174v10.743c0 172.481 140.326 312.808 312.808 312.808 172.484 0 312.81-140.326 312.81-312.808v-10.743z" />
<glyph unicode="&#xe909;" glyph-name="video-1" d="M934.446 695.136c-10.854 5.283-22.989 7.362-34.98 5.994s-23.347-6.126-32.732-13.717l-109.353-87.467v18.731c2.504 21.617 0.087 43.522-7.066 64.074-7.158 20.553-18.867 39.221-34.253 54.609-15.391 15.388-34.058 27.098-54.61 34.252s-42.455 9.57-64.072 7.065h-384.003c-21.617 2.505-43.522 0.091-64.074-7.065s-39.221-18.864-54.609-34.252c-15.388-15.388-27.098-34.057-34.253-54.609s-9.57-42.457-7.064-64.074v-341.332c-2.505-21.617-0.091-43.525 7.064-64.077s18.865-39.219 34.253-54.61c15.388-15.386 34.057-27.095 54.609-34.248 20.553-7.158 42.457-9.574 64.074-7.066h384.003c21.617-2.509 43.52-0.092 64.072 7.066 20.552 7.153 39.219 18.862 54.61 34.248 15.386 15.391 27.095 34.058 34.253 54.61 7.153 20.552 9.569 42.46 7.066 64.077v18.729l109.353-87.465c11.279-9.114 25.349-14.085 39.849-14.080 9.646 0.015 19.164 2.186 27.863 6.354 10.9 5.192 20.096 13.373 26.516 23.598 6.426 10.225 9.805 22.062 9.748 34.13v378.797c0.056 12.072-3.323 23.91-9.748 34.132-6.42 10.222-15.616 18.406-26.516 23.596zM693.381 277.345c0-67.287-28.718-96-96-96h-384.003c-67.285 0-96 28.713-96 96v341.332c0 67.285 28.715 96 96 96h384.003c67.282 0 96-28.715 96-96v-341.332zM906.711 258.57l-149.33 119.465v139.949l149.33 119.466v-378.881z" />
<glyph unicode="&#xe90a;" glyph-name="camera-1" d="M864 724.506h-91.279l-34.442 68.886c-27.279 54.556-82.115 88.446-143.109 88.446h-166.339c-60.996 0-115.832-33.89-143.11-88.446l-34.444-68.886h-91.276c-88.224 0-160-71.776-160-160v-390.333c0-88.223 71.776-160 160-160h704c88.223 0 160 71.777 160 160v390.333c0 88.226-71.777 160-160 160zM944 174.172c0-44.114-35.886-80-80-80h-704c-44.112 0-80 35.886-80 80v390.333c0 44.112 35.888 80 80 80h116c15.152 0 29 8.56 35.778 22.112l45.5 90.998c13.638 27.278 41.056 44.224 71.554 44.224h166.338c30.5 0 57.917-16.946 71.557-44.224l45.496-90.998c6.779-13.552 20.623-22.112 35.779-22.112h115.999c44.114 0 80-35.888 80-80v-390.333zM512 607.172c-108.81 0-197.334-88.524-197.334-197.336 0-108.81 88.524-197.33 197.334-197.33s197.335 88.52 197.335 197.33c0 108.814-88.525 197.336-197.335 197.336zM512 292.506c-64.698 0-117.334 52.634-117.334 117.335 0 64.697 52.636 117.333 117.334 117.333 64.696 0 117.335-52.636 117.335-117.333 0-64.701-52.639-117.335-117.335-117.335z" />
<glyph unicode="&#xe90b;" glyph-name="heart-1" d="M512.691-7.030c14.561 0 28.595 5.279 39.532 14.874 41.313 36.173 81.142 70.164 116.28 100.147l0.179 0.159c103.025 87.91 191.99 163.835 253.891 238.623 69.197 83.61 101.427 162.884 101.427 249.485 0 84.141-28.81 161.766-81.126 218.586-52.936 57.492-125.568 89.156-204.549 89.156-59.028 0-113.091-18.687-160.671-55.539-24.018-18.601-45.783-41.367-64.963-67.922-19.184 26.555-40.943 49.32-64.966 67.922-47.584 36.852-101.643 55.539-160.673 55.539-78.971 0-151.615-31.664-204.551-89.156-52.312-56.82-81.117-134.446-81.117-218.586 0-86.602 32.222-165.876 101.418-249.475 61.9-74.798 150.858-150.712 253.867-238.618 35.202-30.034 75.094-64.077 116.498-100.337 10.931-9.58 24.974-14.858 39.523-14.858zM738.324 844.016c62.049 0 119.050-24.797 160.517-69.828 42.081-45.711 65.265-108.898 65.265-177.93 0-72.836-27.034-137.976-87.649-211.213-58.583-70.789-145.725-145.147-246.62-231.25l-0.184-0.154c-35.272-30.1-75.259-64.225-116.874-100.664-41.865 36.506-81.912 70.687-117.255 100.838-100.887 86.098-188.019 160.44-246.604 231.229-60.605 73.237-87.639 138.377-87.639 211.213 0 69.031 23.18 132.219 65.263 177.93 41.46 45.031 98.468 69.828 160.509 69.828 45.454 0 87.186-14.469 124.035-43 32.838-25.438 55.714-57.594 69.125-80.094 6.897-11.571 19.037-18.477 32.478-18.477 13.445 0 25.585 6.906 32.481 18.477 13.404 22.5 36.28 54.656 69.125 80.094 36.849 28.531 78.582 43 124.027 43z" />
<glyph unicode="&#xe90c;" glyph-name="booking-1" d="M784.224 397.942c-97.088 0-175.776-78.688-175.776-175.776s78.688-175.776 175.776-175.776c97.088 0 175.776 78.688 175.776 175.776s-78.688 175.776-175.776 175.776zM862.048 229.654l-85.824-69.12c-5.12-4.128-11.52-6.368-18.048-6.368-1.088 0-2.176 0.064-3.296 0.192-7.648 0.864-14.624 4.768-19.36 10.848l-33.728 43.008c-9.824 12.544-7.616 30.624 4.864 40.448 12.576 9.824 30.592 7.616 40.448-4.864l15.712-20.064 63.104 50.848c12.416 10.016 30.528 7.968 40.512-4.384 9.984-12.416 8.032-30.56-4.384-40.544zM560.448 222.134c0 123.392 100.384 223.776 223.776 223.776 40.992 0 79.328-11.264 112.416-30.592v288.032c0 72.64-58.88 131.52-131.52 131.52h-69.12v14.72c0 16-13.12 28.8-28.8 28.8-16 0-28.8-12.8-28.8-28.8v-14.72h-344.641v14.72c0 16-12.8 28.8-28.8 28.8s-28.8-12.8-28.8-28.8v-14.72h-69.44c-72.64 0-131.52-58.88-131.52-131.52v-471.68c0-72.64 58.88-131.52 131.52-131.52h430.145c-22.944 35.136-36.416 76.992-36.416 121.984zM672.992 568.182c18.368 0 33.248-14.88 33.248-33.248s-14.88-33.248-33.248-33.248c-18.368 0-33.248 14.88-33.248 33.248s14.88 33.248 33.248 33.248zM259.007 320.534c-18.368 0-33.248 14.88-33.248 33.248s14.88 33.248 33.248 33.248c18.368 0 33.248-14.88 33.248-33.248s-14.88-33.248-33.248-33.248zM259.007 501.686c-18.368 0-33.248 14.88-33.248 33.248s14.88 33.248 33.248 33.248c18.368 0 33.248-14.88 33.248-33.248s-14.88-33.248-33.248-33.248zM466.016 320.534c-18.368 0-33.248 14.88-33.248 33.248s14.88 33.248 33.248 33.248c18.368 0 33.248-14.88 33.248-33.248s-14.912-33.248-33.248-33.248zM466.016 501.686c-18.368 0-33.248 14.88-33.248 33.248s14.88 33.248 33.248 33.248c18.368 0 33.248-14.88 33.248-33.248s-14.912-33.248-33.248-33.248z" />
<glyph unicode="&#xe90d;" glyph-name="shield-1" d="M511.99 643.078c-107.584 0-195.108-87.523-195.108-195.1 0-107.587 87.524-195.11 195.108-195.11 107.578 0 195.101 87.523 195.101 195.11 0 107.578-87.523 195.1-195.101 195.1zM627.827 484.72l-139.773-139.773c-5.869-5.869-13.562-8.806-21.251-8.806-7.686 0-15.373 2.931-21.242 8.806l-53.414 53.414c-11.734 11.725-11.734 30.749 0 42.483 11.728 11.734 30.752 11.734 42.486 0l32.17-32.173 118.541 118.531c11.725 11.734 30.749 11.734 42.483 0 11.734-11.725 11.734-30.749 0-42.483zM946.976 682.155l-0.032 0.797c-0.445 9.836-0.742 20.242-0.922 31.82-0.835 56.461-45.718 103.164-102.186 106.32-117.734 6.57-208.813 44.961-286.634 120.812l-0.662 0.633c-25.386 23.273-63.674 23.273-89.062 0l-0.666-0.633c-77.821-75.851-168.898-114.242-286.632-120.82-56.461-3.148-101.351-49.852-102.187-106.32-0.172-11.5-0.477-21.906-0.922-31.812l-0.047-1.852c-2.289-120.054-5.133-269.468 44.852-405.084 27.484-74.579 69.109-139.405 123.711-192.694 62.187-60.688 143.642-108.867 242.093-143.197 3.203-1.117 6.531-2.022 9.923-2.701 4.781-0.954 9.594-1.43 14.406-1.43 4.81 0 9.632 0.477 14.406 1.43 3.389 0.678 6.739 1.594 9.958 2.717 98.336 34.39 179.702 82.595 241.837 143.274 54.576 53.306 96.202 118.147 123.709 192.742 50.173 136.022 47.338 285.718 45.056 405.998zM511.994 192.781c-140.72 0-255.196 114.477-255.196 255.197 0 140.717 114.476 255.193 255.196 255.193 140.71 0 255.194-114.476 255.194-255.193 0-140.72-114.483-255.197-255.194-255.197z" />
<glyph unicode="&#xe90e;" glyph-name="arrow" d="M665.431 499.52c-8.99 53.148-8.99 53.148 118.176 161.035-139.981-12.748-254.355-60.523-341.36-176.377 19.427-8.194 35.224-17.548 51.804-21.851 77.594-22.409 128.316-73.417 149.063-150.814 12.884-50.303 20.19-103.188 17.65-152.818-7.92-95.37-91.19-142.804-178.218-103.403-87.289 37.715-132.926 110.356-153.525 199.807-8.501 34.097-10.004 68.83-17.195 111.346-123.73-63.572-178.732-184.397-256.905-287.826-31.183 32.446-14.943 59.248-4.802 80.098 48.641 113.19 120.452 208.98 228.499 271.54 34.243 20.553 56.959 44.623 76.192 79.584 53.547 100.354 141.381 166.053 246.025 206.716 23.991 10.073 50.826 16.252 85.445 28.122-78.833 58.825-178.471 72.584-249.747 157.836 32.789 0.080 50.941 5.884 65.837 1.844 129.398-44.259 258.794-88.518 387.929-134.461 9.845-3.255 21.372-6.771 30.693-13.395 48.811-30.011 51.476-68.374 4.769-102.517-36.975-27.027-78.48-49.902-118.301-73.040-49.288-28.563-94.684-54.285-142.029-81.427zM416.584 396.741c-19.153-67.749-10.050-131.262 23.046-184.707 19.391-30.613 49.677-57.745 79.059-79.561 21.487-17.138 46.901-9.013 61.457 18.050 48.753 102.822-38.513 240.584-163.562 246.218z" />
<glyph unicode="&#xe90f;" glyph-name="magnifying-glass-1" d="M859.413 160.853l-138.372 138.372c41.937 54.899 64.939 121.489 64.947 191.753 0 84.678-32.981 164.293-92.864 224.168-59.878 59.875-139.482 92.854-224.171 92.854-84.675 0-164.29-32.979-224.165-92.854-123.604-123.615-123.604-324.742 0-448.334 59.875-59.883 139.49-92.864 224.165-92.864 70.268 0.009 136.858 23.010 191.757 64.947l138.372-138.372c8.32-8.337 19.247-12.501 30.165-12.501 10.914 0 21.841 4.164 30.165 12.501 16.666 16.653 16.666 43.674 0 60.331zM305.123 327.147c-90.333 90.334-90.323 237.322 0 327.666 43.76 43.75 101.948 67.854 163.831 67.854 61.897 0 120.077-24.104 163.836-67.854 43.759-43.761 67.866-101.948 67.866-163.834 0-61.897-24.107-120.073-67.866-163.831-43.759-43.763-101.939-67.866-163.836-67.866-61.883 0-120.071 24.102-163.831 67.866z" />
<glyph unicode="&#xe910;" glyph-name="traveler-with-a-suitcase-1" d="M391.891 730.403c-63.401 0-114.799 51.397-114.799 114.799s51.397 114.798 114.799 114.798c63.401 0 114.798-51.397 114.798-114.798s-51.397-114.799-114.798-114.799zM105.337 565.179c102.585 10.551 202.047 121.562 227.079 136.936 15.359 11.087 33.521 18.348 50.894 21.058 0 0 12.349 2.563 25.112 1.155 12.215-1.357 30.789-1.988 57.983-22.26 1.97-1.225 15.862-13.32 20.243-18.59 33.845-35.085 127.639-138.837 174.328-256.203 6.6-16.676 2.412-34.785-9.083-46.996l54.83-97.7 77.235 43.392c9.221 5.187 20.925 1.946 26.102-7.286l146.191-258.319c5.176-9.221 1.9-20.977-7.342-26.112l-58.47-32.881c9.308-16.568 7.071-38.001-6.994-52.25-16.957-17.306-44.81-17.521-62.090-0.512-16.061 15.841-17.372 40.996-3.763 58.342l-79.826 140.047-55.921 99.651-69.32 120.166c-14.986 2.386-28.421 12.375-34.458 27.53-19.758 49.751-50.355 97.684-79.906 137.404l-13.925-160.034c-1.614-18.796-9.445-34.57-21.054-47.017 35.902-65.106 132.518-243.139 167.401-303.626 15.626-27.146 6.339-61.829-20.792-77.476-10.184-5.837-21.453-8.243-32.369-7.455-18.156 1.316-35.338 11.346-45.097 28.278-32.501 56.34-117.264 227.323-154.442 291.599-29.806-49.536-80.589-140.682-145.014-286.239-9.366-21.212-30.124-33.782-51.912-33.782-7.705 0-15.471 1.551-22.95 4.869-28.629 12.667-41.584 46.157-28.886 74.783 75.974 171.771 131.914 267.121 162.907 317.343-12.25 15.375-19.629 34.493-17.698 56.924l13.181 151.58c-38.179-30.484-87.998-56.165-173.061-64.961-1.581-0.169-3.111-0.246-4.659-0.246-22.531 0-41.903 17.049-44.269 39.967-2.478 24.504 15.314 46.402 39.814 48.921zM853.043-37.499c8.832 0 15.995 7.163 15.995 15.99s-7.163 15.985-15.995 15.985c-8.827 0-15.99-7.158-15.99-15.985 0.005-8.832 7.163-15.99 15.99-15.99z" />
<glyph unicode="&#xe911;" glyph-name="calendar-1" d="M861.091 665.732v-101.486h-698.182v101.486c0.255 19.6 8.274 38.299 22.297 51.996s32.907 21.271 52.508 21.064h49.87v-49.87c0-19.84 7.882-38.866 21.91-52.895s33.056-21.91 52.895-21.91c19.84 0 38.867 7.881 52.896 21.91s21.91 33.056 21.91 52.895v49.87h149.608v-49.87c0-19.84 7.885-38.866 21.914-52.895s33.052-21.91 52.894-21.91c19.838 0 38.865 7.881 52.894 21.91s21.909 33.056 21.909 52.895v49.87h49.873c19.6 0.208 38.484-7.368 52.508-21.064 14.019-13.696 22.039-32.396 22.295-51.996zM162.909 514.386v-400.708c0.255-19.6 8.274-38.298 22.297-51.996 14.024-13.694 32.907-21.271 52.508-21.062h548.574c19.6-0.209 38.484 7.368 52.508 21.062 14.019 13.698 22.039 32.396 22.295 51.996v400.708h-698.182zM387.325 165.297c-0.019-6.609-2.652-12.94-7.324-17.613s-11.003-7.303-17.611-7.322h-49.87c-6.608 0.019-12.939 2.648-17.611 7.322s-7.305 11.003-7.324 17.613v49.869c0.019 6.609 2.652 12.94 7.324 17.613 4.672 4.669 11.003 7.303 17.611 7.322h49.87c6.608-0.019 12.939-2.653 17.611-7.322 4.672-4.673 7.305-11.003 7.324-17.613v-49.869zM387.325 339.842c-0.019-6.609-2.652-12.94-7.324-17.613s-11.003-7.303-17.611-7.322h-49.87c-6.608 0.019-12.939 2.648-17.611 7.322s-7.305 11.003-7.324 17.613v49.869c0.019 6.609 2.652 12.94 7.324 17.613 4.672 4.669 11.003 7.303 17.611 7.322h49.87c6.608-0.019 12.939-2.653 17.611-7.322 4.672-4.673 7.305-11.003 7.324-17.613v-49.869zM561.869 165.297c-0.019-6.609-2.653-12.94-7.322-17.613-4.673-4.673-11.003-7.303-17.613-7.322h-49.869c-6.608 0.019-12.939 2.648-17.611 7.322s-7.305 11.003-7.324 17.613v49.869c0.019 6.609 2.652 12.94 7.324 17.613 4.672 4.669 11.003 7.303 17.611 7.322h49.869c6.609-0.019 12.94-2.653 17.613-7.322 4.669-4.673 7.303-11.003 7.322-17.613v-49.869zM561.869 339.842c-0.019-6.609-2.653-12.94-7.322-17.613-4.673-4.673-11.003-7.303-17.613-7.322h-49.869c-6.608 0.019-12.939 2.648-17.611 7.322s-7.305 11.003-7.324 17.613v49.869c0.019 6.609 2.652 12.94 7.324 17.613 4.672 4.669 11.003 7.303 17.611 7.322h49.869c6.609-0.019 12.94-2.653 17.613-7.322 4.669-4.673 7.303-11.003 7.322-17.613v-49.869zM736.414 339.842c-0.019-6.609-2.653-12.94-7.322-17.613-4.673-4.673-11.003-7.303-17.613-7.322h-49.869c-6.609 0.019-12.94 2.648-17.613 7.322-4.669 4.673-7.303 11.003-7.322 17.613v49.869c0.019 6.609 2.653 12.94 7.322 17.613 4.673 4.669 11.003 7.303 17.613 7.322h49.869c6.609-0.019 12.94-2.653 17.613-7.322 4.669-4.673 7.303-11.003 7.322-17.613v-49.869zM387.325 738.792v-49.87c0-6.613-2.627-12.955-7.303-17.632s-11.019-7.303-17.632-7.303c-6.613 0-12.955 2.627-17.631 7.303s-7.303 11.019-7.303 17.632v49.87c0 6.613 2.627 12.955 7.303 17.632s11.018 7.303 17.631 7.303c6.613 0 12.956-2.627 17.632-7.303s7.303-11.019 7.303-17.632zM686.545 738.792v-49.87c0-6.613-2.625-12.955-7.303-17.632s-11.017-7.303-17.631-7.303c-6.614 0-12.954 2.627-17.631 7.303s-7.303 11.019-7.303 17.632v49.87c0 6.613 2.625 12.955 7.303 17.632s11.017 7.303 17.631 7.303c6.614 0 12.954-2.627 17.631-7.303s7.303-11.019 7.303-17.632z" />
<glyph unicode="&#xe912;" glyph-name="luggage--1" d="M442.001 809.667c0 8.27 8.077 15 17.997 15h104.004c9.924 0 17.997-6.73 17.997-15v-89.358h60.002v89.358c0 35.842-34.991 65-77.999 65h-104.004c-43.008 0-77.998-29.158-77.998-65v-89.358h60.001v89.358zM752 670.313h-480.001c-38.598 0-70.001-26.169-70.001-58.334v-482.31c0-29.338 26.124-53.675 60-57.728v-25.6c0-13.807 13.432-24.998 30-24.998s30 11.191 30 24.998v24.994h380.004v-24.994c0-13.807 13.431-25.003 29.999-25.003s29.999 11.196 29.999 25.003v25.596c33.877 4.058 60.002 28.395 60.002 57.728v482.315c0 32.165-31.407 58.334-70.003 58.334zM382 162.999c0-13.807-13.432-24.998-30-24.998s-30 11.191-30 24.998v415.646c0 13.807 13.432 25 30 25s30-11.194 30-25v-415.646zM672 138.001c-16.567 0-29.999 11.191-29.999 24.998v415.646c0 13.807 13.431 25 29.999 25s30.003-11.194 30.003-25v-415.646c0-13.807-13.436-24.998-30.003-24.998z" />
<glyph unicode="&#xe913;" glyph-name="arrow-up-right" d="M298.667 597.334h323.669l-353.835-353.835c-16.683-16.683-16.683-43.691 0-60.331s43.691-16.683 60.331 0l353.835 353.835v-323.669c0-23.552 19.115-42.667 42.667-42.667s42.667 19.115 42.667 42.667v426.667c0 5.803-1.152 11.307-3.243 16.341s-5.163 9.728-9.216 13.781c-0.043 0.043-0.043 0.043-0.085 0.085-3.925 3.925-8.619 7.083-13.781 9.216-5.035 2.091-10.539 3.243-16.341 3.243h-426.667c-23.552 0-42.667-19.115-42.667-42.667s19.115-42.667 42.667-42.667z" />
<glyph unicode="&#xe914;" glyph-name="bubble-chat" d="M917.6 205.35c92.762 148.092 78.586 350.982-48.122 483.144-57.894 60.384-131.706 97.976-211.43 108.474-0.499 0.696-1.005 1.385-1.562 2.044-69.358 81.973-169.003 128.988-273.384 128.988-198.636 0-365.603-168.39-365.603-384 0-75.595 20.638-148.062 59.843-210.648l-54.767-195.637c-3.442-12.301-0.056-25.741 8.586-34.099 8.657-8.371 20.869-9.978 30.958-4.141l166.551 96.358c34.204-16.755 70.474-27.75 108.033-32.755 72.454-86.688 172.637-131.078 275.134-131.078 53.283 0 106.364 12.352 154.422 35.834l166.56-96.358c4.032-2.336 8.403-3.475 12.742-3.475 18.982 0 32.589 21.043 26.803 41.715l-54.765 195.635zM240.021 260.224c-7.877 4.256-17.040 4.115-24.812-0.384l-118.626-68.627 38.737 138.379c2.82 10.076 1.086 21.084-4.637 29.414-37.249 54.25-56.938 118.218-56.938 184.994 0 176.448 138.776 320 309.357 320 68.692 0 134.822-23.678 188.463-66.317-180.652-20.668-325.331-181.21-325.331-381.683 0-62.353 14.047-122.381 40.532-176.16-16.035 5.434-31.652 12.224-46.746 20.384zM779.731 131.84c-7.661 4.435-16.832 4.698-24.813 0.384-43.846-23.699-93.325-36.224-143.081-36.224-170.58 0-309.356 143.552-309.356 320s138.776 320 309.356 320c170.582 0 309.353-143.552 309.353-320 0-66.776-19.686-130.746-56.934-184.992-5.722-8.333-7.456-19.341-4.64-29.414l38.739-138.381-118.624 68.627zM497.5 384c15.533 0 28.125 14.327 28.125 32s-12.592 32-28.125 32c-15.533 0-28.125-14.327-28.125-32s12.592-32 28.125-32zM610 384c15.533 0 28.125 14.327 28.125 32s-12.592 32-28.125 32c-15.533 0-28.125-14.327-28.125-32s12.592-32 28.125-32zM722.438 384c15.533 0 28.122 14.327 28.122 32s-12.589 32-28.122 32c-15.533 0-28.128-14.327-28.128-32s12.595-32 28.128-32z" />
<glyph unicode="&#xe915;" glyph-name="calendar" d="M796.414 741.143h-40.638v81.27c0 10.777-4.276 21.112-11.898 28.733s-17.959 11.902-28.735 11.902c-10.776 0-21.114-4.281-28.731-11.902-7.621-7.621-11.903-17.956-11.903-28.733v-81.27h-325.080v81.27c0 10.777-4.281 21.112-11.902 28.733s-17.956 11.902-28.733 11.902c-10.777 0-21.112-4.281-28.733-11.902s-11.902-17.956-11.902-28.733v-81.27h-40.635c-32.332 0-63.338-12.843-86.2-35.705s-35.705-53.869-35.705-86.2v-40.635h812.699v40.635c0 32.331-12.844 63.338-35.703 86.2-22.864 22.862-53.872 35.705-86.201 35.705zM105.619 172.256c0-32.334 12.843-63.342 35.705-86.201 22.862-22.864 53.868-35.703 86.2-35.703h568.89c32.329 0 63.337 12.839 86.201 35.703 22.86 22.86 35.703 53.867 35.703 86.201v325.077h-812.699v-325.077z" />
<glyph unicode="&#xe916;" glyph-name="checked" d="M298.667 64h426.667c45.261 0 88.673 17.983 120.678 49.988s49.988 75.418 49.988 120.678v206.933c0 11.316-4.494 22.168-12.498 30.17-7.999 8.002-18.853 12.497-30.168 12.497s-22.17-4.495-30.168-12.497c-8.004-8.001-12.498-18.854-12.498-30.17v-206.933c0-22.63-8.988-44.339-24.991-60.342s-37.712-24.991-60.342-24.991h-426.667c-22.632 0-44.337 8.988-60.34 24.991s-24.994 37.712-24.994 60.342v426.667c0 22.632 8.99 44.337 24.994 60.34s37.708 24.994 60.34 24.994h213.333c11.316 0 22.168 4.495 30.17 12.497s12.497 18.854 12.497 30.17c0 11.316-4.495 22.168-12.497 30.17s-18.854 12.497-30.17 12.497h-213.333c-45.264 0-88.673-17.981-120.68-49.987s-49.987-75.416-49.987-120.68v-426.667c0-45.261 17.981-88.673 49.987-120.678s75.416-49.988 120.68-49.988zM865.707 776.952l-353.707-354.133-140.373 140.8c-8.034 8.034-18.931 12.548-30.293 12.548s-22.259-4.514-30.293-12.548c-8.034-8.034-12.548-18.931-12.548-30.293 0-5.626 1.108-11.197 3.261-16.394s5.309-9.921 9.287-13.899l170.667-170.664c3.966-3.999 8.685-7.174 13.885-9.341s10.776-3.282 16.408-3.282c5.633 0 11.209 1.115 16.408 3.282s9.919 5.342 13.885 9.341l384 383.998c8.033 8.034 12.55 18.931 12.55 30.293s-4.517 22.259-12.55 30.293c-8.033 8.034-18.933 12.548-30.293 12.548s-22.261-4.514-30.293-12.548z" />
<glyph unicode="&#xe917;" glyph-name="comment" d="M706.96 944.321h-389.99c-161.278 0-292.493-131.216-292.493-292.493v-227.497c0-155.833 122.49-283.585 276.244-292.055v-135.587c0-15.223 12.415-27.604 27.673-27.604 7.296 0 14.202 2.892 19.418 8.109l30.484 30.481c80.046 80.062 186.499 124.162 299.724 124.162h28.94c161.28 0 292.493 131.218 292.493 292.493v227.497c0 161.278-131.213 292.493-292.493 292.493zM300.72 473.082c-35.847 0-64.999 29.152-64.999 64.998s29.152 64.999 64.999 64.999c35.847 0 64.999-29.152 64.999-64.999s-29.168-64.998-64.999-64.998zM511.966 473.082c-35.847 0-64.999 29.152-64.999 64.998s29.152 64.999 64.999 64.999c35.845 0 65-29.152 65-64.999s-29.169-64.998-65-64.998zM723.212 473.082c-35.85 0-65 29.152-65 64.998s29.15 64.999 65 64.999c35.845 0 64.995-29.152 64.995-64.999s-29.164-64.998-64.995-64.998z" />
<glyph unicode="&#xe918;" glyph-name="cursor" d="M25.762 425.627l920.579 527.025c4.737 2.856 9.854 4.89 15.135 6.083 3.733 0.846 7.538 1.266 11.33 1.265 10.927 0.003 21.91-3.473 31.156-10.578 10.174-7.802 16.837-18.948 19.139-31.080 0.743-3.91 1.034-7.922 0.839-11.957-0.162-3.544-0.697-7.080-1.595-10.546l-195.564-818.14c-4.889-20.434-21.973-36.435-44.257-39.047-8.872-1.041-17.87 0.72-26.162 4.053l-156.127 62.728-153.025-153.032c-12.149-12.149-29.385-18.676-46.301-15.677-25.161 4.463-42.509 26.053-42.509 50.473v189.665c0 11.703 3.868 23.076 11.003 32.355l256.509 333.507c5.473 7.118-3.581 16.258-10.752 10.854l-371.032-279.651c-13.655-10.293-31.699-12.688-47.565-6.312l-162.708 65.368c-14.118 5.672-25.923 16.665-30.922 31.034-8.393 24.127 1.856 49.601 22.831 61.612z" />
<glyph unicode="&#xe919;" glyph-name="help" d="M1024.003 267.003c0 127.072-72.899 240.478-182.077 295.642-3.392-243.639-200.922-441.172-444.565-444.561 55.164-109.182 168.57-182.080 295.642-182.080 59.577 0 117.516 15.869 168.422 46.017l161.135-44.57-44.57 161.131c30.149 50.906 46.014 108.845 46.014 168.422zM781.999 569c0 215.601-175.398 391-391 391s-391-175.398-391-391c0-70.266 18.703-138.679 54.219-198.742l-52.781-190.814 190.82 52.776c60.062-35.516 128.476-54.219 198.742-54.219 215.602 0 391 175.398 391 391zM331 660h-60c0 66.172 53.828 120 120 120 66.174 0 120-53.828 120-120 0-33.586-14.217-65.869-39.021-88.555l-50.979-46.655v-46.79h-60v73.209l70.468 64.502c12.595 11.522 19.532 27.25 19.532 44.289 0 33.086-26.915 60-60 60s-60-26.914-60-60zM361 418h60v-60h-60v60z" />
<glyph unicode="&#xe91a;" glyph-name="phone" d="M997.148 208.49l-143.201 142.901c-51.147 51.035-138.091 30.621-158.548-35.724-15.343-45.938-66.487-71.455-112.514-61.245-102.291 25.517-240.379 158.211-265.95 265.391-15.343 45.935 15.344 96.969 61.371 112.279 66.487 20.415 86.948 107.176 35.804 158.213l-143.204 142.902c-40.915 35.726-102.288 35.726-138.088 0l-97.174-96.969c-97.173-102.073 10.229-372.566 250.605-612.437 240.376-239.874 511.438-352.154 613.726-250.081l97.174 96.969c35.804 40.831 35.804 102.073 0 137.801z" />
<glyph unicode="&#xe91b;" glyph-name="user" d="M486.571 960c-148.878 0-270-121.122-270-270s121.122-270 270-270c148.879 0 270 121.122 270 270s-121.122 270-270 270zM486.571 480c-115.794 0-210 94.206-210 210s94.206 210 210 210c115.795 0 210-94.206 210-210s-94.206-210-210-210zM822.506 243.61c-73.923 75.056-171.916 116.39-275.934 116.39h-120c-104.016 0-202.012-41.334-275.932-116.39-73.558-74.687-114.068-173.276-114.068-277.607 0-16.574 13.432-30.003 30-30.003h839.998c16.567 0 30.003 13.429 30.003 30.003 0 104.331-40.514 202.92-114.066 277.607zM97.891-4.001c15.030 170.174 156.702 304.001 328.68 304.001h120c171.978 0 313.647-133.827 328.678-304.001h-777.358z" />
</font>
</defs>
</svg>
