<svg width="180" height="789" viewBox="0 0 180 789" fill="none" xmlns="http://www.w3.org/2000/svg">
<path d="M23.75 747.5L15.25 741L19.25 729.5L12.75 715.5L0.25 696L3.75 643.5L23.75 609.5L20.25 596.5L23.75 577.5L25.75 567.5L23.75 561.5L12.25 555.5L24.75 559.5L28.75 556.5L51.25 557.5L49.25 562.5H54.75H63.75L68.75 559.5L79.75 544H84.75L88.25 536.5L89.75 530.5L81.25 521.5L84.75 533.5L77.25 521.5L75.75 494L70.75 455.5L66.75 441.5L63.25 420.5L68.75 401.5L79.75 394.5V384.5L81.75 379L69.75 361L68.25 345.5L74.25 329L72.25 312L64.25 304.5L62.25 295.5L67.75 287.5L86.25 281.5L94.75 261.5L104.25 233.5L100.75 223L91.75 215L84.75 207L91.75 197.5L104.25 189L101.75 181L104.75 172.5L111.75 164L101.75 154.5L104.75 153L97.75 147L104.75 149L103.75 143L101.75 137.5L90.75 131L97.75 129L105.75 138.5L109.75 137.5L113.75 143L112.75 134L119.75 122L121.25 125.5L124.25 117.5L122.25 113L125.25 111.5L123.25 106L118.25 104.5L115.75 98H109.25L101.75 100.5L100.75 96.5L94.75 93H105.75L112.75 89.5L102.25 81.5L110.75 83.5L112.75 76.5L115.25 87L120.75 84.5L124.25 80L125.25 83.5L131.25 85L134.25 84.5L136.25 72.5L131.25 63L136.25 65L134.75 48H130.25L127.25 39L117.25 36L112.75 30.5L121.75 32.5L128.75 37.5L131.75 43.5L135.25 44V40L130.25 36L127.75 30L128.75 24L123.75 20.5L121.25 16.5V5.5L118.75 4.5L118.25 -0.5H126.75L125.75 5.5L127.25 7.5L124.75 9L124.25 14L129.75 16.5L131.25 13.5L131.75 18L133.25 30.5L141.25 40L139.25 50L145.25 48.5L150.75 50.5L141.25 52L140.25 57.5L143.75 56.5L140.25 63L141.25 71L142.25 73.5L140.25 78L143.75 85L140.25 88.5L147.75 92L150.25 90.5L155.75 93V96L159.75 97.5L162.25 91.5L166.25 94.5L173.75 93L175.75 96.5L179.25 97.5L173.75 100L170.75 96.5H163.75L157.75 103L155.75 100L154.75 104.5L150.75 97L146.25 96.5L145.25 93L134.25 92H125.75L124.25 98L131.25 97.5L128.75 100.5L130.75 103.5L129.75 111L132.75 118.5L127.25 121L126.25 128L123.25 129.5L124.25 132.5L121.25 134L120.75 142L125.75 147L132.75 148V153L140.75 159L137.25 160L126.25 149L125.75 156L119.75 160L118.75 165L113.75 165.5L106.75 174L104.25 181L105.75 190.5L97.25 196.5L87.75 207L103.75 224L105.75 236L102.25 250C97.75 258.333 89.853 284.527 88.75 285C85.25 286.5 76.25 285.5 71.25 289.5L67.25 293L66.25 297.5L72.75 309.5L75.75 319L76.75 330L74.25 337L71.25 349V359.5L84.75 376L84.25 390.5L76.75 399.5L73.75 408L65.75 418L68.75 438.5C71.0833 445.667 77.75 489.6 77.75 492C77.75 494.4 79.25 510 83.75 521.5L93.75 530.5L88.25 548.5L79.75 559.5L72.75 566.5L62.75 567.5L54.75 562.5L51.25 567.5L45.75 564.5L37.75 570.5V599.5V613L24.75 632L28.75 646L23.75 662C23.75 670.333 24.7304 687.808 23.75 688.5C15.25 694.5 27.9435 700.5 24.75 711.5C20.25 727 25.75 728 23.75 735L42.25 757.5L54.25 775L59.25 781.5L61.25 787.5L34.75 788.5V776.5L24.75 766L25.75 757.5L23.75 747.5Z" fill="#0099C3" stroke="#3399CC" stroke-width="0.5" stroke-linecap="round" stroke-linejoin="round"/>
</svg>
