<svg width="523" height="790" viewBox="0 0 523 790" fill="none" xmlns="http://www.w3.org/2000/svg">
<g clip-path="url(#clip0_687_2563)">
<path opacity="0.4" d="M315.5 357L302.5 356L285.5 358L274.5 347.5L247.5 336.5L239.5 329.5L221 320.5L210 309.5L191.5 307L182 300L170.5 296L169 293.5L169.5 280" stroke="#EF4444" stroke-width="2" stroke-linecap="round" stroke-linejoin="round"/>
<path opacity="0.4" d="M325 216.5L304.5 220L283.5 225L274 225.5L254 246L252.5 254.5L221 275.5L199.5 280.5L161.5 280.5L152.5 279L143.5 280" stroke="#EF4444" stroke-width="2" stroke-linecap="round" stroke-linejoin="round"/>
<path opacity="0.4" d="M302 277.5L298.5 274.5L292 274.5L283.5 265.5L282.5 254.5L265.642 240.349" stroke="#EF4444" stroke-width="2" stroke-linecap="round" stroke-linejoin="round"/>
<path opacity="0.4" d="M319 429L286 429L275.5 426.5L260 420.5L246 419L206 408.5L198 409.5L194 408L194 401L182 398.5L169 392L154.5 389L144 393L137.5 393.5L127.5 398.5L117 399" stroke="#EF4444" stroke-width="2" stroke-linecap="round" stroke-linejoin="round"/>
<path opacity="0.4" d="M315.5 359.5L319 367.5L327.5 364.5L332 370L330.5 374" stroke="#EF4444" stroke-width="2" stroke-linecap="round" stroke-linejoin="round"/>
<path opacity="0.4" d="M316 379.5L330.5 373.5L335 379L338.5 380" stroke="#EF4444" stroke-width="2" stroke-linecap="round" stroke-linejoin="round"/>
<path opacity="0.4" d="M263 542.5L264 535L258 519.5L248 496.5L231.5 485L212.5 477L204 476L197 471.5L188.5 438.5L194 407.5" stroke="#EF4444" stroke-width="2" stroke-linecap="round" stroke-linejoin="round"/>
<path opacity="0.4" d="M263 544L257 548L247 549.5L211.5 560L176 551L135 577L119.5 576" stroke="#EF4444" stroke-width="2" stroke-linecap="round" stroke-linejoin="round"/>
<path opacity="0.4" d="M211.5 653L185 650L148.5 633.5L134 615.5L128 589.5L119.5 576L115.5 569.5L119.5 557.5L114 540.5" stroke="#EF4444" stroke-width="2" stroke-linecap="round" stroke-linejoin="round"/>
<path opacity="0.4" d="M321.5 160L342.5 180L354 189" stroke="#EF4444" stroke-width="2" stroke-linecap="round" stroke-linejoin="round"/>
<path opacity="0.4" d="M347 39L354.5 48L361.5 53L372 61.5L381.5 72L375 79L372.439 83.7606" stroke="#EF4444" stroke-width="2" stroke-linecap="round" stroke-linejoin="round"/>
<path opacity="0.4" d="M344.934 105.504L373.5 102.5" stroke="#EF4444" stroke-width="2" stroke-linecap="round" stroke-linejoin="round"/>
<path opacity="0.7" d="M172.515 789.88L181 754L198.5 743.5L195 724L209 675.5L213.5 659L209 644L225.5 624L228.5 596L237 573.5L253 533.5L263 497L274 481L281.5 456.5L303 429.5L315.5 381L315.5 345L303 317.5L300 300L303 265L321 241.5L324.5 216.5L342.5 194.5L345.5 165L344 143.5L348 123.5L345.5 105.5L352 83.0001L350.5 68.5001L356.5 53.5001L356.5 37.5001L364.5 22.0001L364.5 -0.499863" stroke="#F07900" stroke-width="4" stroke-linecap="round" stroke-linejoin="round"/>
</g>
<defs>
<clipPath id="clip0_687_2563">
<rect width="563" height="800" fill="white" transform="translate(-40 -10)"/>
</clipPath>
</defs>
</svg>
